<svg version="1.1" viewBox="0.0 0.0 600.0 371.0" fill="none" stroke="none" stroke-linecap="square" stroke-miterlimit="10" width="600" height="371" xmlns:xlink="http://www.w3.org/1999/xlink" xmlns="http://www.w3.org/2000/svg"><path fill="#ffffff" d="M0 0L600.0 0L600.0 371.0L0 371.0L0 0Z" fill-rule="nonzero"/><path stroke="#333333" stroke-width="1.0" stroke-linecap="butt" d="M126.5 54.5L126.5 298.5" fill-rule="nonzero"/><path stroke="#cccccc" stroke-width="1.0" stroke-linecap="butt" d="M240.5 54.5L240.5 298.5" fill-rule="nonzero"/><path stroke="#cccccc" stroke-width="1.0" stroke-linecap="butt" d="M354.5 54.5L354.5 298.5" fill-rule="nonzero"/><path stroke="#cccccc" stroke-width="1.0" stroke-linecap="butt" d="M467.5 54.5L467.5 298.5" fill-rule="nonzero"/><path stroke="#cccccc" stroke-width="1.0" stroke-linecap="butt" d="M581.5 54.5L581.5 298.5" fill-rule="nonzero"/><clipPath id="id_0"><path d="M126.55 54.916668L581.45 54.916668L581.45 298.45L126.55 298.45L126.55 54.916668Z" clip-rule="nonzero"/></clipPath><path stroke="#000000" stroke-width="0.0" stroke-linecap="butt" stroke-opacity="0.0" clip-path="url(#id_0)" d="M127.0 283.0L127.0 253.0L488.0 253.0C489.10458 253.0 490.0 253.89543 490.0 255.0L490.0 281.0C490.0 282.10458 489.10458 283.0 488.0 283.0Z" fill-rule="nonzero"/><path fill="#4285f4" clip-path="url(#id_0)" d="M127.0 283.0L127.0 253.0L488.0 253.0C489.10458 253.0 490.0 253.89543 490.0 255.0L490.0 281.0C490.0 282.10458 489.10458 283.0 488.0 283.0Z" fill-rule="nonzero"/><path stroke="#000000" stroke-width="0.0" stroke-linecap="butt" stroke-opacity="0.0" clip-path="url(#id_0)" d="M127.0 237.0L127.0 207.0L193.0 207.0C194.10457 207.0 195.0 207.89543 195.0 209.0L195.0 235.0C195.0 236.10457 194.10457 237.0 193.0 237.0Z" fill-rule="nonzero"/><path fill="#4285f4" clip-path="url(#id_0)" d="M127.0 237.0L127.0 207.0L193.0 207.0C194.10457 207.0 195.0 207.89543 195.0 209.0L195.0 235.0C195.0 236.10457 194.10457 237.0 193.0 237.0Z" fill-rule="nonzero"/><path stroke="#000000" stroke-width="0.0" stroke-linecap="butt" stroke-opacity="0.0" clip-path="url(#id_0)" d="M127.0 192.0L127.0 162.0L318.0 162.0C319.10458 162.0 320.0 162.89543 320.0 164.0L320.0 190.0C320.0 191.10457 319.10458 192.0 318.0 192.0Z" fill-rule="nonzero"/><path fill="#4285f4" clip-path="url(#id_0)" d="M127.0 192.0L127.0 162.0L318.0 162.0C319.10458 162.0 320.0 162.89543 320.0 164.0L320.0 190.0C320.0 191.10457 319.10458 192.0 318.0 192.0Z" fill-rule="nonzero"/><path stroke="#000000" stroke-width="0.0" stroke-linecap="butt" stroke-opacity="0.0" clip-path="url(#id_0)" d="M127.0 146.0L127.0 116.0L159.0 116.0C160.10457 116.0 161.0 116.89543 161.0 118.0L161.0 144.0C161.0 145.10457 160.10457 146.0 159.0 146.0Z" fill-rule="nonzero"/><path fill="#4285f4" clip-path="url(#id_0)" d="M127.0 146.0L127.0 116.0L159.0 116.0C160.10457 116.0 161.0 116.89543 161.0 118.0L161.0 144.0C161.0 145.10457 160.10457 146.0 159.0 146.0Z" fill-rule="nonzero"/><path stroke="#000000" stroke-width="0.0" stroke-linecap="butt" stroke-opacity="0.0" clip-path="url(#id_0)" d="M127.0 101.0L127.0 71.0L170.0 71.0C171.10457 71.0 172.0 71.89543 172.0 73.0L172.0 99.0C172.0 100.10457 171.10457 101.0 170.0 101.0Z" fill-rule="nonzero"/><path fill="#4285f4" clip-path="url(#id_0)" d="M127.0 101.0L127.0 71.0L170.0 71.0C171.10457 71.0 172.0 71.89543 172.0 73.0L172.0 99.0C172.0 100.10457 171.10457 101.0 170.0 101.0Z" fill-rule="nonzero"/><path fill="#424242" d="M344.76562 346.7469Q344.60938 348.09064 343.76562 348.84064Q342.92188 349.575 341.53125 349.575Q340.01562 349.575 339.10938 348.4969Q338.20312 347.40314 338.20312 345.575L338.20312 344.7625Q338.20312 343.575 338.625 342.66876Q339.04688 341.7625 339.82812 341.27814Q340.60938 340.79376 341.625 340.79376Q342.98438 340.79376 343.79688 341.5594Q344.625 342.325 344.76562 343.65314L343.64062 343.65314Q343.48438 342.6375 343.0 342.1844Q342.51562 341.73126 341.625 341.73126Q340.54688 341.73126 339.9375 342.52814Q339.32812 343.325 339.32812 344.79376L339.32812 345.6219Q339.32812 347.0125 339.90625 347.84064Q340.48438 348.65314 341.53125 348.65314Q342.46875 348.65314 342.96875 348.23126Q343.46875 347.79376 343.64062 346.7469L344.76562 346.7469ZM346.03125 346.21564Q346.03125 345.29376 346.39062 344.54376Q346.76562 343.79376 347.42188 343.40314Q348.07812 342.9969 348.90625 342.9969Q350.20312 342.9969 351.0 343.8875Q351.8125 344.77814 351.8125 346.27814L351.8125 346.35626Q351.8125 347.27814 351.45312 348.0125Q351.09375 348.7469 350.4375 349.16876Q349.78125 349.575 348.92188 349.575Q347.64062 349.575 346.82812 348.6844Q346.03125 347.77814 346.03125 346.29376L346.03125 346.21564ZM347.125 346.35626Q347.125 347.40314 347.60938 348.04376Q348.10938 348.6844 348.92188 348.6844Q349.75 348.6844 350.23438 348.04376Q350.71875 347.3875 350.71875 346.21564Q350.71875 345.1844 350.21875 344.54376Q349.73438 343.8875 348.90625 343.8875Q348.10938 343.8875 347.60938 344.52814Q347.125 345.15314 347.125 346.35626ZM357.23438 348.825Q356.60938 349.575 355.375 349.575Q354.35938 349.575 353.82812 348.98126Q353.29688 348.3875 353.29688 347.23126L353.29688 343.10626L354.375 343.10626L354.375 347.2Q354.375 348.65314 355.54688 348.65314Q356.79688 348.65314 357.20312 347.71564L357.20312 343.10626L358.29688 343.10626L358.29688 349.45L357.26562 349.45L357.23438 348.825ZM361.34375 343.10626L361.375 343.90314Q362.10938 342.9969 363.28125 342.9969Q365.29688 342.9969 365.3125 345.2625L365.3125 349.45L364.21875 349.45L364.21875 345.2469Q364.21875 344.575 363.90625 344.2469Q363.60938 343.91876 362.95312 343.91876Q362.42188 343.91876 362.01562 344.2Q361.625 344.48126 361.40625 344.9344L361.40625 349.45L360.32812 349.45L360.32812 343.10626L361.34375 343.10626ZM368.79688 341.575L368.79688 343.10626L369.96875 343.10626L369.96875 343.95L368.79688 343.95L368.79688 347.8719Q368.79688 348.2625 368.95312 348.45Q369.10938 348.6375 369.48438 348.6375Q369.67188 348.6375 370.0 348.575L370.0 349.45Q369.57812 349.575 369.17188 349.575Q368.45312 349.575 368.07812 349.1375Q367.70312 348.6844 367.70312 347.8719L367.70312 343.95L366.54688 343.95L366.54688 343.10626L367.70312 343.10626L367.70312 341.575L368.79688 341.575Z" fill-rule="nonzero"/><path fill="#757575" d="M22.05 268.42697Q20.6125 268.0051 19.940624 267.39572Q19.284374 266.78635 19.284374 265.89572Q19.284374 264.89572 20.08125 264.23947Q20.89375 263.5676 22.190624 263.5676Q23.065624 263.5676 23.753124 263.91135Q24.440624 264.2551 24.815624 264.84885Q25.20625 265.4426 25.20625 266.16135L24.065624 266.16135Q24.065624 265.3801 23.565624 264.9426Q23.08125 264.5051 22.190624 264.5051Q21.3625 264.5051 20.89375 264.8801Q20.425 265.23947 20.425 265.8801Q20.425 266.41135 20.8625 266.77072Q21.315624 267.1301 22.378124 267.42697Q23.440624 267.72385 24.034374 268.08322Q24.64375 268.4426 24.925 268.92697Q25.221874 269.41135 25.221874 270.05197Q25.221874 271.09885 24.409374 271.72385Q23.596874 272.34885 22.253124 272.34885Q21.3625 272.34885 20.596874 272.0051Q19.846874 271.66135 19.425 271.08322Q19.01875 270.48947 19.01875 269.7551L20.14375 269.7551Q20.14375 270.52072 20.721874 270.97385Q21.3 271.42697 22.253124 271.42697Q23.14375 271.42697 23.6125 271.0676Q24.08125 270.6926 24.08125 270.0676Q24.08125 269.4426 23.64375 269.09885Q23.20625 268.7551 22.05 268.42697ZM26.08125 268.98947Q26.08125 268.0676 26.440624 267.3176Q26.815624 266.5676 27.471874 266.17697Q28.128124 265.77072 28.95625 265.77072Q30.253124 265.77072 31.05 266.66135Q31.8625 267.55197 31.8625 269.05197L31.8625 269.1301Q31.8625 270.05197 31.503124 270.78635Q31.14375 271.52072 30.4875 271.9426Q29.83125 272.34885 28.971874 272.34885Q27.690624 272.34885 26.878124 271.45822Q26.08125 270.55197 26.08125 269.0676L26.08125 268.98947ZM27.175 269.1301Q27.175 270.17697 27.659374 270.8176Q28.159374 271.45822 28.971874 271.45822Q29.8 271.45822 30.284374 270.8176Q30.76875 270.16135 30.76875 268.98947Q30.76875 267.95822 30.26875 267.3176Q29.784374 266.66135 28.95625 266.66135Q28.159374 266.66135 27.659374 267.30197Q27.175 267.92697 27.175 269.1301ZM34.39375 265.8801L34.425 266.58322Q35.1125 265.77072 36.3 265.77072Q37.628124 265.77072 38.1125 266.78635Q38.425 266.33322 38.925 266.05197Q39.440624 265.77072 40.128124 265.77072Q42.221874 265.77072 42.253124 267.97385L42.253124 272.22385L41.175 272.22385L41.175 268.03635Q41.175 267.36447 40.8625 267.03635Q40.55 266.6926 39.815624 266.6926Q39.20625 266.6926 38.8 267.05197Q38.409374 267.41135 38.346874 268.02072L38.346874 272.22385L37.26875 272.22385L37.26875 268.0676Q37.26875 266.6926 35.909374 266.6926Q34.846874 266.6926 34.45625 267.59885L34.45625 272.22385L33.3625 272.22385L33.3625 265.8801L34.39375 265.8801ZM47.003124 272.34885Q45.70625 272.34885 44.89375 271.5051Q44.096874 270.64572 44.096874 269.22385L44.096874 269.03635Q44.096874 268.08322 44.45625 267.34885Q44.815624 266.59885 45.45625 266.1926Q46.1125 265.77072 46.8625 265.77072Q48.096874 265.77072 48.784374 266.58322Q49.471874 267.39572 49.471874 268.91135L49.471874 269.36447L45.175 269.36447Q45.20625 270.30197 45.721874 270.8801Q46.253124 271.45822 47.065624 271.45822Q47.628124 271.45822 48.01875 271.22385Q48.425 270.98947 48.7375 270.59885L49.39375 271.11447Q48.596874 272.34885 47.003124 272.34885ZM46.8625 266.66135Q46.20625 266.66135 45.753124 267.14572Q45.315624 267.61447 45.221874 268.47385L48.39375 268.47385L48.39375 268.39572Q48.346874 267.5676 47.940624 267.11447Q47.55 266.66135 46.8625 266.66135ZM55.9875 270.72385L57.20625 265.8801L58.284374 265.8801L56.440624 272.22385L55.565624 272.22385L54.01875 267.41135L52.51875 272.22385L51.64375 272.22385L49.8 265.8801L50.878124 265.8801L52.128124 270.6301L53.6125 265.8801L54.471874 265.8801L55.9875 270.72385ZM60.45625 266.64572Q61.175 265.77072 62.33125 265.77072Q64.34688 265.77072 64.3625 268.03635L64.3625 272.22385L63.26875 272.22385L63.26875 268.02072Q63.26875 267.34885 62.95625 267.02072Q62.659374 266.6926 62.003124 266.6926Q61.471874 266.6926 61.065624 266.97385Q60.675 267.2551 60.45625 267.70822L60.45625 272.22385L59.378124 272.22385L59.378124 263.22385L60.45625 263.22385L60.45625 266.64572ZM70.28438 272.22385Q70.19063 272.03635 70.12813 271.55197Q69.37813 272.34885 68.33125 272.34885Q67.39375 272.34885 66.78438 271.8176Q66.19063 271.28635 66.19063 270.45822Q66.19063 269.47385 66.94063 268.92697Q67.69063 268.3801 69.06563 268.3801L70.1125 268.3801L70.1125 267.8801Q70.1125 267.3176 69.76875 266.98947Q69.44063 266.64572 68.76875 266.64572Q68.19063 266.64572 67.8 266.9426Q67.40938 267.22385 67.40938 267.64572L66.31563 267.64572Q66.31563 267.16135 66.64375 266.72385Q66.9875 266.28635 67.56563 266.03635Q68.14375 265.77072 68.83125 265.77072Q69.94063 265.77072 70.55 266.3176Q71.175 266.86447 71.20625 267.8176L71.20625 270.73947Q71.20625 271.61447 71.425 272.1301L71.425 272.22385L70.28438 272.22385ZM68.4875 271.39572Q69.00313 271.39572 69.45625 271.1301Q69.90938 270.86447 70.1125 270.4426L70.1125 269.14572L69.26875 269.14572Q67.26875 269.14572 67.26875 270.3176Q67.26875 270.8176 67.6125 271.11447Q67.95625 271.39572 68.4875 271.39572ZM74.84688 264.34885L74.84688 265.8801L76.01875 265.8801L76.01875 266.72385L74.84688 266.72385L74.84688 270.64572Q74.84688 271.03635 75.00313 271.22385Q75.15938 271.41135 75.53438 271.41135Q75.72188 271.41135 76.05 271.34885L76.05 272.22385Q75.62813 272.34885 75.22188 272.34885Q74.50313 272.34885 74.12813 271.91135Q73.75313 271.45822 73.75313 270.64572L73.75313 266.72385L72.59688 266.72385L72.59688 265.8801L73.75313 265.8801L73.75313 264.34885L74.84688 264.34885ZM80.1125 269.0051Q80.1125 267.53635 80.8 266.66135Q81.4875 265.77072 82.6125 265.77072Q83.72188 265.77072 84.37813 266.52072L84.37813 263.22385L85.45625 263.22385L85.45625 272.22385L84.45625 272.22385L84.40938 271.53635Q83.75313 272.34885 82.59688 272.34885Q81.50313 272.34885 80.8 271.4426Q80.1125 270.53635 80.1125 269.08322L80.1125 269.0051ZM81.19063 269.1301Q81.19063 270.20822 81.62813 270.8176Q82.08125 271.42697 82.8625 271.42697Q83.89375 271.42697 84.37813 270.48947L84.37813 267.58322Q83.89375 266.6926 82.87813 266.6926Q82.08125 266.6926 81.62813 267.30197Q81.19063 267.91135 81.19063 269.1301ZM88.55 272.22385L87.47188 272.22385L87.47188 265.8801L88.55 265.8801L88.55 272.22385ZM87.37813 264.20822Q87.37813 263.9426 87.53438 263.7551Q87.70625 263.5676 88.01875 263.5676Q88.33125 263.5676 88.4875 263.7551Q88.65938 263.9426 88.65938 264.20822Q88.65938 264.45822 88.4875 264.64572Q88.33125 264.8176 88.01875 264.8176Q87.70625 264.8176 87.53438 264.64572Q87.37813 264.45822 87.37813 264.20822ZM90.90938 272.22385L90.90938 266.72385L89.90938 266.72385L89.90938 265.8801L90.90938 265.8801L90.90938 265.23947Q90.90938 264.20822 91.44063 263.66135Q91.9875 263.09885 92.9875 263.09885Q93.3625 263.09885 93.7375 263.1926L93.675 264.08322Q93.39375 264.02072 93.09688 264.02072Q92.56563 264.02072 92.26875 264.33322Q91.9875 264.64572 91.9875 265.20822L91.9875 265.8801L93.34688 265.8801L93.34688 266.72385L91.9875 266.72385L91.9875 272.22385L90.90938 272.22385ZM94.90938 272.22385L94.90938 266.72385L93.90938 266.72385L93.90938 265.8801L94.90938 265.8801L94.90938 265.23947Q94.90938 264.20822 95.44063 263.66135Q95.9875 263.09885 96.9875 263.09885Q97.3625 263.09885 97.7375 263.1926L97.675 264.08322Q97.39375 264.02072 97.09688 264.02072Q96.56563 264.02072 96.26875 264.33322Q95.9875 264.64572 95.9875 265.20822L95.9875 265.8801L97.34688 265.8801L97.34688 266.72385L95.9875 266.72385L95.9875 272.22385L94.90938 272.22385ZM99.55 272.22385L98.47188 272.22385L98.47188 265.8801L99.55 265.8801L99.55 272.22385ZM98.37813 264.20822Q98.37813 263.9426 98.53438 263.7551Q98.70625 263.5676 99.01875 263.5676Q99.33125 263.5676 99.4875 263.7551Q99.65938 263.9426 99.65938 264.20822Q99.65938 264.45822 99.4875 264.64572Q99.33125 264.8176 99.01875 264.8176Q98.70625 264.8176 98.53438 264.64572Q98.37813 264.45822 98.37813 264.20822ZM103.90938 271.45822Q104.4875 271.45822 104.925 271.11447Q105.3625 270.7551 105.40938 270.22385L106.44063 270.22385Q106.40938 270.77072 106.05 271.27072Q105.70625 271.7551 105.12813 272.05197Q104.56563 272.34885 103.90938 272.34885Q102.6125 272.34885 101.84688 271.48947Q101.09688 270.61447 101.09688 269.11447L101.09688 268.92697Q101.09688 268.0051 101.425 267.28635Q101.76875 266.5676 102.39375 266.17697Q103.03438 265.77072 103.90938 265.77072Q104.97188 265.77072 105.675 266.41135Q106.39375 267.03635 106.44063 268.0676L105.40938 268.0676Q105.3625 267.4426 104.94063 267.05197Q104.51875 266.66135 103.90938 266.66135Q103.08125 266.66135 102.62813 267.2551Q102.175 267.84885 102.175 268.97385L102.175 269.17697Q102.175 270.27072 102.62813 270.86447Q103.08125 271.45822 103.90938 271.45822ZM111.28438 271.59885Q110.65938 272.34885 109.425 272.34885Q108.40938 272.34885 107.87813 271.7551Q107.34688 271.16135 107.34688 270.0051L107.34688 265.8801L108.425 265.8801L108.425 269.97385Q108.425 271.42697 109.59688 271.42697Q110.84688 271.42697 111.25313 270.48947L111.25313 265.8801L112.34688 265.8801L112.34688 272.22385L111.31563 272.22385L111.28438 271.59885ZM115.55 272.22385L114.47188 272.22385L114.47188 263.22385L115.55 263.22385L115.55 272.22385ZM118.84688 264.34885L118.84688 265.8801L120.01875 265.8801L120.01875 266.72385L118.84688 266.72385L118.84688 270.64572Q118.84688 271.03635 119.00313 271.22385Q119.15938 271.41135 119.53438 271.41135Q119.72188 271.41135 120.05 271.34885L120.05 272.22385Q119.62813 272.34885 119.22188 272.34885Q118.50313 272.34885 118.12813 271.91135Q117.75313 271.45822 117.75313 270.64572L117.75313 266.72385L116.59688 266.72385L116.59688 265.8801L117.75313 265.8801L117.75313 264.34885L118.84688 264.34885Z" fill-rule="nonzero"/><path fill="#757575" d="M72.3625 225.20358L74.8 218.17233L76.03438 218.17233L72.8625 226.70358L71.87813 226.70358L68.72188 218.17233L69.94063 218.17233L72.3625 225.20358ZM80.00313 226.82858Q78.70625 226.82858 77.89375 225.98483Q77.09688 225.12546 77.09688 223.70358L77.09688 223.51608Q77.09688 222.56296 77.45625 221.82858Q77.81563 221.07858 78.45625 220.67233Q79.1125 220.25046 79.8625 220.25046Q81.09688 220.25046 81.78438 221.06296Q82.47188 221.87546 82.47188 223.39108L82.47188 223.84421L78.175 223.84421Q78.20625 224.78171 78.72188 225.35983Q79.25313 225.93796 80.06563 225.93796Q80.62813 225.93796 81.01875 225.70358Q81.425 225.46921 81.7375 225.07858L82.39375 225.59421Q81.59688 226.82858 80.00313 226.82858ZM79.8625 221.14108Q79.20625 221.14108 78.75313 221.62546Q78.31563 222.09421 78.22188 222.95358L81.39375 222.95358L81.39375 222.87546Q81.34688 222.04733 80.94063 221.59421Q80.55 221.14108 79.8625 221.14108ZM86.44063 221.32858Q86.19063 221.29733 85.90938 221.29733Q84.83125 221.29733 84.45625 222.20358L84.45625 226.70358L83.37813 226.70358L83.37813 220.35983L84.425 220.35983L84.44063 221.09421Q84.97188 220.25046 85.95625 220.25046Q86.26875 220.25046 86.44063 220.32858L86.44063 221.32858ZM89.44063 225.10983L90.925 220.35983L92.08125 220.35983L89.53438 227.68796Q88.94063 229.26608 87.65938 229.26608L87.44063 229.25046L87.05 229.17233L87.05 228.29733L87.33125 228.31296Q87.89375 228.31296 88.19063 228.09421Q88.50313 227.87546 88.70625 227.28171L88.94063 226.62546L86.675 220.35983L87.8625 220.35983L89.44063 225.10983ZM99.00313 226.82858Q97.70625 226.82858 96.89375 225.98483Q96.09688 225.12546 96.09688 223.70358L96.09688 223.51608Q96.09688 222.56296 96.45625 221.82858Q96.81563 221.07858 97.45625 220.67233Q98.1125 220.25046 98.8625 220.25046Q100.09688 220.25046 100.78438 221.06296Q101.47188 221.87546 101.47188 223.39108L101.47188 223.84421L97.175 223.84421Q97.20625 224.78171 97.72188 225.35983Q98.25313 225.93796 99.06563 225.93796Q99.62813 225.93796 100.01875 225.70358Q100.425 225.46921 100.7375 225.07858L101.39375 225.59421Q100.59688 226.82858 99.00313 226.82858ZM98.8625 221.14108Q98.20625 221.14108 97.75313 221.62546Q97.31563 222.09421 97.22188 222.95358L100.39375 222.95358L100.39375 222.87546Q100.34688 222.04733 99.94063 221.59421Q99.55 221.14108 98.8625 221.14108ZM106.28438 226.70358Q106.19063 226.51608 106.12813 226.03171Q105.37813 226.82858 104.33125 226.82858Q103.39375 226.82858 102.78438 226.29733Q102.19063 225.76608 102.19063 224.93796Q102.19063 223.95358 102.94063 223.40671Q103.69063 222.85983 105.06563 222.85983L106.1125 222.85983L106.1125 222.35983Q106.1125 221.79733 105.76875 221.46921Q105.44063 221.12546 104.76875 221.12546Q104.19063 221.12546 103.8 221.42233Q103.40938 221.70358 103.40938 222.12546L102.31563 222.12546Q102.31563 221.64108 102.64375 221.20358Q102.9875 220.76608 103.56563 220.51608Q104.14375 220.25046 104.83125 220.25046Q105.94063 220.25046 106.55 220.79733Q107.175 221.34421 107.20625 222.29733L107.20625 225.21921Q107.20625 226.09421 107.425 226.60983L107.425 226.70358L106.28438 226.70358ZM104.4875 225.87546Q105.00313 225.87546 105.45625 225.60983Q105.90938 225.34421 106.1125 224.92233L106.1125 223.62546L105.26875 223.62546Q103.26875 223.62546 103.26875 224.79733Q103.26875 225.29733 103.6125 225.59421Q103.95625 225.87546 104.4875 225.87546ZM113.06563 225.01608Q113.06563 224.57858 112.72188 224.34421Q112.39375 224.09421 111.56563 223.92233Q110.75313 223.75046 110.26875 223.50046Q109.78438 223.25046 109.55 222.92233Q109.33125 222.57858 109.33125 222.10983Q109.33125 221.32858 109.9875 220.79733Q110.64375 220.25046 111.675 220.25046Q112.75313 220.25046 113.40938 220.81296Q114.08125 221.35983 114.08125 222.21921L113.00313 222.21921Q113.00313 221.78171 112.6125 221.46921Q112.2375 221.14108 111.675 221.14108Q111.08125 221.14108 110.7375 221.40671Q110.40938 221.65671 110.40938 222.06296Q110.40938 222.45358 110.72188 222.65671Q111.03438 222.85983 111.84688 223.04733Q112.65938 223.21921 113.15938 223.46921Q113.65938 223.71921 113.89375 224.07858Q114.14375 224.43796 114.14375 224.93796Q114.14375 225.79733 113.45625 226.31296Q112.78438 226.82858 111.70625 226.82858Q110.94063 226.82858 110.34688 226.56296Q109.76875 226.28171 109.44063 225.79733Q109.1125 225.31296 109.1125 224.75046L110.19063 224.75046Q110.22188 225.29733 110.62813 225.62546Q111.03438 225.93796 111.70625 225.93796Q112.31563 225.93796 112.69063 225.68796Q113.06563 225.43796 113.06563 225.01608ZM117.44063 225.10983L118.925 220.35983L120.08125 220.35983L117.53438 227.68796Q116.94063 229.26608 115.65938 229.26608L115.44063 229.25046L115.05 229.17233L115.05 228.29733L115.33125 228.31296Q115.89375 228.31296 116.19063 228.09421Q116.50313 227.87546 116.70625 227.28171L116.94063 226.62546L114.675 220.35983L115.8625 220.35983L117.44063 225.10983Z" fill-rule="nonzero"/><path fill="#757575" d="M38.05 177.38646Q36.6125 176.96458 35.940624 176.35521Q35.284374 175.74583 35.284374 174.85521Q35.284374 173.85521 36.08125 173.19896Q36.89375 172.52708 38.190624 172.52708Q39.065624 172.52708 39.753124 172.87083Q40.440624 173.21458 40.815624 173.80833Q41.20625 174.40208 41.20625 175.12083L40.065624 175.12083Q40.065624 174.33958 39.565624 173.90208Q39.08125 173.46458 38.190624 173.46458Q37.3625 173.46458 36.89375 173.83958Q36.425 174.19896 36.425 174.83958Q36.425 175.37083 36.8625 175.73021Q37.315624 176.08958 38.378124 176.38646Q39.440624 176.68333 40.034374 177.04271Q40.64375 177.40208 40.925 177.88646Q41.221874 178.37083 41.221874 179.01146Q41.221874 180.05833 40.409374 180.68333Q39.596874 181.30833 38.253124 181.30833Q37.3625 181.30833 36.596874 180.96458Q35.846874 180.62083 35.425 180.04271Q35.01875 179.44896 35.01875 178.71458L36.14375 178.71458Q36.14375 179.48021 36.721874 179.93333Q37.3 180.38646 38.253124 180.38646Q39.14375 180.38646 39.6125 180.02708Q40.08125 179.65208 40.08125 179.02708Q40.08125 178.40208 39.64375 178.05833Q39.20625 177.71458 38.05 177.38646ZM42.08125 177.94896Q42.08125 177.02708 42.440624 176.27708Q42.815624 175.52708 43.471874 175.13646Q44.128124 174.73021 44.95625 174.73021Q46.253124 174.73021 47.05 175.62083Q47.8625 176.51146 47.8625 178.01146L47.8625 178.08958Q47.8625 179.01146 47.503124 179.74583Q47.14375 180.48021 46.4875 180.90208Q45.83125 181.30833 44.971874 181.30833Q43.690624 181.30833 42.878124 180.41771Q42.08125 179.51146 42.08125 178.02708L42.08125 177.94896ZM43.175 178.08958Q43.175 179.13646 43.659374 179.77708Q44.159374 180.41771 44.971874 180.41771Q45.8 180.41771 46.284374 179.77708Q46.76875 179.12083 46.76875 177.94896Q46.76875 176.91771 46.26875 176.27708Q45.784374 175.62083 44.95625 175.62083Q44.159374 175.62083 43.659374 176.26146Q43.175 176.88646 43.175 178.08958ZM50.39375 174.83958L50.425 175.54271Q51.1125 174.73021 52.3 174.73021Q53.628124 174.73021 54.1125 175.74583Q54.425 175.29271 54.925 175.01146Q55.440624 174.73021 56.128124 174.73021Q58.221874 174.73021 58.253124 176.93333L58.253124 181.18333L57.175 181.18333L57.175 176.99583Q57.175 176.32396 56.8625 175.99583Q56.55 175.65208 55.815624 175.65208Q55.20625 175.65208 54.8 176.01146Q54.409374 176.37083 54.346874 176.98021L54.346874 181.18333L53.26875 181.18333L53.26875 177.02708Q53.26875 175.65208 51.909374 175.65208Q50.846874 175.65208 50.45625 176.55833L50.45625 181.18333L49.3625 181.18333L49.3625 174.83958L50.39375 174.83958ZM63.003124 181.30833Q61.70625 181.30833 60.89375 180.46458Q60.096874 179.60521 60.096874 178.18333L60.096874 177.99583Q60.096874 177.04271 60.45625 176.30833Q60.815624 175.55833 61.45625 175.15208Q62.1125 174.73021 62.8625 174.73021Q64.09688 174.73021 64.78438 175.54271Q65.47188 176.35521 65.47188 177.87083L65.47188 178.32396L61.175 178.32396Q61.20625 179.26146 61.721874 179.83958Q62.253124 180.41771 63.065624 180.41771Q63.628124 180.41771 64.01875 180.18333Q64.425 179.94896 64.7375 179.55833L65.39375 180.07396Q64.59688 181.30833 63.003124 181.30833ZM62.8625 175.62083Q62.20625 175.62083 61.753124 176.10521Q61.315624 176.57396 61.221874 177.43333L64.39375 177.43333L64.39375 177.35521Q64.34688 176.52708 63.940624 176.07396Q63.55 175.62083 62.8625 175.62083ZM71.9875 179.68333L73.20625 174.83958L74.28438 174.83958L72.44063 181.18333L71.56563 181.18333L70.01875 176.37083L68.51875 181.18333L67.64375 181.18333L65.8 174.83958L66.87813 174.83958L68.12813 179.58958L69.6125 174.83958L70.47188 174.83958L71.9875 179.68333ZM76.45625 175.60521Q77.175 174.73021 78.33125 174.73021Q80.34688 174.73021 80.3625 176.99583L80.3625 181.18333L79.26875 181.18333L79.26875 176.98021Q79.26875 176.30833 78.95625 175.98021Q78.65938 175.65208 78.00313 175.65208Q77.47188 175.65208 77.06563 175.93333Q76.675 176.21458 76.45625 176.66771L76.45625 181.18333L75.37813 181.18333L75.37813 172.18333L76.45625 172.18333L76.45625 175.60521ZM86.28438 181.18333Q86.19063 180.99583 86.12813 180.51146Q85.37813 181.30833 84.33125 181.30833Q83.39375 181.30833 82.78438 180.77708Q82.19063 180.24583 82.19063 179.41771Q82.19063 178.43333 82.94063 177.88646Q83.69063 177.33958 85.06563 177.33958L86.1125 177.33958L86.1125 176.83958Q86.1125 176.27708 85.76875 175.94896Q85.44063 175.60521 84.76875 175.60521Q84.19063 175.60521 83.8 175.90208Q83.40938 176.18333 83.40938 176.60521L82.31563 176.60521Q82.31563 176.12083 82.64375 175.68333Q82.9875 175.24583 83.56563 174.99583Q84.14375 174.73021 84.83125 174.73021Q85.94063 174.73021 86.55 175.27708Q87.175 175.82396 87.20625 176.77708L87.20625 179.69896Q87.20625 180.57396 87.425 181.08958L87.425 181.18333L86.28438 181.18333ZM84.4875 180.35521Q85.00313 180.35521 85.45625 180.08958Q85.90938 179.82396 86.1125 179.40208L86.1125 178.10521L85.26875 178.10521Q83.26875 178.10521 83.26875 179.27708Q83.26875 179.77708 83.6125 180.07396Q83.95625 180.35521 84.4875 180.35521ZM90.84688 173.30833L90.84688 174.83958L92.01875 174.83958L92.01875 175.68333L90.84688 175.68333L90.84688 179.60521Q90.84688 179.99583 91.00313 180.18333Q91.15938 180.37083 91.53438 180.37083Q91.72188 180.37083 92.05 180.30833L92.05 181.18333Q91.62813 181.30833 91.22188 181.30833Q90.50313 181.30833 90.12813 180.87083Q89.75313 180.41771 89.75313 179.60521L89.75313 175.68333L88.59688 175.68333L88.59688 174.83958L89.75313 174.83958L89.75313 173.30833L90.84688 173.30833ZM99.00313 181.30833Q97.70625 181.30833 96.89375 180.46458Q96.09688 179.60521 96.09688 178.18333L96.09688 177.99583Q96.09688 177.04271 96.45625 176.30833Q96.81563 175.55833 97.45625 175.15208Q98.1125 174.73021 98.8625 174.73021Q100.09688 174.73021 100.78438 175.54271Q101.47188 176.35521 101.47188 177.87083L101.47188 178.32396L97.175 178.32396Q97.20625 179.26146 97.72188 179.83958Q98.25313 180.41771 99.06563 180.41771Q99.62813 180.41771 100.01875 180.18333Q100.425 179.94896 100.7375 179.55833L101.39375 180.07396Q100.59688 181.30833 99.00313 181.30833ZM98.8625 175.62083Q98.20625 175.62083 97.75313 176.10521Q97.31563 176.57396 97.22188 177.43333L100.39375 177.43333L100.39375 177.35521Q100.34688 176.52708 99.94063 176.07396Q99.55 175.62083 98.8625 175.62083ZM106.28438 181.18333Q106.19063 180.99583 106.12813 180.51146Q105.37813 181.30833 104.33125 181.30833Q103.39375 181.30833 102.78438 180.77708Q102.19063 180.24583 102.19063 179.41771Q102.19063 178.43333 102.94063 177.88646Q103.69063 177.33958 105.06563 177.33958L106.1125 177.33958L106.1125 176.83958Q106.1125 176.27708 105.76875 175.94896Q105.44063 175.60521 104.76875 175.60521Q104.19063 175.60521 103.8 175.90208Q103.40938 176.18333 103.40938 176.60521L102.31563 176.60521Q102.31563 176.12083 102.64375 175.68333Q102.9875 175.24583 103.56563 174.99583Q104.14375 174.73021 104.83125 174.73021Q105.94063 174.73021 106.55 175.27708Q107.175 175.82396 107.20625 176.77708L107.20625 179.69896Q107.20625 180.57396 107.425 181.08958L107.425 181.18333L106.28438 181.18333ZM104.4875 180.35521Q105.00313 180.35521 105.45625 180.08958Q105.90938 179.82396 106.1125 179.40208L106.1125 178.10521L105.26875 178.10521Q103.26875 178.10521 103.26875 179.27708Q103.26875 179.77708 103.6125 180.07396Q103.95625 180.35521 104.4875 180.35521ZM113.06563 179.49583Q113.06563 179.05833 112.72188 178.82396Q112.39375 178.57396 111.56563 178.40208Q110.75313 178.23021 110.26875 177.98021Q109.78438 177.73021 109.55 177.40208Q109.33125 177.05833 109.33125 176.58958Q109.33125 175.80833 109.9875 175.27708Q110.64375 174.73021 111.675 174.73021Q112.75313 174.73021 113.40938 175.29271Q114.08125 175.83958 114.08125 176.69896L113.00313 176.69896Q113.00313 176.26146 112.6125 175.94896Q112.2375 175.62083 111.675 175.62083Q111.08125 175.62083 110.7375 175.88646Q110.40938 176.13646 110.40938 176.54271Q110.40938 176.93333 110.72188 177.13646Q111.03438 177.33958 111.84688 177.52708Q112.65938 177.69896 113.15938 177.94896Q113.65938 178.19896 113.89375 178.55833Q114.14375 178.91771 114.14375 179.41771Q114.14375 180.27708 113.45625 180.79271Q112.78438 181.30833 111.70625 181.30833Q110.94063 181.30833 110.34688 181.04271Q109.76875 180.76146 109.44063 180.27708Q109.1125 179.79271 109.1125 179.23021L110.19063 179.23021Q110.22188 179.77708 110.62813 180.10521Q111.03438 180.41771 111.70625 180.41771Q112.31563 180.41771 112.69063 180.16771Q113.06563 179.91771 113.06563 179.49583ZM117.44063 179.58958L118.925 174.83958L120.08125 174.83958L117.53438 182.16771Q116.94063 183.74583 115.65938 183.74583L115.44063 183.73021L115.05 183.65208L115.05 182.77708L115.33125 182.79271Q115.89375 182.79271 116.19063 182.57396Q116.50313 182.35521 116.70625 181.76146L116.94063 181.10521L114.675 174.83958L115.8625 174.83958L117.44063 179.58958Z" fill-rule="nonzero"/><path fill="#757575" d="M89.09688 135.66309L87.97188 135.66309L83.675 129.08496L83.675 135.66309L82.53438 135.66309L82.53438 127.131836L83.675 127.131836L87.97188 133.74121L87.97188 127.131836L89.09688 127.131836L89.09688 135.66309ZM94.00313 135.78809Q92.70625 135.78809 91.89375 134.94434Q91.09688 134.08496 91.09688 132.66309L91.09688 132.47559Q91.09688 131.52246 91.45625 130.78809Q91.81563 130.03809 92.45625 129.63184Q93.1125 129.20996 93.8625 129.20996Q95.09688 129.20996 95.78438 130.02246Q96.47188 130.83496 96.47188 132.35059L96.47188 132.80371L92.175 132.80371Q92.20625 133.74121 92.72188 134.31934Q93.25313 134.89746 94.06563 134.89746Q94.62813 134.89746 95.01875 134.66309Q95.425 134.42871 95.7375 134.03809L96.39375 134.55371Q95.59688 135.78809 94.00313 135.78809ZM93.8625 130.10059Q93.20625 130.10059 92.75313 130.58496Q92.31563 131.05371 92.22188 131.91309L95.39375 131.91309L95.39375 131.83496Q95.34688 131.00684 94.94063 130.55371Q94.55 130.10059 93.8625 130.10059ZM98.55 135.66309L97.47188 135.66309L97.47188 129.31934L98.55 129.31934L98.55 135.66309ZM97.37813 127.64746Q97.37813 127.381836 97.53438 127.194336Q97.70625 127.006836 98.01875 127.006836Q98.33125 127.006836 98.4875 127.194336Q98.65938 127.381836 98.65938 127.64746Q98.65938 127.89746 98.4875 128.08496Q98.33125 128.25684 98.01875 128.25684Q97.70625 128.25684 97.53438 128.08496Q97.37813 127.89746 97.37813 127.64746ZM101.84688 127.788086L101.84688 129.31934L103.01875 129.31934L103.01875 130.16309L101.84688 130.16309L101.84688 134.08496Q101.84688 134.47559 102.00313 134.66309Q102.15938 134.85059 102.53438 134.85059Q102.72188 134.85059 103.05 134.78809L103.05 135.66309Q102.62813 135.78809 102.22188 135.78809Q101.50313 135.78809 101.12813 135.35059Q100.75313 134.89746 100.75313 134.08496L100.75313 130.16309L99.59688 130.16309L99.59688 129.31934L100.75313 129.31934L100.75313 127.788086L101.84688 127.788086ZM105.45625 130.08496Q106.175 129.20996 107.33125 129.20996Q109.34688 129.20996 109.3625 131.47559L109.3625 135.66309L108.26875 135.66309L108.26875 131.45996Q108.26875 130.78809 107.95625 130.45996Q107.65938 130.13184 107.00313 130.13184Q106.47188 130.13184 106.06563 130.41309Q105.675 130.69434 105.45625 131.14746L105.45625 135.66309L104.37813 135.66309L104.37813 126.663086L105.45625 126.663086L105.45625 130.08496ZM114.00313 135.78809Q112.70625 135.78809 111.89375 134.94434Q111.09688 134.08496 111.09688 132.66309L111.09688 132.47559Q111.09688 131.52246 111.45625 130.78809Q111.81563 130.03809 112.45625 129.63184Q113.1125 129.20996 113.8625 129.20996Q115.09688 129.20996 115.78438 130.02246Q116.47188 130.83496 116.47188 132.35059L116.47188 132.80371L112.175 132.80371Q112.20625 133.74121 112.72188 134.31934Q113.25313 134.89746 114.06563 134.89746Q114.62813 134.89746 115.01875 134.66309Q115.425 134.42871 115.7375 134.03809L116.39375 134.55371Q115.59688 135.78809 114.00313 135.78809ZM113.8625 130.10059Q113.20625 130.10059 112.75313 130.58496Q112.31563 131.05371 112.22188 131.91309L115.39375 131.91309L115.39375 131.83496Q115.34688 131.00684 114.94063 130.55371Q114.55 130.10059 113.8625 130.10059ZM120.44063 130.28809Q120.19063 130.25684 119.90938 130.25684Q118.83125 130.25684 118.45625 131.16309L118.45625 135.66309L117.37813 135.66309L117.37813 129.31934L118.425 129.31934L118.44063 130.05371Q118.97188 129.20996 119.95625 129.20996Q120.26875 129.20996 120.44063 129.28809L120.44063 130.28809Z" fill-rule="nonzero"/><path fill="#757575" d="M56.3625 88.64284L58.8 81.61159L60.034374 81.61159L56.8625 90.14284L55.878124 90.14284L52.721874 81.61159L53.940624 81.61159L56.3625 88.64284ZM64.00313 90.26784Q62.70625 90.26784 61.89375 89.42409Q61.096874 88.56471 61.096874 87.14284L61.096874 86.95534Q61.096874 86.00221 61.45625 85.26784Q61.815624 84.51784 62.45625 84.11159Q63.1125 83.68971 63.8625 83.68971Q65.09688 83.68971 65.78438 84.50221Q66.47188 85.31471 66.47188 86.83034L66.47188 87.28346L62.175 87.28346Q62.20625 88.22096 62.721874 88.79909Q63.253124 89.37721 64.06563 89.37721Q64.62813 89.37721 65.01875 89.14284Q65.425 88.90846 65.7375 88.51784L66.39375 89.03346Q65.59688 90.26784 64.00313 90.26784ZM63.8625 84.58034Q63.20625 84.58034 62.753124 85.06471Q62.315624 85.53346 62.221874 86.39284L65.39375 86.39284L65.39375 86.31471Q65.34688 85.48659 64.94063 85.03346Q64.55 84.58034 63.8625 84.58034ZM70.44063 84.76784Q70.19063 84.73659 69.90938 84.73659Q68.83125 84.73659 68.45625 85.64284L68.45625 90.14284L67.37813 90.14284L67.37813 83.79909L68.425 83.79909L68.44063 84.53346Q68.97188 83.68971 69.95625 83.68971Q70.26875 83.68971 70.44063 83.76784L70.44063 84.76784ZM73.44063 88.54909L74.925 83.79909L76.08125 83.79909L73.53438 91.12721Q72.94063 92.70534 71.65938 92.70534L71.44063 92.68971L71.05 92.61159L71.05 91.73659L71.33125 91.75221Q71.89375 91.75221 72.19063 91.53346Q72.50313 91.31471 72.70625 90.72096L72.94063 90.06471L70.675 83.79909L71.8625 83.79909L73.44063 88.54909ZM80.1125 86.92409Q80.1125 85.45534 80.8 84.58034Q81.4875 83.68971 82.6125 83.68971Q83.72188 83.68971 84.37813 84.43971L84.37813 81.14284L85.45625 81.14284L85.45625 90.14284L84.45625 90.14284L84.40938 89.45534Q83.75313 90.26784 82.59688 90.26784Q81.50313 90.26784 80.8 89.36159Q80.1125 88.45534 80.1125 87.00221L80.1125 86.92409ZM81.19063 87.04909Q81.19063 88.12721 81.62813 88.73659Q82.08125 89.34596 82.8625 89.34596Q83.89375 89.34596 84.37813 88.40846L84.37813 85.50221Q83.89375 84.61159 82.87813 84.61159Q82.08125 84.61159 81.62813 85.22096Q81.19063 85.83034 81.19063 87.04909ZM88.55 90.14284L87.47188 90.14284L87.47188 83.79909L88.55 83.79909L88.55 90.14284ZM87.37813 82.12721Q87.37813 81.86159 87.53438 81.67409Q87.70625 81.48659 88.01875 81.48659Q88.33125 81.48659 88.4875 81.67409Q88.65938 81.86159 88.65938 82.12721Q88.65938 82.37721 88.4875 82.56471Q88.33125 82.73659 88.01875 82.73659Q87.70625 82.73659 87.53438 82.56471Q87.37813 82.37721 87.37813 82.12721ZM90.90938 90.14284L90.90938 84.64284L89.90938 84.64284L89.90938 83.79909L90.90938 83.79909L90.90938 83.15846Q90.90938 82.12721 91.44063 81.58034Q91.9875 81.01784 92.9875 81.01784Q93.3625 81.01784 93.7375 81.11159L93.675 82.00221Q93.39375 81.93971 93.09688 81.93971Q92.56563 81.93971 92.26875 82.25221Q91.9875 82.56471 91.9875 83.12721L91.9875 83.79909L93.34688 83.79909L93.34688 84.64284L91.9875 84.64284L91.9875 90.14284L90.90938 90.14284ZM94.90938 90.14284L94.90938 84.64284L93.90938 84.64284L93.90938 83.79909L94.90938 83.79909L94.90938 83.15846Q94.90938 82.12721 95.44063 81.58034Q95.9875 81.01784 96.9875 81.01784Q97.3625 81.01784 97.7375 81.11159L97.675 82.00221Q97.39375 81.93971 97.09688 81.93971Q96.56563 81.93971 96.26875 82.25221Q95.9875 82.56471 95.9875 83.12721L95.9875 83.79909L97.34688 83.79909L97.34688 84.64284L95.9875 84.64284L95.9875 90.14284L94.90938 90.14284ZM99.55 90.14284L98.47188 90.14284L98.47188 83.79909L99.55 83.79909L99.55 90.14284ZM98.37813 82.12721Q98.37813 81.86159 98.53438 81.67409Q98.70625 81.48659 99.01875 81.48659Q99.33125 81.48659 99.4875 81.67409Q99.65938 81.86159 99.65938 82.12721Q99.65938 82.37721 99.4875 82.56471Q99.33125 82.73659 99.01875 82.73659Q98.70625 82.73659 98.53438 82.56471Q98.37813 82.37721 98.37813 82.12721ZM103.90938 89.37721Q104.4875 89.37721 104.925 89.03346Q105.3625 88.67409 105.40938 88.14284L106.44063 88.14284Q106.40938 88.68971 106.05 89.18971Q105.70625 89.67409 105.12813 89.97096Q104.56563 90.26784 103.90938 90.26784Q102.6125 90.26784 101.84688 89.40846Q101.09688 88.53346 101.09688 87.03346L101.09688 86.84596Q101.09688 85.92409 101.425 85.20534Q101.76875 84.48659 102.39375 84.09596Q103.03438 83.68971 103.90938 83.68971Q104.97188 83.68971 105.675 84.33034Q106.39375 84.95534 106.44063 85.98659L105.40938 85.98659Q105.3625 85.36159 104.94063 84.97096Q104.51875 84.58034 103.90938 84.58034Q103.08125 84.58034 102.62813 85.17409Q102.175 85.76784 102.175 86.89284L102.175 87.09596Q102.175 88.18971 102.62813 88.78346Q103.08125 89.37721 103.90938 89.37721ZM111.28438 89.51784Q110.65938 90.26784 109.425 90.26784Q108.40938 90.26784 107.87813 89.67409Q107.34688 89.08034 107.34688 87.92409L107.34688 83.79909L108.425 83.79909L108.425 87.89284Q108.425 89.34596 109.59688 89.34596Q110.84688 89.34596 111.25313 88.40846L111.25313 83.79909L112.34688 83.79909L112.34688 90.14284L111.31563 90.14284L111.28438 89.51784ZM115.55 90.14284L114.47188 90.14284L114.47188 81.14284L115.55 81.14284L115.55 90.14284ZM118.84688 82.26784L118.84688 83.79909L120.01875 83.79909L120.01875 84.64284L118.84688 84.64284L118.84688 88.56471Q118.84688 88.95534 119.00313 89.14284Q119.15938 89.33034 119.53438 89.33034Q119.72188 89.33034 120.05 89.26784L120.05 90.14284Q119.62813 90.26784 119.22188 90.26784Q118.50313 90.26784 118.12813 89.83034Q117.75313 89.37721 117.75313 88.56471L117.75313 84.64284L116.59688 84.64284L116.59688 83.79909L117.75313 83.79909L117.75313 82.26784L118.84688 82.26784Z" fill-rule="nonzero"/><path fill="#757575" d="M129.1125 312.8094Q129.1125 314.71564 128.45625 315.65314Q127.81563 316.575 126.425 316.575Q125.06563 316.575 124.40938 315.66876Q123.75313 314.7625 123.72188 312.95L123.72188 311.5125Q123.72188 309.6219 124.3625 308.71564Q125.01875 307.79376 126.40938 307.79376Q127.78438 307.79376 128.44063 308.6844Q129.09688 309.5594 129.1125 311.40314L129.1125 312.8094ZM128.01875 311.325Q128.01875 309.95 127.62813 309.325Q127.25313 308.6844 126.40938 308.6844Q125.58125 308.6844 125.19063 309.325Q124.81563 309.95 124.81563 311.2469L124.81563 312.98126Q124.81563 314.35626 125.20625 315.02814Q125.6125 315.6844 126.425 315.6844Q127.22188 315.6844 127.6125 315.0594Q128.00313 314.4344 128.01875 313.10626L128.01875 311.325Z" fill-rule="nonzero"/><path fill="#757575" d="M237.54062 316.45L236.4625 316.45L236.4625 309.23126L234.275 310.02814L234.275 309.04376L237.38437 307.8719L237.54062 307.8719L237.54062 316.45ZM246.3375 312.8094Q246.3375 314.71564 245.68124 315.65314Q245.04062 316.575 243.65 316.575Q242.29062 316.575 241.63437 315.66876Q240.97812 314.7625 240.94687 312.95L240.94687 311.5125Q240.94687 309.6219 241.5875 308.71564Q242.24374 307.79376 243.63437 307.79376Q245.00937 307.79376 245.66562 308.6844Q246.32187 309.5594 246.3375 311.40314L246.3375 312.8094ZM245.24374 311.325Q245.24374 309.95 244.85312 309.325Q244.47812 308.6844 243.63437 308.6844Q242.80624 308.6844 242.41562 309.325Q242.04062 309.95 242.04062 311.2469L242.04062 312.98126Q242.04062 314.35626 242.43124 315.02814Q242.8375 315.6844 243.65 315.6844Q244.44687 315.6844 244.8375 315.0594Q245.22812 314.4344 245.24374 313.10626L245.24374 311.325Z" fill-rule="nonzero"/><path fill="#757575" d="M353.29688 316.45L347.70312 316.45L347.70312 315.66876L350.65625 312.3875Q351.3125 311.6375 351.5625 311.1844Q351.8125 310.71564 351.8125 310.21564Q351.8125 309.54376 351.40625 309.1219Q351.01562 308.6844 350.32812 308.6844Q349.53125 308.6844 349.07812 309.15314Q348.625 309.60626 348.625 310.4344L347.54688 310.4344Q347.54688 309.2469 348.29688 308.52814Q349.0625 307.79376 350.32812 307.79376Q351.53125 307.79376 352.21875 308.41876Q352.90625 309.04376 352.90625 310.09064Q352.90625 311.34064 351.29688 313.09064L349.01562 315.5594L353.29688 315.5594L353.29688 316.45ZM360.0625 312.8094Q360.0625 314.71564 359.40625 315.65314Q358.76562 316.575 357.375 316.575Q356.01562 316.575 355.35938 315.66876Q354.70312 314.7625 354.67188 312.95L354.67188 311.5125Q354.67188 309.6219 355.3125 308.71564Q355.96875 307.79376 357.35938 307.79376Q358.73438 307.79376 359.39062 308.6844Q360.04688 309.5594 360.0625 311.40314L360.0625 312.8094ZM358.96875 311.325Q358.96875 309.95 358.57812 309.325Q358.20312 308.6844 357.35938 308.6844Q356.53125 308.6844 356.14062 309.325Q355.76562 309.95 355.76562 311.2469L355.76562 312.98126Q355.76562 314.35626 356.15625 315.02814Q356.5625 315.6844 357.375 315.6844Q358.17188 315.6844 358.5625 315.0594Q358.95312 314.4344 358.96875 313.10626L358.96875 311.325Z" fill-rule="nonzero"/><path fill="#757575" d="M463.00626 311.65314L463.81876 311.65314Q464.6 311.6375 465.0375 311.2469Q465.475 310.85626 465.475 310.1844Q465.475 308.6844 463.975 308.6844Q463.27188 308.6844 462.85 309.09064Q462.44376 309.4969 462.44376 310.15314L461.35 310.15314Q461.35 309.1375 462.08438 308.46564Q462.83438 307.79376 463.975 307.79376Q465.17813 307.79376 465.86563 308.4344Q466.55313 309.075 466.55313 310.21564Q466.55313 310.77814 466.19376 311.29376Q465.83438 311.8094 465.20938 312.075Q465.9125 312.29376 466.2875 312.8094Q466.67813 313.325 466.67813 314.075Q466.67813 315.21564 465.92813 315.90314Q465.17813 316.575 463.975 316.575Q462.7875 316.575 462.02188 315.91876Q461.27188 315.2625 461.27188 314.2L462.36563 314.2Q462.36563 314.8719 462.80313 315.27814Q463.24063 315.6844 463.99063 315.6844Q464.77188 315.6844 465.17813 315.27814Q465.6 314.85626 465.6 314.09064Q465.6 313.35626 465.14688 312.96564Q464.69376 312.5594 463.81876 312.54376L463.00626 312.54376L463.00626 311.65314ZM473.7875 312.8094Q473.7875 314.71564 473.13126 315.65314Q472.49063 316.575 471.1 316.575Q469.74063 316.575 469.08438 315.66876Q468.42813 314.7625 468.39688 312.95L468.39688 311.5125Q468.39688 309.6219 469.0375 308.71564Q469.69376 307.79376 471.08438 307.79376Q472.45938 307.79376 473.11563 308.6844Q473.77188 309.5594 473.7875 311.40314L473.7875 312.8094ZM472.69376 311.325Q472.69376 309.95 472.30313 309.325Q471.92813 308.6844 471.08438 308.6844Q470.25626 308.6844 469.86563 309.325Q469.49063 309.95 469.49063 311.2469L469.49063 312.98126Q469.49063 314.35626 469.88126 315.02814Q470.2875 315.6844 471.1 315.6844Q471.89688 315.6844 472.2875 315.0594Q472.67813 314.4344 472.69376 313.10626L472.69376 311.325Z" fill-rule="nonzero"/><path fill="#757575" d="M579.73126 313.59064L580.91876 313.59064L580.91876 314.46564L579.73126 314.46564L579.73126 316.45L578.65314 316.45L578.65314 314.46564L574.7625 314.46564L574.7625 313.825L578.575 307.91876L579.73126 307.91876L579.73126 313.59064ZM575.9969 313.59064L578.65314 313.59064L578.65314 309.40314L578.5125 309.6375L575.9969 313.59064ZM587.5125 312.8094Q587.5125 314.71564 586.85626 315.65314Q586.21564 316.575 584.825 316.575Q583.46564 316.575 582.8094 315.66876Q582.15314 314.7625 582.1219 312.95L582.1219 311.5125Q582.1219 309.6219 582.7625 308.71564Q583.41876 307.79376 584.8094 307.79376Q586.1844 307.79376 586.84064 308.6844Q587.4969 309.5594 587.5125 311.40314L587.5125 312.8094ZM586.41876 311.325Q586.41876 309.95 586.02814 309.325Q585.65314 308.6844 584.8094 308.6844Q583.98126 308.6844 583.59064 309.325Q583.21564 309.95 583.21564 311.2469L583.21564 312.98126Q583.21564 314.35626 583.60626 315.02814Q584.0125 315.6844 584.825 315.6844Q585.6219 315.6844 586.0125 315.0594Q586.40314 314.4344 586.41876 313.10626L586.41876 311.325Z" fill-rule="nonzero"/><path fill="#757575" d="M20.20625 37.55L20.20625 23.33125L24.221874 23.33125Q26.065624 23.33125 27.4875 24.159374Q28.925 24.971874 29.690624 26.4875Q30.471874 28.003124 30.4875 29.95625L30.4875 30.8625Q30.4875 32.878124 29.70625 34.39375Q28.925 35.909374 27.4875 36.721874Q26.05 37.534374 24.14375 37.55L20.20625 37.55ZM22.08125 24.878124L22.08125 36.01875L24.05 36.01875Q26.221874 36.01875 27.425 34.675Q28.628124 33.315624 28.628124 30.83125L28.628124 30.003124Q28.628124 27.58125 27.4875 26.2375Q26.346874 24.89375 24.26875 24.878124L22.08125 24.878124ZM34.878124 37.55L33.08125 37.55L33.08125 26.9875L34.878124 26.9875L34.878124 37.55ZM32.925 24.175Q32.925 23.7375 33.190624 23.440624Q33.471874 23.128124 33.9875 23.128124Q34.51875 23.128124 34.784374 23.440624Q35.065624 23.7375 35.065624 24.175Q35.065624 24.6125 34.784374 24.909374Q34.51875 25.20625 33.9875 25.20625Q33.471874 25.20625 33.190624 24.909374Q32.925 24.6125 32.925 24.175ZM37.471874 32.175Q37.471874 29.753124 38.628124 28.26875Q39.784374 26.784374 41.64375 26.784374Q43.503124 26.784374 44.58125 28.05L44.58125 22.55L46.39375 22.55L46.39375 37.55L44.7375 37.55L44.64375 36.409374Q43.565624 37.753124 41.628124 37.753124Q39.8 37.753124 38.628124 36.253124Q37.471874 34.7375 37.471874 32.315624L37.471874 32.175ZM39.284374 32.378124Q39.284374 34.175 40.01875 35.190624Q40.76875 36.20625 42.08125 36.20625Q43.8 36.20625 44.58125 34.675L44.58125 29.815624Q43.784374 28.315624 42.096874 28.315624Q40.76875 28.315624 40.01875 29.346874Q39.284374 30.378124 39.284374 32.378124ZM57.378124 34.909374L59.83125 26.9875L61.76875 26.9875L57.51875 39.175Q56.534374 41.815624 54.39375 41.815624L54.05 41.784374L53.378124 41.659374L53.378124 40.190624L53.8625 40.2375Q54.784374 40.2375 55.284374 39.8625Q55.8 39.4875 56.128124 38.503124L56.534374 37.425L52.76875 26.9875L54.7375 26.9875L57.378124 34.909374ZM62.440624 32.175Q62.440624 30.6125 63.05 29.378124Q63.659374 28.128124 64.7375 27.45625Q65.83125 26.784374 67.2375 26.784374Q69.39375 26.784374 70.72188 28.284374Q72.06563 29.76875 72.06563 32.253124L72.06563 32.378124Q72.06563 33.925 71.47188 35.159374Q70.87813 36.378124 69.76875 37.065624Q68.675 37.753124 67.25313 37.753124Q65.1125 37.753124 63.76875 36.253124Q62.440624 34.753124 62.440624 32.3L62.440624 32.175ZM64.25313 32.378124Q64.25313 34.14375 65.06563 35.20625Q65.89375 36.26875 67.25313 36.26875Q68.62813 36.26875 69.44063 35.190624Q70.25313 34.1125 70.25313 32.175Q70.25313 30.425 69.425 29.346874Q68.59688 28.26875 67.2375 28.26875Q65.89375 28.26875 65.06563 29.33125Q64.25313 30.39375 64.25313 32.378124ZM80.44063 36.503124Q79.39375 37.753124 77.34688 37.753124Q75.65938 37.753124 74.76875 36.76875Q73.89375 35.784374 73.87813 33.8625L73.87813 26.9875L75.69063 26.9875L75.69063 33.815624Q75.69063 36.20625 77.64375 36.20625Q79.70625 36.20625 80.39375 34.675L80.39375 26.9875L82.20625 26.9875L82.20625 37.55L80.4875 37.55L80.44063 36.503124ZM91.72188 28.26875Q92.925 26.784374 94.84688 26.784374Q98.20625 26.784374 98.22188 30.565624L98.22188 37.55L96.425 37.55L96.425 30.55Q96.40938 29.409374 95.89375 28.8625Q95.39375 28.315624 94.3 28.315624Q93.425 28.315624 92.75313 28.784374Q92.09688 29.253124 91.72188 30.01875L91.72188 37.55L89.925 37.55L89.925 22.55L91.72188 22.55L91.72188 28.26875ZM107.44063 37.55Q107.28438 37.2375 107.19063 36.440624Q105.925 37.753124 104.175 37.753124Q102.6125 37.753124 101.6125 36.8625Q100.6125 35.971874 100.6125 34.6125Q100.6125 32.971874 101.8625 32.065624Q103.12813 31.14375 105.39375 31.14375L107.15938 31.14375L107.15938 30.315624Q107.15938 29.3625 106.58125 28.8Q106.01875 28.2375 104.925 28.2375Q103.95625 28.2375 103.3 28.7375Q102.64375 29.221874 102.64375 29.909374L100.83125 29.909374Q100.83125 29.128124 101.39375 28.39375Q101.95625 27.64375 102.90938 27.221874Q103.87813 26.784374 105.03438 26.784374Q106.8625 26.784374 107.89375 27.70625Q108.925 28.6125 108.97188 30.221874L108.97188 35.08125Q108.97188 36.534374 109.33125 37.39375L109.33125 37.55L107.44063 37.55ZM104.44063 36.175Q105.3 36.175 106.05 35.7375Q106.81563 35.3 107.15938 34.596874L107.15938 32.425L105.7375 32.425Q102.425 32.425 102.425 34.3625Q102.425 35.221874 102.9875 35.70625Q103.55 36.175 104.44063 36.175ZM115.40938 35.096874L118.01875 26.9875L119.8625 26.9875L116.08125 37.55L114.70625 37.55L110.87813 26.9875L112.72188 26.9875L115.40938 35.096874ZM126.3 37.753124Q124.15938 37.753124 122.8 36.346874Q121.45625 34.925 121.45625 32.565624L121.45625 32.221874Q121.45625 30.659374 122.05 29.425Q122.65938 28.190624 123.7375 27.4875Q124.81563 26.784374 126.08125 26.784374Q128.14375 26.784374 129.28438 28.14375Q130.425 29.503124 130.425 32.034374L130.425 32.784374L123.26875 32.784374Q123.3 34.346874 124.175 35.315624Q125.05 36.26875 126.39375 36.26875Q127.3625 36.26875 128.01875 35.878124Q128.69063 35.4875 129.19063 34.846874L130.28438 35.70625Q128.95625 37.753124 126.3 37.753124ZM126.08125 28.26875Q124.9875 28.26875 124.2375 29.065624Q123.50313 29.8625 123.33125 31.3L128.6125 31.3L128.6125 31.159374Q128.53438 29.784374 127.8625 29.034374Q127.20625 28.26875 126.08125 28.26875ZM144.44063 37.55Q144.28438 37.2375 144.19063 36.440624Q142.925 37.753124 141.175 37.753124Q139.6125 37.753124 138.6125 36.8625Q137.6125 35.971874 137.6125 34.6125Q137.6125 32.971874 138.8625 32.065624Q140.12813 31.14375 142.39375 31.14375L144.15938 31.14375L144.15938 30.315624Q144.15938 29.3625 143.58125 28.8Q143.01875 28.2375 141.925 28.2375Q140.95625 28.2375 140.3 28.7375Q139.64375 29.221874 139.64375 29.909374L137.83125 29.909374Q137.83125 29.128124 138.39375 28.39375Q138.95625 27.64375 139.90938 27.221874Q140.87813 26.784374 142.03438 26.784374Q143.8625 26.784374 144.89375 27.70625Q145.925 28.6125 145.97188 30.221874L145.97188 35.08125Q145.97188 36.534374 146.33125 37.39375L146.33125 37.55L144.44063 37.55ZM141.44063 36.175Q142.3 36.175 143.05 35.7375Q143.81563 35.3 144.15938 34.596874L144.15938 32.425L142.7375 32.425Q139.425 32.425 139.425 34.3625Q139.425 35.221874 139.9875 35.70625Q140.55 36.175 141.44063 36.175ZM155.72188 28.26875Q156.925 26.784374 158.84688 26.784374Q162.20625 26.784374 162.22188 30.565624L162.22188 37.55L160.425 37.55L160.425 30.55Q160.40938 29.409374 159.89375 28.8625Q159.39375 28.315624 158.3 28.315624Q157.425 28.315624 156.75313 28.784374Q156.09688 29.253124 155.72188 30.01875L155.72188 37.55L153.925 37.55L153.925 22.55L155.72188 22.55L155.72188 28.26875ZM171.44063 37.55Q171.28438 37.2375 171.19063 36.440624Q169.925 37.753124 168.175 37.753124Q166.6125 37.753124 165.6125 36.8625Q164.6125 35.971874 164.6125 34.6125Q164.6125 32.971874 165.8625 32.065624Q167.12813 31.14375 169.39375 31.14375L171.15938 31.14375L171.15938 30.315624Q171.15938 29.3625 170.58125 28.8Q170.01875 28.2375 168.925 28.2375Q167.95625 28.2375 167.3 28.7375Q166.64375 29.221874 166.64375 29.909374L164.83125 29.909374Q164.83125 29.128124 165.39375 28.39375Q165.95625 27.64375 166.90938 27.221874Q167.87813 26.784374 169.03438 26.784374Q170.8625 26.784374 171.89375 27.70625Q172.925 28.6125 172.97188 30.221874L172.97188 35.08125Q172.97188 36.534374 173.33125 37.39375L173.33125 37.55L171.44063 37.55ZM168.44063 36.175Q169.3 36.175 170.05 35.7375Q170.81563 35.3 171.15938 34.596874L171.15938 32.425L169.7375 32.425Q166.425 32.425 166.425 34.3625Q166.425 35.221874 166.9875 35.70625Q167.55 36.175 168.44063 36.175ZM181.01875 28.596874Q180.6125 28.534374 180.14375 28.534374Q178.3625 28.534374 177.72188 30.05L177.72188 37.55L175.925 37.55L175.925 26.9875L177.675 26.9875L177.70625 28.20625Q178.59688 26.784374 180.22188 26.784374Q180.75313 26.784374 181.01875 26.925L181.01875 28.596874ZM182.47188 32.175Q182.47188 29.753124 183.62813 28.26875Q184.78438 26.784374 186.64375 26.784374Q188.50313 26.784374 189.58125 28.05L189.58125 22.55L191.39375 22.55L191.39375 37.55L189.7375 37.55L189.64375 36.409374Q188.56563 37.753124 186.62813 37.753124Q184.8 37.753124 183.62813 36.253124Q182.47188 34.7375 182.47188 32.315624L182.47188 32.175ZM184.28438 32.378124Q184.28438 34.175 185.01875 35.190624Q185.76875 36.20625 187.08125 36.20625Q188.8 36.20625 189.58125 34.675L189.58125 29.815624Q188.78438 28.315624 187.09688 28.315624Q185.76875 28.315624 185.01875 29.346874Q184.28438 30.378124 184.28438 32.378124ZM201.3625 24.425L201.3625 26.9875L203.34688 26.9875L203.34688 28.378124L201.3625 28.378124L201.3625 34.925Q201.3625 35.565624 201.62813 35.89375Q201.89375 36.20625 202.53438 36.20625Q202.84688 36.20625 203.39375 36.08125L203.39375 37.55Q202.675 37.753124 202.00313 37.753124Q200.8 37.753124 200.175 37.01875Q199.56563 36.284374 199.56563 34.925L199.56563 28.378124L197.64375 28.378124L197.64375 26.9875L199.56563 26.9875L199.56563 24.425L201.3625 24.425ZM207.87813 37.55L206.08125 37.55L206.08125 26.9875L207.87813 26.9875L207.87813 37.55ZM205.925 24.175Q205.925 23.7375 206.19063 23.440624Q206.47188 23.128124 206.9875 23.128124Q207.51875 23.128124 207.78438 23.440624Q208.06563 23.7375 208.06563 24.175Q208.06563 24.6125 207.78438 24.909374Q207.51875 25.20625 206.9875 25.20625Q206.47188 25.20625 206.19063 24.909374Q205.925 24.6125 205.925 24.175ZM212.6125 26.9875L212.65938 28.159374Q213.83125 26.784374 215.8 26.784374Q218.01875 26.784374 218.81563 28.4875Q219.34688 27.721874 220.19063 27.253124Q221.03438 26.784374 222.19063 26.784374Q225.65938 26.784374 225.72188 30.471874L225.72188 37.55L223.90938 37.55L223.90938 30.58125Q223.90938 29.440624 223.39375 28.878124Q222.87813 28.315624 221.65938 28.315624Q220.65938 28.315624 219.9875 28.925Q219.33125 29.51875 219.22188 30.534374L219.22188 37.55L217.40938 37.55L217.40938 30.628124Q217.40938 28.315624 215.14375 28.315624Q213.3625 28.315624 212.72188 29.83125L212.72188 37.55L210.90938 37.55L210.90938 26.9875L212.6125 26.9875ZM233.3 37.753124Q231.15938 37.753124 229.8 36.346874Q228.45625 34.925 228.45625 32.565624L228.45625 32.221874Q228.45625 30.659374 229.05 29.425Q229.65938 28.190624 230.7375 27.4875Q231.81563 26.784374 233.08125 26.784374Q235.14375 26.784374 236.28438 28.14375Q237.425 29.503124 237.425 32.034374L237.425 32.784374L230.26875 32.784374Q230.3 34.346874 231.175 35.315624Q232.05 36.26875 233.39375 36.26875Q234.3625 36.26875 235.01875 35.878124Q235.69063 35.4875 236.19063 34.846874L237.28438 35.70625Q235.95625 37.753124 233.3 37.753124ZM233.08125 28.26875Q231.9875 28.26875 231.2375 29.065624Q230.50313 29.8625 230.33125 31.3L235.6125 31.3L235.6125 31.159374Q235.53438 29.784374 234.8625 29.034374Q234.20625 28.26875 233.08125 28.26875ZM244.4875 32.175Q244.4875 29.70625 245.62813 28.253124Q246.76875 26.784374 248.65938 26.784374Q250.59688 26.784374 251.675 28.159374L251.76875 26.9875L253.40938 26.9875L253.40938 37.3Q253.40938 39.346874 252.19063 40.51875Q250.9875 41.70625 248.925 41.70625Q247.78438 41.70625 246.69063 41.221874Q245.59688 40.7375 245.01875 39.878124L245.95625 38.8Q247.12813 40.2375 248.8 40.2375Q250.12813 40.2375 250.8625 39.4875Q251.59688 38.753124 251.59688 37.409374L251.59688 36.4875Q250.51875 37.753124 248.64375 37.753124Q246.78438 37.753124 245.62813 36.253124Q244.4875 34.753124 244.4875 32.175ZM246.3 32.378124Q246.3 34.175 247.03438 35.190624Q247.76875 36.20625 249.08125 36.20625Q250.8 36.20625 251.59688 34.659374L251.59688 29.83125Q250.76875 28.315624 249.1125 28.315624Q247.78438 28.315624 247.03438 29.346874Q246.3 30.378124 246.3 32.378124ZM260.3 37.753124Q258.15936 37.753124 256.8 36.346874Q255.45625 34.925 255.45625 32.565624L255.45625 32.221874Q255.45625 30.659374 256.05 29.425Q256.65936 28.190624 257.7375 27.4875Q258.8156 26.784374 260.08124 26.784374Q262.14374 26.784374 263.28436 28.14375Q264.425 29.503124 264.425 32.034374L264.425 32.784374L257.26874 32.784374Q257.3 34.346874 258.175 35.315624Q259.05 36.26875 260.39374 36.26875Q261.3625 36.26875 262.01874 35.878124Q262.6906 35.4875 263.1906 34.846874L264.28436 35.70625Q262.95624 37.753124 260.3 37.753124ZM260.08124 28.26875Q258.9875 28.26875 258.2375 29.065624Q257.5031 29.8625 257.33124 31.3L262.6125 31.3L262.6125 31.159374Q262.53436 29.784374 261.8625 29.034374Q261.20624 28.26875 260.08124 28.26875ZM269.3625 24.425L269.3625 26.9875L271.34686 26.9875L271.34686 28.378124L269.3625 28.378124L269.3625 34.925Q269.3625 35.565624 269.6281 35.89375Q269.89374 36.20625 270.53436 36.20625Q270.84686 36.20625 271.39374 36.08125L271.39374 37.55Q270.675 37.753124 270.0031 37.753124Q268.8 37.753124 268.175 37.01875Q267.5656 36.284374 267.5656 34.925L267.5656 28.378124L265.64374 28.378124L265.64374 26.9875L267.5656 26.9875L267.5656 24.425L269.3625 24.425ZM276.3625 24.425L276.3625 26.9875L278.34686 26.9875L278.34686 28.378124L276.3625 28.378124L276.3625 34.925Q276.3625 35.565624 276.6281 35.89375Q276.89374 36.20625 277.53436 36.20625Q277.84686 36.20625 278.39374 36.08125L278.39374 37.55Q277.675 37.753124 277.0031 37.753124Q275.8 37.753124 275.175 37.01875Q274.5656 36.284374 274.5656 34.925L274.5656 28.378124L272.64374 28.378124L272.64374 26.9875L274.5656 26.9875L274.5656 24.425L276.3625 24.425ZM282.8781 37.55L281.08124 37.55L281.08124 26.9875L282.8781 26.9875L282.8781 37.55ZM280.925 24.175Q280.925 23.7375 281.1906 23.440624Q281.47186 23.128124 281.9875 23.128124Q282.51874 23.128124 282.78436 23.440624Q283.0656 23.7375 283.0656 24.175Q283.0656 24.6125 282.78436 24.909374Q282.51874 25.20625 281.9875 25.20625Q281.47186 25.20625 281.1906 24.909374Q280.925 24.6125 280.925 24.175ZM287.6281 26.9875L287.6906 28.315624Q288.89374 26.784374 290.84686 26.784374Q294.20624 26.784374 294.22186 30.565624L294.22186 37.55L292.425 37.55L292.425 30.55Q292.40936 29.409374 291.89374 28.8625Q291.39374 28.315624 290.3 28.315624Q289.425 28.315624 288.7531 28.784374Q288.09686 29.253124 287.72186 30.01875L287.72186 37.55L285.925 37.55L285.925 26.9875L287.6281 26.9875ZM296.4875 32.175Q296.4875 29.70625 297.6281 28.253124Q298.76874 26.784374 300.65936 26.784374Q302.59686 26.784374 303.675 28.159374L303.76874 26.9875L305.40936 26.9875L305.40936 37.3Q305.40936 39.346874 304.1906 40.51875Q302.9875 41.70625 300.925 41.70625Q299.78436 41.70625 298.6906 41.221874Q297.59686 40.7375 297.01874 39.878124L297.95624 38.8Q299.1281 40.2375 300.8 40.2375Q302.1281 40.2375 302.8625 39.4875Q303.59686 38.753124 303.59686 37.409374L303.59686 36.4875Q302.51874 37.753124 300.64374 37.753124Q298.78436 37.753124 297.6281 36.253124Q296.4875 34.753124 296.4875 32.175ZM298.3 32.378124Q298.3 34.175 299.03436 35.190624Q299.76874 36.20625 301.08124 36.20625Q302.8 36.20625 303.59686 34.659374L303.59686 29.83125Q302.76874 28.315624 301.1125 28.315624Q299.78436 28.315624 299.03436 29.346874Q298.3 30.378124 298.3 32.378124ZM316.3781 34.909374L318.83124 26.9875L320.76874 26.9875L316.51874 39.175Q315.53436 41.815624 313.39374 41.815624L313.05 41.784374L312.3781 41.659374L312.3781 40.190624L312.8625 40.2375Q313.78436 40.2375 314.28436 39.8625Q314.8 39.4875 315.1281 38.503124L315.53436 37.425L311.76874 26.9875L313.7375 26.9875L316.3781 34.909374ZM321.4406 32.175Q321.4406 30.6125 322.05 29.378124Q322.65936 28.128124 323.7375 27.45625Q324.83124 26.784374 326.2375 26.784374Q328.39374 26.784374 329.72186 28.284374Q331.0656 29.76875 331.0656 32.253124L331.0656 32.378124Q331.0656 33.925 330.47186 35.159374Q329.8781 36.378124 328.76874 37.065624Q327.675 37.753124 326.2531 37.753124Q324.1125 37.753124 322.76874 36.253124Q321.4406 34.753124 321.4406 32.3L321.4406 32.175ZM323.2531 32.378124Q323.2531 34.14375 324.0656 35.20625Q324.89374 36.26875 326.2531 36.26875Q327.6281 36.26875 328.4406 35.190624Q329.2531 34.1125 329.2531 32.175Q329.2531 30.425 328.425 29.346874Q327.59686 28.26875 326.2375 28.26875Q324.89374 28.26875 324.0656 29.33125Q323.2531 30.39375 323.2531 32.378124ZM339.4406 36.503124Q338.39374 37.753124 336.34686 37.753124Q334.65936 37.753124 333.76874 36.76875Q332.89374 35.784374 332.8781 33.8625L332.8781 26.9875L334.6906 26.9875L334.6906 33.815624Q334.6906 36.20625 336.64374 36.20625Q338.70624 36.20625 339.39374 34.675L339.39374 26.9875L341.20624 26.9875L341.20624 37.55L339.4875 37.55L339.4406 36.503124ZM349.01874 28.596874Q348.6125 28.534374 348.14374 28.534374Q346.3625 28.534374 345.72186 30.05L345.72186 37.55L343.925 37.55L343.925 26.9875L345.675 26.9875L345.70624 28.20625Q346.59686 26.784374 348.22186 26.784374Q348.7531 26.784374 349.01874 26.925L349.01874 28.596874ZM356.8 37.55L356.8 28.378124L355.14374 28.378124L355.14374 26.9875L356.8 26.9875L356.8 25.89375Q356.8 24.20625 357.70624 23.284374Q358.6281 22.346874 360.28436 22.346874Q360.90936 22.346874 361.51874 22.503124L361.425 23.971874Q360.97186 23.89375 360.45624 23.89375Q359.5656 23.89375 359.08124 24.409374Q358.6125 24.909374 358.6125 25.8625L358.6125 26.9875L360.8625 26.9875L360.8625 28.378124L358.6125 28.378124L358.6125 37.55L356.8 37.55ZM369.4406 36.503124Q368.39374 37.753124 366.34686 37.753124Q364.65936 37.753124 363.76874 36.76875Q362.89374 35.784374 362.8781 33.8625L362.8781 26.9875L364.6906 26.9875L364.6906 33.815624Q364.6906 36.20625 366.64374 36.20625Q368.70624 36.20625 369.39374 34.675L369.39374 26.9875L371.20624 26.9875L371.20624 37.55L369.4875 37.55L369.4406 36.503124ZM379.01874 28.596874Q378.6125 28.534374 378.14374 28.534374Q376.3625 28.534374 375.72186 30.05L375.72186 37.55L373.925 37.55L373.925 26.9875L375.675 26.9875L375.70624 28.20625Q376.59686 26.784374 378.22186 26.784374Q378.7531 26.784374 379.01874 26.925L379.01874 28.596874ZM382.6281 26.9875L382.6906 28.315624Q383.89374 26.784374 385.84686 26.784374Q389.20624 26.784374 389.22186 30.565624L389.22186 37.55L387.425 37.55L387.425 30.55Q387.40936 29.409374 386.89374 28.8625Q386.39374 28.315624 385.3 28.315624Q384.425 28.315624 383.7531 28.784374Q383.09686 29.253124 382.72186 30.01875L382.72186 37.55L380.925 37.55L380.925 26.9875L382.6281 26.9875ZM393.8781 37.55L392.08124 37.55L392.08124 26.9875L393.8781 26.9875L393.8781 37.55ZM391.925 24.175Q391.925 23.7375 392.1906 23.440624Q392.47186 23.128124 392.9875 23.128124Q393.51874 23.128124 393.78436 23.440624Q394.0656 23.7375 394.0656 24.175Q394.0656 24.6125 393.78436 24.909374Q393.51874 25.20625 392.9875 25.20625Q392.47186 25.20625 392.1906 24.909374Q391.925 24.6125 391.925 24.175ZM403.0656 34.753124Q403.0656 34.01875 402.51874 33.6125Q401.97186 33.20625 400.59686 32.909374Q399.22186 32.6125 398.40936 32.20625Q397.6125 31.8 397.22186 31.2375Q396.84686 30.659374 396.84686 29.878124Q396.84686 28.58125 397.9406 27.690624Q399.03436 26.784374 400.7531 26.784374Q402.55 26.784374 403.65936 27.721874Q404.78436 28.64375 404.78436 30.08125L402.95624 30.08125Q402.95624 29.346874 402.33124 28.815624Q401.70624 28.26875 400.7531 28.26875Q399.7531 28.26875 399.1906 28.70625Q398.64374 29.128124 398.64374 29.83125Q398.64374 30.471874 399.15936 30.815624Q399.675 31.14375 401.03436 31.45625Q402.39374 31.753124 403.22186 32.175Q404.0656 32.58125 404.47186 33.175Q404.8781 33.76875 404.8781 34.6125Q404.8781 36.034374 403.7375 36.89375Q402.6125 37.753124 400.8 37.753124Q399.53436 37.753124 398.55 37.3Q397.58124 36.846874 397.01874 36.05Q396.47186 35.2375 396.47186 34.3L398.28436 34.3Q398.33124 35.20625 399.0031 35.7375Q399.6906 36.26875 400.8 36.26875Q401.83124 36.26875 402.4406 35.8625Q403.0656 35.440624 403.0656 34.753124ZM408.72186 28.26875Q409.925 26.784374 411.84686 26.784374Q415.20624 26.784374 415.22186 30.565624L415.22186 37.55L413.425 37.55L413.425 30.55Q413.40936 29.409374 412.89374 28.8625Q412.39374 28.315624 411.3 28.315624Q410.425 28.315624 409.7531 28.784374Q409.09686 29.253124 408.72186 30.01875L408.72186 37.55L406.925 37.55L406.925 22.55L408.72186 22.55L408.72186 28.26875ZM419.8781 37.55L418.08124 37.55L418.08124 26.9875L419.8781 26.9875L419.8781 37.55ZM417.925 24.175Q417.925 23.7375 418.1906 23.440624Q418.47186 23.128124 418.9875 23.128124Q419.51874 23.128124 419.78436 23.440624Q420.0656 23.7375 420.0656 24.175Q420.0656 24.6125 419.78436 24.909374Q419.51874 25.20625 418.9875 25.20625Q418.47186 25.20625 418.1906 24.909374Q417.925 24.6125 417.925 24.175ZM424.6281 26.9875L424.6906 28.315624Q425.89374 26.784374 427.84686 26.784374Q431.20624 26.784374 431.22186 30.565624L431.22186 37.55L429.425 37.55L429.425 30.55Q429.40936 29.409374 428.89374 28.8625Q428.39374 28.315624 427.3 28.315624Q426.425 28.315624 425.7531 28.784374Q425.09686 29.253124 424.72186 30.01875L424.72186 37.55L422.925 37.55L422.925 26.9875L424.6281 26.9875ZM433.4875 32.175Q433.4875 29.70625 434.6281 28.253124Q435.76874 26.784374 437.65936 26.784374Q439.59686 26.784374 440.675 28.159374L440.76874 26.9875L442.40936 26.9875L442.40936 37.3Q442.40936 39.346874 441.1906 40.51875Q439.9875 41.70625 437.925 41.70625Q436.78436 41.70625 435.6906 41.221874Q434.59686 40.7375 434.01874 39.878124L434.95624 38.8Q436.1281 40.2375 437.8 40.2375Q439.1281 40.2375 439.8625 39.4875Q440.59686 38.753124 440.59686 37.409374L440.59686 36.4875Q439.51874 37.753124 437.64374 37.753124Q435.78436 37.753124 434.6281 36.253124Q433.4875 34.753124 433.4875 32.175ZM435.3 32.378124Q435.3 34.175 436.03436 35.190624Q436.76874 36.20625 438.08124 36.20625Q439.8 36.20625 440.59686 34.659374L440.59686 29.83125Q439.76874 28.315624 438.1125 28.315624Q436.78436 28.315624 436.03436 29.346874Q435.3 30.378124 435.3 32.378124ZM451.0656 34.753124Q451.0656 34.01875 450.51874 33.6125Q449.97186 33.20625 448.59686 32.909374Q447.22186 32.6125 446.40936 32.20625Q445.6125 31.8 445.22186 31.2375Q444.84686 30.659374 444.84686 29.878124Q444.84686 28.58125 445.9406 27.690624Q447.03436 26.784374 448.7531 26.784374Q450.55 26.784374 451.65936 27.721874Q452.78436 28.64375 452.78436 30.08125L450.95624 30.08125Q450.95624 29.346874 450.33124 28.815624Q449.70624 28.26875 448.7531 28.26875Q447.7531 28.26875 447.1906 28.70625Q446.64374 29.128124 446.64374 29.83125Q446.64374 30.471874 447.15936 30.815624Q447.675 31.14375 449.03436 31.45625Q450.39374 31.753124 451.22186 32.175Q452.0656 32.58125 452.47186 33.175Q452.8781 33.76875 452.8781 34.6125Q452.8781 36.034374 451.7375 36.89375Q450.6125 37.753124 448.8 37.753124Q447.53436 37.753124 446.55 37.3Q445.58124 36.846874 445.01874 36.05Q444.47186 35.2375 444.47186 34.3L446.28436 34.3Q446.33124 35.20625 447.0031 35.7375Q447.6906 36.26875 448.8 36.26875Q449.83124 36.26875 450.4406 35.8625Q451.0656 35.440624 451.0656 34.753124ZM461.72186 28.26875Q462.925 26.784374 464.84686 26.784374Q468.20624 26.784374 468.22186 30.565624L468.22186 37.55L466.425 37.55L466.425 30.55Q466.40936 29.409374 465.89374 28.8625Q465.39374 28.315624 464.3 28.315624Q463.425 28.315624 462.7531 28.784374Q462.09686 29.253124 461.72186 30.01875L461.72186 37.55L459.925 37.55L459.925 22.55L461.72186 22.55L461.72186 28.26875ZM470.4406 32.175Q470.4406 30.6125 471.05 29.378124Q471.65936 28.128124 472.7375 27.45625Q473.83124 26.784374 475.2375 26.784374Q477.39374 26.784374 478.72186 28.284374Q480.0656 29.76875 480.0656 32.253124L480.0656 32.378124Q480.0656 33.925 479.47186 35.159374Q478.8781 36.378124 477.76874 37.065624Q476.675 37.753124 475.2531 37.753124Q473.1125 37.753124 471.76874 36.253124Q470.4406 34.753124 470.4406 32.3L470.4406 32.175ZM472.2531 32.378124Q472.2531 34.14375 473.0656 35.20625Q473.89374 36.26875 475.2531 36.26875Q476.6281 36.26875 477.4406 35.190624Q478.2531 34.1125 478.2531 32.175Q478.2531 30.425 477.425 29.346874Q476.59686 28.26875 475.2375 28.26875Q473.89374 28.26875 473.0656 29.33125Q472.2531 30.39375 472.2531 32.378124ZM483.6125 26.9875L483.65936 28.159374Q484.83124 26.784374 486.8 26.784374Q489.01874 26.784374 489.8156 28.4875Q490.34686 27.721874 491.1906 27.253124Q492.03436 26.784374 493.1906 26.784374Q496.65936 26.784374 496.72186 30.471874L496.72186 37.55L494.90936 37.55L494.90936 30.58125Q494.90936 29.440624 494.39374 28.878124Q493.8781 28.315624 492.65936 28.315624Q491.65936 28.315624 490.9875 28.925Q490.33124 29.51875 490.22186 30.534374L490.22186 37.55L488.40936 37.55L488.40936 30.628124Q488.40936 28.315624 486.14374 28.315624Q484.3625 28.315624 483.72186 29.83125L483.72186 37.55L481.90936 37.55L481.90936 26.9875L483.6125 26.9875ZM504.3 37.753124Q502.15936 37.753124 500.8 36.346874Q499.45624 34.925 499.45624 32.565624L499.45624 32.221874Q499.45624 30.659374 500.05 29.425Q500.65936 28.190624 501.7375 27.4875Q502.8156 26.784374 504.08124 26.784374Q506.14374 26.784374 507.28436 28.14375Q508.425 29.503124 508.425 32.034374L508.425 32.784374L501.26874 32.784374Q501.3 34.346874 502.175 35.315624Q503.05 36.26875 504.39374 36.26875Q505.3625 36.26875 506.01874 35.878124Q506.6906 35.4875 507.1906 34.846874L508.28436 35.70625Q506.95624 37.753124 504.3 37.753124ZM504.08124 28.26875Q502.9875 28.26875 502.2375 29.065624Q501.5031 29.8625 501.33124 31.3L506.6125 31.3L506.6125 31.159374Q506.53436 29.784374 505.8625 29.034374Q505.20624 28.26875 504.08124 28.26875ZM513.03436 33.55Q513.05 32.378124 513.3 31.70625Q513.55 31.034374 514.3 30.221874L515.58124 28.89375Q516.39374 27.971874 516.39374 26.909374Q516.39374 25.878124 515.84686 25.3Q515.3156 24.721874 514.3 24.721874Q513.3 24.721874 512.6906 25.253124Q512.09686 25.76875 512.09686 26.659374L510.28436 26.659374Q510.3 25.08125 511.40936 24.1125Q512.51874 23.128124 514.3 23.128124Q516.14374 23.128124 517.175 24.128124Q518.20624 25.1125 518.20624 26.846874Q518.20624 28.55 516.6281 30.221874L515.55 31.26875Q514.84686 32.065624 514.84686 33.55L513.03436 33.55ZM512.95624 36.64375Q512.95624 36.20625 513.22186 35.909374Q513.5031 35.6125 514.01874 35.6125Q514.55 35.6125 514.8156 35.909374Q515.09686 36.20625 515.09686 36.64375Q515.09686 37.08125 514.8156 37.378124Q514.55 37.659374 514.01874 37.659374Q513.5031 37.659374 513.22186 37.378124Q512.95624 37.08125 512.95624 36.64375Z" fill-rule="nonzero"/></svg>