<svg version="1.1" viewBox="0.0 0.0 600.0 371.0" fill="none" stroke="none" stroke-linecap="square" stroke-miterlimit="10" width="600" height="371" xmlns:xlink="http://www.w3.org/1999/xlink" xmlns="http://www.w3.org/2000/svg"><path fill="#ffffff" d="M0 0L600.0 0L600.0 371.0L0 371.0L0 0Z" fill-rule="nonzero"/><path stroke="#333333" stroke-width="1.0" stroke-linecap="butt" d="M78.5 298.5L581.5 298.5" fill-rule="nonzero"/><path stroke="#cccccc" stroke-width="1.0" stroke-linecap="butt" d="M78.5 239.5L581.5 239.5" fill-rule="nonzero"/><path stroke="#cccccc" stroke-width="1.0" stroke-linecap="butt" d="M78.5 180.5L581.5 180.5" fill-rule="nonzero"/><path stroke="#cccccc" stroke-width="1.0" stroke-linecap="butt" d="M78.5 121.5L581.5 121.5" fill-rule="nonzero"/><path stroke="#cccccc" stroke-width="1.0" stroke-linecap="butt" d="M78.5 62.5L581.5 62.5" fill-rule="nonzero"/><clipPath id="id_0"><path d="M78.55 62.416668L581.45 62.416668L581.45 298.45L78.55 298.45L78.55 62.416668Z" clip-rule="nonzero"/></clipPath><path stroke="#000000" stroke-width="0.0" stroke-linecap="butt" stroke-opacity="0.0" clip-path="url(#id_0)" d="M293.0 298.0L154.0 298.0L154.0 109.0C154.0 107.89543 154.89543 107.0 156.0 107.0L291.0 107.0C292.10458 107.0 293.0 107.89543 293.0 109.0Z" fill-rule="nonzero"/><path fill="#4285f4" clip-path="url(#id_0)" d="M293.0 298.0L154.0 298.0L154.0 109.0C154.0 107.89543 154.89543 107.0 156.0 107.0L291.0 107.0C292.10458 107.0 293.0 107.89543 293.0 109.0Z" fill-rule="nonzero"/><path stroke="#000000" stroke-width="0.0" stroke-linecap="butt" stroke-opacity="0.0" clip-path="url(#id_0)" d="M507.0 298.0L368.0 298.0L368.0 182.0C368.0 180.89543 368.89542 180.0 370.0 180.0L505.0 180.0C506.10458 180.0 507.0 180.89543 507.0 182.0Z" fill-rule="nonzero"/><path fill="#4285f4" clip-path="url(#id_0)" d="M507.0 298.0L368.0 298.0L368.0 182.0C368.0 180.89543 368.89542 180.0 370.0 180.0L505.0 180.0C506.10458 180.0 507.0 180.89543 507.0 182.0Z" fill-rule="nonzero"/><path fill="#424242" d="M305.125 345.9969L303.10938 345.9969L303.10938 349.45L301.98438 349.45L301.98438 340.91876L304.8125 340.91876Q306.25 340.91876 307.01562 341.575Q307.79688 342.23126 307.79688 343.48126Q307.79688 344.27814 307.35938 344.8719Q306.9375 345.46564 306.17188 345.7625L308.17188 349.3719L308.17188 349.45L306.96875 349.45L305.125 345.9969ZM303.10938 345.075L304.84375 345.075Q305.6875 345.075 306.17188 344.65314Q306.67188 344.21564 306.67188 343.48126Q306.67188 342.7 306.20312 342.27814Q305.73438 341.85626 304.84375 341.84064L303.10938 341.84064L303.10938 345.075ZM311.45312 349.575Q310.15625 349.575 309.34375 348.73126Q308.54688 347.8719 308.54688 346.45L308.54688 346.2625Q308.54688 345.3094 308.90625 344.575Q309.26562 343.825 309.90625 343.41876Q310.5625 342.9969 311.3125 342.9969Q312.54688 342.9969 313.23438 343.8094Q313.92188 344.6219 313.92188 346.1375L313.92188 346.59064L309.625 346.59064Q309.65625 347.52814 310.17188 348.10626Q310.70312 348.6844 311.51562 348.6844Q312.07812 348.6844 312.46875 348.45Q312.875 348.21564 313.1875 347.825L313.84375 348.34064Q313.04688 349.575 311.45312 349.575ZM311.3125 343.8875Q310.65625 343.8875 310.20312 344.3719Q309.76562 344.84064 309.67188 345.7L312.84375 345.7L312.84375 345.6219Q312.79688 344.79376 312.39062 344.34064Q312.0 343.8875 311.3125 343.8875ZM318.51562 347.7625Q318.51562 347.325 318.17188 347.09064Q317.84375 346.84064 317.01562 346.66876Q316.20312 346.4969 315.71875 346.2469Q315.23438 345.9969 315.0 345.66876Q314.78125 345.325 314.78125 344.85626Q314.78125 344.075 315.4375 343.54376Q316.09375 342.9969 317.125 342.9969Q318.20312 342.9969 318.85938 343.5594Q319.53125 344.10626 319.53125 344.96564L318.45312 344.96564Q318.45312 344.52814 318.0625 344.21564Q317.6875 343.8875 317.125 343.8875Q316.53125 343.8875 316.1875 344.15314Q315.85938 344.40314 315.85938 344.8094Q315.85938 345.2 316.17188 345.40314Q316.48438 345.60626 317.29688 345.79376Q318.10938 345.96564 318.60938 346.21564Q319.10938 346.46564 319.34375 346.825Q319.59375 347.1844 319.59375 347.6844Q319.59375 348.54376 318.90625 349.0594Q318.23438 349.575 317.15625 349.575Q316.39062 349.575 315.79688 349.3094Q315.21875 349.02814 314.89062 348.54376Q314.5625 348.0594 314.5625 347.4969L315.64062 347.4969Q315.67188 348.04376 316.07812 348.3719Q316.48438 348.6844 317.15625 348.6844Q317.76562 348.6844 318.14062 348.4344Q318.51562 348.1844 318.51562 347.7625ZM326.17188 346.35626Q326.17188 347.79376 325.51562 348.6844Q324.85938 349.575 323.71875 349.575Q322.5625 349.575 321.90625 348.84064L321.90625 351.8875L320.82812 351.8875L320.82812 343.10626L321.8125 343.10626L321.85938 343.8094Q322.53125 342.9969 323.70312 342.9969Q324.84375 342.9969 325.5 343.85626Q326.17188 344.71564 326.17188 346.2469L326.17188 346.35626ZM325.09375 346.23126Q325.09375 345.15314 324.625 344.54376Q324.17188 343.91876 323.375 343.91876Q322.39062 343.91876 321.90625 344.77814L321.90625 347.8094Q322.39062 348.6844 323.39062 348.6844Q324.17188 348.6844 324.625 348.075Q325.09375 347.45 325.09375 346.23126ZM327.53125 346.21564Q327.53125 345.29376 327.89062 344.54376Q328.26562 343.79376 328.92188 343.40314Q329.57812 342.9969 330.40625 342.9969Q331.70312 342.9969 332.5 343.8875Q333.3125 344.77814 333.3125 346.27814L333.3125 346.35626Q333.3125 347.27814 332.95312 348.0125Q332.59375 348.7469 331.9375 349.16876Q331.28125 349.575 330.42188 349.575Q329.14062 349.575 328.32812 348.6844Q327.53125 347.77814 327.53125 346.29376L327.53125 346.21564ZM328.625 346.35626Q328.625 347.40314 329.10938 348.04376Q329.60938 348.6844 330.42188 348.6844Q331.25 348.6844 331.73438 348.04376Q332.21875 347.3875 332.21875 346.21564Q332.21875 345.1844 331.71875 344.54376Q331.23438 343.8875 330.40625 343.8875Q329.60938 343.8875 329.10938 344.52814Q328.625 345.15314 328.625 346.35626ZM335.84375 343.10626L335.875 343.90314Q336.60938 342.9969 337.78125 342.9969Q339.79688 342.9969 339.8125 345.2625L339.8125 349.45L338.71875 349.45L338.71875 345.2469Q338.71875 344.575 338.40625 344.2469Q338.10938 343.91876 337.45312 343.91876Q336.92188 343.91876 336.51562 344.2Q336.125 344.48126 335.90625 344.9344L335.90625 349.45L334.82812 349.45L334.82812 343.10626L335.84375 343.10626ZM344.35938 348.6844Q344.9375 348.6844 345.375 348.34064Q345.8125 347.98126 345.85938 347.45L346.89062 347.45Q346.85938 347.9969 346.5 348.4969Q346.15625 348.98126 345.57812 349.27814Q345.01562 349.575 344.35938 349.575Q343.0625 349.575 342.29688 348.71564Q341.54688 347.84064 341.54688 346.34064L341.54688 346.15314Q341.54688 345.23126 341.875 344.5125Q342.21875 343.79376 342.84375 343.40314Q343.48438 342.9969 344.35938 342.9969Q345.42188 342.9969 346.125 343.6375Q346.84375 344.2625 346.89062 345.29376L345.85938 345.29376Q345.8125 344.66876 345.39062 344.27814Q344.96875 343.8875 344.35938 343.8875Q343.53125 343.8875 343.07812 344.48126Q342.625 345.075 342.625 346.2L342.625 346.40314Q342.625 347.4969 343.07812 348.09064Q343.53125 348.6844 344.35938 348.6844ZM350.45312 349.575Q349.15625 349.575 348.34375 348.73126Q347.54688 347.8719 347.54688 346.45L347.54688 346.2625Q347.54688 345.3094 347.90625 344.575Q348.26562 343.825 348.90625 343.41876Q349.5625 342.9969 350.3125 342.9969Q351.54688 342.9969 352.23438 343.8094Q352.92188 344.6219 352.92188 346.1375L352.92188 346.59064L348.625 346.59064Q348.65625 347.52814 349.17188 348.10626Q349.70312 348.6844 350.51562 348.6844Q351.07812 348.6844 351.46875 348.45Q351.875 348.21564 352.1875 347.825L352.84375 348.34064Q352.04688 349.575 350.45312 349.575ZM350.3125 343.8875Q349.65625 343.8875 349.20312 344.3719Q348.76562 344.84064 348.67188 345.7L351.84375 345.7L351.84375 345.6219Q351.79688 344.79376 351.39062 344.34064Q351.0 343.8875 350.3125 343.8875ZM357.51562 347.7625Q357.51562 347.325 357.17188 347.09064Q356.84375 346.84064 356.01562 346.66876Q355.20312 346.4969 354.71875 346.2469Q354.23438 345.9969 354.0 345.66876Q353.78125 345.325 353.78125 344.85626Q353.78125 344.075 354.4375 343.54376Q355.09375 342.9969 356.125 342.9969Q357.20312 342.9969 357.85938 343.5594Q358.53125 344.10626 358.53125 344.96564L357.45312 344.96564Q357.45312 344.52814 357.0625 344.21564Q356.6875 343.8875 356.125 343.8875Q355.53125 343.8875 355.1875 344.15314Q354.85938 344.40314 354.85938 344.8094Q354.85938 345.2 355.17188 345.40314Q355.48438 345.60626 356.29688 345.79376Q357.10938 345.96564 357.60938 346.21564Q358.10938 346.46564 358.34375 346.825Q358.59375 347.1844 358.59375 347.6844Q358.59375 348.54376 357.90625 349.0594Q357.23438 349.575 356.15625 349.575Q355.39062 349.575 354.79688 349.3094Q354.21875 349.02814 353.89062 348.54376Q353.5625 348.0594 353.5625 347.4969L354.64062 347.4969Q354.67188 348.04376 355.07812 348.3719Q355.48438 348.6844 356.15625 348.6844Q356.76562 348.6844 357.14062 348.4344Q357.51562 348.1844 357.51562 347.7625Z" fill-rule="nonzero"/><path fill="#424242" d="M27.206263 233.07396L30.550013 233.07396L30.550013 234.19896L22.018763 234.19896L22.018763 231.04271Q22.018763 229.65208 22.737513 228.85521Q23.440638 228.05833 24.628138 228.05833Q25.862513 228.05833 26.534388 228.83958Q27.206263 229.60521 27.206263 231.05833L27.206263 233.07396ZM26.284388 233.07396L26.284388 231.04271Q26.284388 230.13646 25.862513 229.66771Q25.440638 229.18333 24.643763 229.18333Q23.878138 229.18333 23.425013 229.66771Q22.956263 230.13646 22.940638 230.98021L22.940638 233.07396L26.284388 233.07396ZM30.550013 222.44896Q30.362513 222.54271 29.878138 222.60521Q30.675013 223.35521 30.675013 224.40208Q30.675013 225.33958 30.143763 225.94896Q29.612513 226.54271 28.784388 226.54271Q27.800013 226.54271 27.253138 225.79271Q26.706263 225.04271 26.706263 223.66771L26.706263 222.62083L26.206263 222.62083Q25.643763 222.62083 25.315638 222.96458Q24.971888 223.29271 24.971888 223.96458Q24.971888 224.54271 25.268763 224.93333Q25.550013 225.32396 25.971888 225.32396L25.971888 226.41771Q25.487513 226.41771 25.050013 226.08958Q24.612513 225.74583 24.362513 225.16771Q24.096888 224.58958 24.096888 223.90208Q24.096888 222.79271 24.643763 222.18333Q25.190638 221.55833 26.143763 221.52708L29.065638 221.52708Q29.940638 221.52708 30.456263 221.30833L30.550013 221.30833L30.550013 222.44896ZM29.721888 224.24583Q29.721888 223.73021 29.456263 223.27708Q29.190638 222.82396 28.768763 222.62083L27.471888 222.62083L27.471888 223.46458Q27.471888 225.46458 28.643763 225.46458Q29.143763 225.46458 29.440638 225.12083Q29.721888 224.77708 29.721888 224.24583ZM25.175013 216.29271Q25.143763 216.54271 25.143763 216.82396Q25.143763 217.90208 26.050013 218.27708L30.550013 218.27708L30.550013 219.35521L24.206263 219.35521L24.206263 218.30833L24.940638 218.29271Q24.096888 217.76146 24.096888 216.77708Q24.096888 216.46458 24.175013 216.29271L25.175013 216.29271ZM22.675013 213.88646L24.206263 213.88646L24.206263 212.71458L25.050013 212.71458L25.050013 213.88646L28.971888 213.88646Q29.362513 213.88646 29.550013 213.73021Q29.737513 213.57396 29.737513 213.19896Q29.737513 213.01146 29.675013 212.68333L30.550013 212.68333Q30.675013 213.10521 30.675013 213.51146Q30.675013 214.23021 30.237513 214.60521Q29.784388 214.98021 28.971888 214.98021L25.050013 214.98021L25.050013 216.13646L24.206263 216.13646L24.206263 214.98021L22.675013 214.98021L22.675013 213.88646ZM30.550013 210.18333L30.550013 211.26146L24.206263 211.26146L24.206263 210.18333L30.550013 210.18333ZM22.534388 211.35521Q22.268763 211.35521 22.081263 211.19896Q21.893763 211.02708 21.893763 210.71458Q21.893763 210.40208 22.081263 210.24583Q22.268763 210.07396 22.534388 210.07396Q22.784388 210.07396 22.971888 210.24583Q23.143763 210.40208 23.143763 210.71458Q23.143763 211.02708 22.971888 211.19896Q22.784388 211.35521 22.534388 211.35521ZM29.784388 205.82396Q29.784388 205.24583 29.440638 204.80833Q29.081263 204.37083 28.550013 204.32396L28.550013 203.29271Q29.096888 203.32396 29.596888 203.68333Q30.081263 204.02708 30.378138 204.60521Q30.675013 205.16771 30.675013 205.82396Q30.675013 207.12083 29.815638 207.88646Q28.940638 208.63646 27.440638 208.63646L27.253138 208.63646Q26.331263 208.63646 25.612513 208.30833Q24.893763 207.96458 24.503138 207.33958Q24.096888 206.69896 24.096888 205.82396Q24.096888 204.76146 24.737513 204.05833Q25.362513 203.33958 26.393763 203.29271L26.393763 204.32396Q25.768763 204.37083 25.378138 204.79271Q24.987513 205.21458 24.987513 205.82396Q24.987513 206.65208 25.581263 207.10521Q26.175013 207.55833 27.300013 207.55833L27.503138 207.55833Q28.596888 207.55833 29.190638 207.10521Q29.784388 206.65208 29.784388 205.82396ZM30.550013 201.18333L30.550013 202.26146L24.206263 202.26146L24.206263 201.18333L30.550013 201.18333ZM22.534388 202.35521Q22.268763 202.35521 22.081263 202.19896Q21.893763 202.02708 21.893763 201.71458Q21.893763 201.40208 22.081263 201.24583Q22.268763 201.07396 22.534388 201.07396Q22.784388 201.07396 22.971888 201.24583Q23.143763 201.40208 23.143763 201.71458Q23.143763 202.02708 22.971888 202.19896Q22.784388 202.35521 22.534388 202.35521ZM27.456263 194.01146Q28.893763 194.01146 29.784388 194.66771Q30.675013 195.32396 30.675013 196.46458Q30.675013 197.62083 29.940638 198.27708L32.98751 198.27708L32.98751 199.35521L24.206263 199.35521L24.206263 198.37083L24.909388 198.32396Q24.096888 197.65208 24.096888 196.48021Q24.096888 195.33958 24.956263 194.68333Q25.815638 194.01146 27.346888 194.01146L27.456263 194.01146ZM27.331263 195.08958Q26.253138 195.08958 25.643763 195.55833Q25.018763 196.01146 25.018763 196.80833Q25.018763 197.79271 25.878138 198.27708L28.909388 198.27708Q29.784388 197.79271 29.784388 196.79271Q29.784388 196.01146 29.175013 195.55833Q28.550013 195.08958 27.331263 195.08958ZM30.550013 188.44896Q30.362513 188.54271 29.878138 188.60521Q30.675013 189.35521 30.675013 190.40208Q30.675013 191.33958 30.143763 191.94896Q29.612513 192.54271 28.784388 192.54271Q27.800013 192.54271 27.253138 191.79271Q26.706263 191.04271 26.706263 189.66771L26.706263 188.62083L26.206263 188.62083Q25.643763 188.62083 25.315638 188.96458Q24.971888 189.29271 24.971888 189.96458Q24.971888 190.54271 25.268763 190.93333Q25.550013 191.32396 25.971888 191.32396L25.971888 192.41771Q25.487513 192.41771 25.050013 192.08958Q24.612513 191.74583 24.362513 191.16771Q24.096888 190.58958 24.096888 189.90208Q24.096888 188.79271 24.643763 188.18333Q25.190638 187.55833 26.143763 187.52708L29.065638 187.52708Q29.940638 187.52708 30.456263 187.30833L30.550013 187.30833L30.550013 188.44896ZM29.721888 190.24583Q29.721888 189.73021 29.456263 189.27708Q29.190638 188.82396 28.768763 188.62083L27.471888 188.62083L27.471888 189.46458Q27.471888 191.46458 28.643763 191.46458Q29.143763 191.46458 29.440638 191.12083Q29.721888 190.77708 29.721888 190.24583ZM24.206263 184.33958L25.003138 184.30833Q24.096888 183.57396 24.096888 182.40208Q24.096888 180.38646 26.362513 180.37083L30.550013 180.37083L30.550013 181.46458L26.346888 181.46458Q25.675013 181.46458 25.346888 181.77708Q25.018763 182.07396 25.018763 182.73021Q25.018763 183.26146 25.300013 183.66771Q25.581263 184.05833 26.034388 184.27708L30.550013 184.27708L30.550013 185.35521L24.206263 185.35521L24.206263 184.33958ZM22.675013 176.88646L24.206263 176.88646L24.206263 175.71458L25.050013 175.71458L25.050013 176.88646L28.971888 176.88646Q29.362513 176.88646 29.550013 176.73021Q29.737513 176.57396 29.737513 176.19896Q29.737513 176.01146 29.675013 175.68333L30.550013 175.68333Q30.675013 176.10521 30.675013 176.51146Q30.675013 177.23021 30.237513 177.60521Q29.784388 177.98021 28.971888 177.98021L25.050013 177.98021L25.050013 179.13646L24.206263 179.13646L24.206263 177.98021L22.675013 177.98021L22.675013 176.88646ZM27.846888 164.91771Q29.190638 165.07396 29.940638 165.91771Q30.675013 166.76146 30.675013 168.15208Q30.675013 169.66771 29.596888 170.57396Q28.503138 171.48021 26.675013 171.48021L25.862513 171.48021Q24.675013 171.48021 23.768763 171.05833Q22.862513 170.63646 22.378138 169.85521Q21.893763 169.07396 21.893763 168.05833Q21.893763 166.69896 22.659388 165.88646Q23.425013 165.05833 24.753138 164.91771L24.753138 166.04271Q23.737513 166.19896 23.284388 166.68333Q22.831263 167.16771 22.831263 168.05833Q22.831263 169.13646 23.628138 169.74583Q24.425013 170.35521 25.893763 170.35521L26.721888 170.35521Q28.112513 170.35521 28.940638 169.77708Q29.753138 169.19896 29.753138 168.15208Q29.753138 167.21458 29.331263 166.71458Q28.893763 166.21458 27.846888 166.04271L27.846888 164.91771ZM27.315638 163.65208Q26.393763 163.65208 25.643763 163.29271Q24.893763 162.91771 24.503138 162.26146Q24.096888 161.60521 24.096888 160.77708Q24.096888 159.48021 24.987513 158.68333Q25.878138 157.87083 27.378138 157.87083L27.456263 157.87083Q28.378138 157.87083 29.112513 158.23021Q29.846888 158.58958 30.268763 159.24583Q30.675013 159.90208 30.675013 160.76146Q30.675013 162.04271 29.784388 162.85521Q28.878138 163.65208 27.393763 163.65208L27.315638 163.65208ZM27.456263 162.55833Q28.503138 162.55833 29.143763 162.07396Q29.784388 161.57396 29.784388 160.76146Q29.784388 159.93333 29.143763 159.44896Q28.487513 158.96458 27.315638 158.96458Q26.284388 158.96458 25.643763 159.46458Q24.987513 159.94896 24.987513 160.77708Q24.987513 161.57396 25.628138 162.07396Q26.253138 162.55833 27.456263 162.55833ZM29.925013 152.44896Q30.675013 153.07396 30.675013 154.30833Q30.675013 155.32396 30.081263 155.85521Q29.487513 156.38646 28.331263 156.38646L24.206263 156.38646L24.206263 155.30833L28.300013 155.30833Q29.753138 155.30833 29.753138 154.13646Q29.753138 152.88646 28.815638 152.48021L24.206263 152.48021L24.206263 151.38646L30.550013 151.38646L30.550013 152.41771L29.925013 152.44896ZM24.206263 148.33958L25.003138 148.30833Q24.096888 147.57396 24.096888 146.40208Q24.096888 144.38646 26.362513 144.37083L30.550013 144.37083L30.550013 145.46458L26.346888 145.46458Q25.675013 145.46458 25.346888 145.77708Q25.018763 146.07396 25.018763 146.73021Q25.018763 147.26146 25.300013 147.66771Q25.581263 148.05833 26.034388 148.27708L30.550013 148.27708L30.550013 149.35521L24.206263 149.35521L24.206263 148.33958ZM22.675013 140.88646L24.206263 140.88646L24.206263 139.71458L25.050013 139.71458L25.050013 140.88646L28.971888 140.88646Q29.362513 140.88646 29.550013 140.73021Q29.737513 140.57396 29.737513 140.19896Q29.737513 140.01146 29.675013 139.68333L30.550013 139.68333Q30.675013 140.10521 30.675013 140.51146Q30.675013 141.23021 30.237513 141.60521Q29.784388 141.98021 28.971888 141.98021L25.050013 141.98021L25.050013 143.13646L24.206263 143.13646L24.206263 141.98021L22.675013 141.98021L22.675013 140.88646Z" fill-rule="nonzero"/><path fill="#757575" d="M71.6125 299.3094Q71.6125 301.21564 70.95625 302.15314Q70.31563 303.075 68.925 303.075Q67.56563 303.075 66.90938 302.16876Q66.25313 301.2625 66.22188 299.45L66.22188 298.0125Q66.22188 296.1219 66.8625 295.21564Q67.51875 294.29376 68.90938 294.29376Q70.28438 294.29376 70.94063 295.1844Q71.59688 296.0594 71.6125 297.90314L71.6125 299.3094ZM70.51875 297.825Q70.51875 296.45 70.12813 295.825Q69.75313 295.1844 68.90938 295.1844Q68.08125 295.1844 67.69063 295.825Q67.31563 296.45 67.31563 297.7469L67.31563 299.48126Q67.31563 300.85626 67.70625 301.52814Q68.1125 302.1844 68.925 302.1844Q69.72188 302.1844 70.1125 301.5594Q70.50313 300.9344 70.51875 299.60626L70.51875 297.825Z" fill-rule="nonzero"/><path fill="#757575" d="M64.84688 243.94167L59.253124 243.94167L59.253124 243.16042L62.20625 239.87917Q62.8625 239.12917 63.1125 238.67604Q63.3625 238.20729 63.3625 237.70729Q63.3625 237.03542 62.95625 236.61354Q62.565624 236.17604 61.878124 236.17604Q61.08125 236.17604 60.628124 236.64479Q60.175 237.09792 60.175 237.92604L59.096874 237.92604Q59.096874 236.73854 59.846874 236.01979Q60.6125 235.28542 61.878124 235.28542Q63.08125 235.28542 63.76875 235.91042Q64.45625 236.53542 64.45625 237.58229Q64.45625 238.83229 62.846874 240.58229L60.565624 243.05104L64.84688 243.05104L64.84688 243.94167ZM71.6125 240.30104Q71.6125 242.20729 70.95625 243.14479Q70.31563 244.06667 68.925 244.06667Q67.56563 244.06667 66.90938 243.16042Q66.25313 242.25417 66.22188 240.44167L66.22188 239.00417Q66.22188 237.11354 66.8625 236.20729Q67.51875 235.28542 68.90938 235.28542Q70.28438 235.28542 70.94063 236.17604Q71.59688 237.05104 71.6125 238.89479L71.6125 240.30104ZM70.51875 238.81667Q70.51875 237.44167 70.12813 236.81667Q69.75313 236.17604 68.90938 236.17604Q68.08125 236.17604 67.69063 236.81667Q67.31563 237.44167 67.31563 238.73854L67.31563 240.47292Q67.31563 241.84792 67.70625 242.51979Q68.1125 243.17604 68.925 243.17604Q69.72188 243.17604 70.1125 242.55104Q70.50313 241.92604 70.51875 240.59792L70.51875 238.81667Z" fill-rule="nonzero"/><path fill="#757575" d="M63.83125 182.07396L65.01875 182.07396L65.01875 182.94896L63.83125 182.94896L63.83125 184.93333L62.753124 184.93333L62.753124 182.94896L58.8625 182.94896L58.8625 182.30833L62.675 176.40208L63.83125 176.40208L63.83125 182.07396ZM60.096874 182.07396L62.753124 182.07396L62.753124 177.88646L62.6125 178.12083L60.096874 182.07396ZM71.6125 181.29271Q71.6125 183.19896 70.95625 184.13646Q70.31563 185.05833 68.925 185.05833Q67.56563 185.05833 66.90938 184.15208Q66.25313 183.24583 66.22188 181.43333L66.22188 179.99583Q66.22188 178.10521 66.8625 177.19896Q67.51875 176.27708 68.90938 176.27708Q70.28438 176.27708 70.94063 177.16771Q71.59688 178.04271 71.6125 179.88646L71.6125 181.29271ZM70.51875 179.80833Q70.51875 178.43333 70.12813 177.80833Q69.75313 177.16771 68.90938 177.16771Q68.08125 177.16771 67.69063 177.80833Q67.31563 178.43333 67.31563 179.73021L67.31563 181.46458Q67.31563 182.83958 67.70625 183.51146Q68.1125 184.16771 68.925 184.16771Q69.72188 184.16771 70.1125 183.54271Q70.50313 182.91771 70.51875 181.58958L70.51875 179.80833Z" fill-rule="nonzero"/><path fill="#757575" d="M63.51875 117.39375L63.51875 118.3L63.315624 118.3Q62.05 118.33125 61.3 119.06563Q60.55 119.78438 60.425 121.09688Q61.1125 120.33125 62.26875 120.33125Q63.378124 120.33125 64.05 121.1125Q64.72188 121.89375 64.72188 123.14375Q64.72188 124.45625 64.00313 125.25313Q63.284374 126.05 62.065624 126.05Q60.846874 126.05 60.08125 125.1125Q59.33125 124.15938 59.33125 122.675L59.33125 122.26875Q59.33125 119.90938 60.33125 118.65938Q61.33125 117.40938 63.315624 117.39375L63.51875 117.39375ZM62.096874 121.2375Q61.534374 121.2375 61.065624 121.56563Q60.596874 121.89375 60.409374 122.40938L60.409374 122.8Q60.409374 123.8625 60.878124 124.50313Q61.3625 125.14375 62.065624 125.14375Q62.8 125.14375 63.221874 124.6125Q63.64375 124.06563 63.64375 123.19063Q63.64375 122.31563 63.221874 121.78438Q62.8 121.2375 62.096874 121.2375ZM71.6125 122.28438Q71.6125 124.19063 70.95625 125.12813Q70.31563 126.05 68.925 126.05Q67.56563 126.05 66.90938 125.14375Q66.25313 124.2375 66.22188 122.425L66.22188 120.9875Q66.22188 119.09688 66.8625 118.19063Q67.51875 117.26875 68.90938 117.26875Q70.28438 117.26875 70.94063 118.15938Q71.59688 119.03438 71.6125 120.87813L71.6125 122.28438ZM70.51875 120.8Q70.51875 119.425 70.12813 118.8Q69.75313 118.15938 68.90938 118.15938Q68.08125 118.15938 67.69063 118.8Q67.31563 119.425 67.31563 120.72188L67.31563 122.45625Q67.31563 123.83125 67.70625 124.50313Q68.1125 125.15938 68.925 125.15938Q69.72188 125.15938 70.1125 124.53438Q70.50313 123.90938 70.51875 122.58125L70.51875 120.8Z" fill-rule="nonzero"/><path fill="#757575" d="M64.44063 60.604164Q64.44063 61.24479 64.09688 61.74479Q63.753124 62.24479 63.190624 62.52604Q63.846874 62.80729 64.2375 63.36979Q64.62813 63.916664 64.62813 64.61979Q64.62813 65.71354 63.878124 66.385414Q63.14375 67.041664 61.925 67.041664Q60.690624 67.041664 59.940624 66.385414Q59.20625 65.71354 59.20625 64.61979Q59.20625 63.916664 59.58125 63.36979Q59.95625 62.80729 60.628124 62.52604Q60.065624 62.24479 59.7375 61.74479Q59.409374 61.24479 59.409374 60.604164Q59.409374 59.52604 60.096874 58.90104Q60.784374 58.260414 61.925 58.260414Q63.05 58.260414 63.7375 58.90104Q64.44063 59.52604 64.44063 60.604164ZM63.55 64.58854Q63.55 63.86979 63.096874 63.43229Q62.64375 62.979164 61.909374 62.979164Q61.175 62.979164 60.721874 63.43229Q60.284374 63.86979 60.284374 64.604164Q60.284374 65.322914 60.721874 65.74479Q61.159374 66.15104 61.925 66.15104Q62.675 66.15104 63.1125 65.729164Q63.55 65.30729 63.55 64.58854ZM61.925 59.15104Q61.284374 59.15104 60.878124 59.55729Q60.4875 59.947914 60.4875 60.635414Q60.4875 61.27604 60.878124 61.68229Q61.26875 62.08854 61.909374 62.08854Q62.565624 62.08854 62.95625 61.68229Q63.346874 61.27604 63.346874 60.635414Q63.346874 59.979164 62.940624 59.572914Q62.534374 59.15104 61.925 59.15104ZM71.6125 63.27604Q71.6125 65.18229 70.95625 66.11979Q70.31563 67.041664 68.925 67.041664Q67.56563 67.041664 66.90938 66.135414Q66.25313 65.229164 66.22188 63.416664L66.22188 61.979164Q66.22188 60.08854 66.8625 59.18229Q67.51875 58.260414 68.90938 58.260414Q70.28438 58.260414 70.94063 59.15104Q71.59688 60.02604 71.6125 61.86979L71.6125 63.27604ZM70.51875 61.791664Q70.51875 60.416664 70.12813 59.791664Q69.75313 59.15104 68.90938 59.15104Q68.08125 59.15104 67.69063 59.791664Q67.31563 60.416664 67.31563 61.71354L67.31563 63.447914Q67.31563 64.822914 67.70625 65.49479Q68.1125 66.15104 68.925 66.15104Q69.72188 66.15104 70.1125 65.52604Q70.50313 64.90104 70.51875 63.572914L70.51875 61.791664Z" fill-rule="nonzero"/><path fill="#757575" d="M217.09375 312.2L219.3125 307.91876L220.59375 307.91876L217.65625 313.2625L217.65625 316.45L216.53125 316.45L216.53125 313.2625L213.59375 307.91876L214.875 307.91876L217.09375 312.2ZM223.95312 316.575Q222.65625 316.575 221.84375 315.73126Q221.04688 314.8719 221.04688 313.45L221.04688 313.2625Q221.04688 312.3094 221.40625 311.575Q221.76562 310.825 222.40625 310.41876Q223.0625 309.9969 223.8125 309.9969Q225.04688 309.9969 225.73438 310.8094Q226.42188 311.6219 226.42188 313.1375L226.42188 313.59064L222.125 313.59064Q222.15625 314.52814 222.67188 315.10626Q223.20312 315.6844 224.01562 315.6844Q224.57812 315.6844 224.96875 315.45Q225.375 315.21564 225.6875 314.825L226.34375 315.34064Q225.54688 316.575 223.95312 316.575ZM223.8125 310.8875Q223.15625 310.8875 222.70312 311.3719Q222.26562 311.84064 222.17188 312.7L225.34375 312.7L225.34375 312.6219Q225.29688 311.79376 224.89062 311.34064Q224.5 310.8875 223.8125 310.8875ZM231.01562 314.7625Q231.01562 314.325 230.67188 314.09064Q230.34375 313.84064 229.51562 313.66876Q228.70312 313.4969 228.21875 313.2469Q227.73438 312.9969 227.5 312.66876Q227.28125 312.325 227.28125 311.85626Q227.28125 311.075 227.9375 310.54376Q228.59375 309.9969 229.625 309.9969Q230.70312 309.9969 231.35938 310.5594Q232.03125 311.10626 232.03125 311.96564L230.95312 311.96564Q230.95312 311.52814 230.5625 311.21564Q230.1875 310.8875 229.625 310.8875Q229.03125 310.8875 228.6875 311.15314Q228.35938 311.40314 228.35938 311.8094Q228.35938 312.2 228.67188 312.40314Q228.98438 312.60626 229.79688 312.79376Q230.60938 312.96564 231.10938 313.21564Q231.60938 313.46564 231.84375 313.825Q232.09375 314.1844 232.09375 314.6844Q232.09375 315.54376 231.40625 316.0594Q230.73438 316.575 229.65625 316.575Q228.89062 316.575 228.29688 316.3094Q227.71875 316.02814 227.39062 315.54376Q227.0625 315.0594 227.0625 314.4969L228.14062 314.4969Q228.17188 315.04376 228.57812 315.3719Q228.98438 315.6844 229.65625 315.6844Q230.26562 315.6844 230.64062 315.4344Q231.01562 315.1844 231.01562 314.7625Z" fill-rule="nonzero"/><path fill="#757575" d="M436.54688 316.45L435.42188 316.45L431.125 309.8719L431.125 316.45L429.98438 316.45L429.98438 307.91876L431.125 307.91876L435.42188 314.52814L435.42188 307.91876L436.54688 307.91876L436.54688 316.45ZM438.53125 313.21564Q438.53125 312.29376 438.89062 311.54376Q439.26562 310.79376 439.92188 310.40314Q440.57812 309.9969 441.40625 309.9969Q442.70312 309.9969 443.5 310.8875Q444.3125 311.77814 444.3125 313.27814L444.3125 313.35626Q444.3125 314.27814 443.95312 315.0125Q443.59375 315.7469 442.9375 316.16876Q442.28125 316.575 441.42188 316.575Q440.14062 316.575 439.32812 315.6844Q438.53125 314.77814 438.53125 313.29376L438.53125 313.21564ZM439.625 313.35626Q439.625 314.40314 440.10938 315.04376Q440.60938 315.6844 441.42188 315.6844Q442.25 315.6844 442.73438 315.04376Q443.21875 314.3875 443.21875 313.21564Q443.21875 312.1844 442.71875 311.54376Q442.23438 310.8875 441.40625 310.8875Q440.60938 310.8875 440.10938 311.52814Q439.625 312.15314 439.625 313.35626Z" fill-rule="nonzero"/><path fill="#757575" d="M30.659374 33.034374Q30.39375 35.3 28.9875 36.534374Q27.596874 37.753124 25.26875 37.753124Q22.753124 37.753124 21.221874 35.940624Q19.70625 34.128124 19.70625 31.096874L19.70625 29.7375Q19.70625 27.753124 20.409374 26.253124Q21.128124 24.753124 22.425 23.940624Q23.721874 23.128124 25.440624 23.128124Q27.70625 23.128124 29.065624 24.39375Q30.440624 25.659374 30.659374 27.89375L28.76875 27.89375Q28.534374 26.20625 27.70625 25.440624Q26.89375 24.675 25.440624 24.675Q23.64375 24.675 22.6125 26.003124Q21.596874 27.33125 21.596874 29.784374L21.596874 31.159374Q21.596874 33.471874 22.565624 34.846874Q23.534374 36.20625 25.26875 36.20625Q26.83125 36.20625 27.659374 35.503124Q28.503124 34.8 28.76875 33.034374L30.659374 33.034374ZM32.440624 32.175Q32.440624 30.6125 33.05 29.378124Q33.659374 28.128124 34.7375 27.45625Q35.83125 26.784374 37.2375 26.784374Q39.39375 26.784374 40.721874 28.284374Q42.065624 29.76875 42.065624 32.253124L42.065624 32.378124Q42.065624 33.925 41.471874 35.159374Q40.878124 36.378124 39.76875 37.065624Q38.675 37.753124 37.253124 37.753124Q35.1125 37.753124 33.76875 36.253124Q32.440624 34.753124 32.440624 32.3L32.440624 32.175ZM34.253124 32.378124Q34.253124 34.14375 35.065624 35.20625Q35.89375 36.26875 37.253124 36.26875Q38.628124 36.26875 39.440624 35.190624Q40.253124 34.1125 40.253124 32.175Q40.253124 30.425 39.425 29.346874Q38.596874 28.26875 37.2375 28.26875Q35.89375 28.26875 35.065624 29.33125Q34.253124 30.39375 34.253124 32.378124ZM50.440624 36.503124Q49.39375 37.753124 47.346874 37.753124Q45.659374 37.753124 44.76875 36.76875Q43.89375 35.784374 43.878124 33.8625L43.878124 26.9875L45.690624 26.9875L45.690624 33.815624Q45.690624 36.20625 47.64375 36.20625Q49.70625 36.20625 50.39375 34.675L50.39375 26.9875L52.20625 26.9875L52.20625 37.55L50.4875 37.55L50.440624 36.503124ZM56.628124 26.9875L56.690624 28.315624Q57.89375 26.784374 59.846874 26.784374Q63.20625 26.784374 63.221874 30.565624L63.221874 37.55L61.425 37.55L61.425 30.55Q61.409374 29.409374 60.89375 28.8625Q60.39375 28.315624 59.3 28.315624Q58.425 28.315624 57.753124 28.784374Q57.096874 29.253124 56.721874 30.01875L56.721874 37.55L54.925 37.55L54.925 26.9875L56.628124 26.9875ZM68.3625 24.425L68.3625 26.9875L70.34688 26.9875L70.34688 28.378124L68.3625 28.378124L68.3625 34.925Q68.3625 35.565624 68.62813 35.89375Q68.89375 36.20625 69.53438 36.20625Q69.84688 36.20625 70.39375 36.08125L70.39375 37.55Q69.675 37.753124 69.00313 37.753124Q67.8 37.753124 67.175 37.01875Q66.56563 36.284374 66.56563 34.925L66.56563 28.378124L64.64375 28.378124L64.64375 26.9875L66.56563 26.9875L66.56563 24.425L68.3625 24.425ZM77.44063 32.175Q77.44063 30.6125 78.05 29.378124Q78.65938 28.128124 79.7375 27.45625Q80.83125 26.784374 82.2375 26.784374Q84.39375 26.784374 85.72188 28.284374Q87.06563 29.76875 87.06563 32.253124L87.06563 32.378124Q87.06563 33.925 86.47188 35.159374Q85.87813 36.378124 84.76875 37.065624Q83.675 37.753124 82.25313 37.753124Q80.1125 37.753124 78.76875 36.253124Q77.44063 34.753124 77.44063 32.3L77.44063 32.175ZM79.25313 32.378124Q79.25313 34.14375 80.06563 35.20625Q80.89375 36.26875 82.25313 36.26875Q83.62813 36.26875 84.44063 35.190624Q85.25313 34.1125 85.25313 32.175Q85.25313 30.425 84.425 29.346874Q83.59688 28.26875 82.2375 28.26875Q80.89375 28.26875 80.06563 29.33125Q79.25313 30.39375 79.25313 32.378124ZM89.8 37.55L89.8 28.378124L88.14375 28.378124L88.14375 26.9875L89.8 26.9875L89.8 25.89375Q89.8 24.20625 90.70625 23.284374Q91.62813 22.346874 93.28438 22.346874Q93.90938 22.346874 94.51875 22.503124L94.425 23.971874Q93.97188 23.89375 93.45625 23.89375Q92.56563 23.89375 92.08125 24.409374Q91.6125 24.909374 91.6125 25.8625L91.6125 26.9875L93.8625 26.9875L93.8625 28.378124L91.6125 28.378124L91.6125 37.55L89.8 37.55ZM109.84688 32.378124Q109.84688 34.8 108.7375 36.284374Q107.64375 37.753124 105.75313 37.753124Q103.83125 37.753124 102.72188 36.51875L102.72188 41.6125L100.925 41.6125L100.925 26.9875L102.56563 26.9875L102.65938 28.159374Q103.75313 26.784374 105.72188 26.784374Q107.62813 26.784374 108.7375 28.221874Q109.84688 29.659374 109.84688 32.221874L109.84688 32.378124ZM108.03438 32.175Q108.03438 30.39375 107.26875 29.3625Q106.51875 28.315624 105.19063 28.315624Q103.55 28.315624 102.72188 29.76875L102.72188 34.83125Q103.53438 36.26875 105.20625 36.26875Q106.50313 36.26875 107.26875 35.2375Q108.03438 34.20625 108.03438 32.175ZM118.44063 37.55Q118.28438 37.2375 118.19063 36.440624Q116.925 37.753124 115.175 37.753124Q113.6125 37.753124 112.6125 36.8625Q111.6125 35.971874 111.6125 34.6125Q111.6125 32.971874 112.8625 32.065624Q114.12813 31.14375 116.39375 31.14375L118.15938 31.14375L118.15938 30.315624Q118.15938 29.3625 117.58125 28.8Q117.01875 28.2375 115.925 28.2375Q114.95625 28.2375 114.3 28.7375Q113.64375 29.221874 113.64375 29.909374L111.83125 29.909374Q111.83125 29.128124 112.39375 28.39375Q112.95625 27.64375 113.90938 27.221874Q114.87813 26.784374 116.03438 26.784374Q117.8625 26.784374 118.89375 27.70625Q119.925 28.6125 119.97188 30.221874L119.97188 35.08125Q119.97188 36.534374 120.33125 37.39375L120.33125 37.55L118.44063 37.55ZM115.44063 36.175Q116.3 36.175 117.05 35.7375Q117.81563 35.3 118.15938 34.596874L118.15938 32.425L116.7375 32.425Q113.425 32.425 113.425 34.3625Q113.425 35.221874 113.9875 35.70625Q114.55 36.175 115.44063 36.175ZM128.01875 28.596874Q127.6125 28.534374 127.14375 28.534374Q125.3625 28.534374 124.72188 30.05L124.72188 37.55L122.925 37.55L122.925 26.9875L124.675 26.9875L124.70625 28.20625Q125.59688 26.784374 127.22188 26.784374Q127.75313 26.784374 128.01875 26.925L128.01875 28.596874ZM132.3625 24.425L132.3625 26.9875L134.34688 26.9875L134.34688 28.378124L132.3625 28.378124L132.3625 34.925Q132.3625 35.565624 132.62813 35.89375Q132.89375 36.20625 133.53438 36.20625Q133.84688 36.20625 134.39375 36.08125L134.39375 37.55Q133.675 37.753124 133.00313 37.753124Q131.8 37.753124 131.175 37.01875Q130.56563 36.284374 130.56563 34.925L130.56563 28.378124L128.64375 28.378124L128.64375 26.9875L130.56563 26.9875L130.56563 24.425L132.3625 24.425ZM138.87813 37.55L137.08125 37.55L137.08125 26.9875L138.87813 26.9875L138.87813 37.55ZM136.925 24.175Q136.925 23.7375 137.19063 23.440624Q137.47188 23.128124 137.9875 23.128124Q138.51875 23.128124 138.78438 23.440624Q139.06563 23.7375 139.06563 24.175Q139.06563 24.6125 138.78438 24.909374Q138.51875 25.20625 137.9875 25.20625Q137.47188 25.20625 137.19063 24.909374Q136.925 24.6125 136.925 24.175ZM146.15938 36.26875Q147.12813 36.26875 147.84688 35.690624Q148.56563 35.096874 148.64375 34.221874L150.3625 34.221874Q150.3 35.128124 149.72188 35.95625Q149.15938 36.76875 148.19063 37.26875Q147.2375 37.753124 146.15938 37.753124Q144.00313 37.753124 142.72188 36.315624Q141.45625 34.8625 141.45625 32.3625L141.45625 32.065624Q141.45625 30.51875 142.01875 29.315624Q142.58125 28.1125 143.64375 27.45625Q144.70625 26.784374 146.14375 26.784374Q147.925 26.784374 149.09688 27.846874Q150.28438 28.909374 150.3625 30.6125L148.64375 30.6125Q148.56563 29.596874 147.8625 28.940624Q147.175 28.26875 146.14375 28.26875Q144.76875 28.26875 144.00313 29.26875Q143.25313 30.253124 143.25313 32.128124L143.25313 32.471874Q143.25313 34.3 144.00313 35.284374Q144.75313 36.26875 146.15938 36.26875ZM153.87813 37.55L152.08125 37.55L152.08125 26.9875L153.87813 26.9875L153.87813 37.55ZM151.925 24.175Q151.925 23.7375 152.19063 23.440624Q152.47188 23.128124 152.9875 23.128124Q153.51875 23.128124 153.78438 23.440624Q154.06563 23.7375 154.06563 24.175Q154.06563 24.6125 153.78438 24.909374Q153.51875 25.20625 152.9875 25.20625Q152.47188 25.20625 152.19063 24.909374Q151.925 24.6125 151.925 24.175ZM165.84688 32.378124Q165.84688 34.8 164.7375 36.284374Q163.64375 37.753124 161.75313 37.753124Q159.83125 37.753124 158.72188 36.51875L158.72188 41.6125L156.925 41.6125L156.925 26.9875L158.56563 26.9875L158.65938 28.159374Q159.75313 26.784374 161.72188 26.784374Q163.62813 26.784374 164.7375 28.221874Q165.84688 29.659374 165.84688 32.221874L165.84688 32.378124ZM164.03438 32.175Q164.03438 30.39375 163.26875 29.3625Q162.51875 28.315624 161.19063 28.315624Q159.55 28.315624 158.72188 29.76875L158.72188 34.83125Q159.53438 36.26875 161.20625 36.26875Q162.50313 36.26875 163.26875 35.2375Q164.03438 34.20625 164.03438 32.175ZM174.44063 37.55Q174.28438 37.2375 174.19063 36.440624Q172.925 37.753124 171.175 37.753124Q169.6125 37.753124 168.6125 36.8625Q167.6125 35.971874 167.6125 34.6125Q167.6125 32.971874 168.8625 32.065624Q170.12813 31.14375 172.39375 31.14375L174.15938 31.14375L174.15938 30.315624Q174.15938 29.3625 173.58125 28.8Q173.01875 28.2375 171.925 28.2375Q170.95625 28.2375 170.3 28.7375Q169.64375 29.221874 169.64375 29.909374L167.83125 29.909374Q167.83125 29.128124 168.39375 28.39375Q168.95625 27.64375 169.90938 27.221874Q170.87813 26.784374 172.03438 26.784374Q173.8625 26.784374 174.89375 27.70625Q175.925 28.6125 175.97188 30.221874L175.97188 35.08125Q175.97188 36.534374 176.33125 37.39375L176.33125 37.55L174.44063 37.55ZM171.44063 36.175Q172.3 36.175 173.05 35.7375Q173.81563 35.3 174.15938 34.596874L174.15938 32.425L172.7375 32.425Q169.425 32.425 169.425 34.3625Q169.425 35.221874 169.9875 35.70625Q170.55 36.175 171.44063 36.175ZM180.62813 26.9875L180.69063 28.315624Q181.89375 26.784374 183.84688 26.784374Q187.20625 26.784374 187.22188 30.565624L187.22188 37.55L185.425 37.55L185.425 30.55Q185.40938 29.409374 184.89375 28.8625Q184.39375 28.315624 183.3 28.315624Q182.425 28.315624 181.75313 28.784374Q181.09688 29.253124 180.72188 30.01875L180.72188 37.55L178.925 37.55L178.925 26.9875L180.62813 26.9875ZM192.3625 24.425L192.3625 26.9875L194.34688 26.9875L194.34688 28.378124L192.3625 28.378124L192.3625 34.925Q192.3625 35.565624 192.62813 35.89375Q192.89375 36.20625 193.53438 36.20625Q193.84688 36.20625 194.39375 36.08125L194.39375 37.55Q193.675 37.753124 193.00313 37.753124Q191.8 37.753124 191.175 37.01875Q190.56563 36.284374 190.56563 34.925L190.56563 28.378124L188.64375 28.378124L188.64375 26.9875L190.56563 26.9875L190.56563 24.425L192.3625 24.425ZM203.06563 34.753124Q203.06563 34.01875 202.51875 33.6125Q201.97188 33.20625 200.59688 32.909374Q199.22188 32.6125 198.40938 32.20625Q197.6125 31.8 197.22188 31.2375Q196.84688 30.659374 196.84688 29.878124Q196.84688 28.58125 197.94063 27.690624Q199.03438 26.784374 200.75313 26.784374Q202.55 26.784374 203.65938 27.721874Q204.78438 28.64375 204.78438 30.08125L202.95625 30.08125Q202.95625 29.346874 202.33125 28.815624Q201.70625 28.26875 200.75313 28.26875Q199.75313 28.26875 199.19063 28.70625Q198.64375 29.128124 198.64375 29.83125Q198.64375 30.471874 199.15938 30.815624Q199.675 31.14375 201.03438 31.45625Q202.39375 31.753124 203.22188 32.175Q204.06563 32.58125 204.47188 33.175Q204.87813 33.76875 204.87813 34.6125Q204.87813 36.034374 203.7375 36.89375Q202.6125 37.753124 200.8 37.753124Q199.53438 37.753124 198.55 37.3Q197.58125 36.846874 197.01875 36.05Q196.47188 35.2375 196.47188 34.3L198.28438 34.3Q198.33125 35.20625 199.00313 35.7375Q199.69063 36.26875 200.8 36.26875Q201.83125 36.26875 202.44063 35.8625Q203.06563 35.440624 203.06563 34.753124ZM221.26875 35.065624L223.3 26.9875L225.1125 26.9875L222.03438 37.55L220.56563 37.55L218.00313 29.534374L215.50313 37.55L214.03438 37.55L210.97188 26.9875L212.76875 26.9875L214.84688 34.89375L217.31563 26.9875L218.76875 26.9875L221.26875 35.065624ZM228.72188 28.26875Q229.925 26.784374 231.84688 26.784374Q235.20625 26.784374 235.22188 30.565624L235.22188 37.55L233.425 37.55L233.425 30.55Q233.40938 29.409374 232.89375 28.8625Q232.39375 28.315624 231.3 28.315624Q230.425 28.315624 229.75313 28.784374Q229.09688 29.253124 228.72188 30.01875L228.72188 37.55L226.925 37.55L226.925 22.55L228.72188 22.55L228.72188 28.26875ZM237.44063 32.175Q237.44063 30.6125 238.05 29.378124Q238.65938 28.128124 239.7375 27.45625Q240.83125 26.784374 242.2375 26.784374Q244.39375 26.784374 245.72188 28.284374Q247.06563 29.76875 247.06563 32.253124L247.06563 32.378124Q247.06563 33.925 246.47188 35.159374Q245.87813 36.378124 244.76875 37.065624Q243.675 37.753124 242.25313 37.753124Q240.1125 37.753124 238.76875 36.253124Q237.44063 34.753124 237.44063 32.3L237.44063 32.175ZM239.25313 32.378124Q239.25313 34.14375 240.06563 35.20625Q240.89375 36.26875 242.25313 36.26875Q243.62813 36.26875 244.44063 35.190624Q245.25313 34.1125 245.25313 32.175Q245.25313 30.425 244.425 29.346874Q243.59688 28.26875 242.2375 28.26875Q240.89375 28.26875 240.06563 29.33125Q239.25313 30.39375 239.25313 32.378124ZM255.72188 28.26875Q256.925 26.784374 258.84686 26.784374Q262.20624 26.784374 262.22186 30.565624L262.22186 37.55L260.425 37.55L260.425 30.55Q260.40936 29.409374 259.89374 28.8625Q259.39374 28.315624 258.3 28.315624Q257.425 28.315624 256.7531 28.784374Q256.09686 29.253124 255.72188 30.01875L255.72188 37.55L253.925 37.55L253.925 22.55L255.72188 22.55L255.72188 28.26875ZM271.4406 37.55Q271.28436 37.2375 271.1906 36.440624Q269.925 37.753124 268.175 37.753124Q266.6125 37.753124 265.6125 36.8625Q264.6125 35.971874 264.6125 34.6125Q264.6125 32.971874 265.8625 32.065624Q267.1281 31.14375 269.39374 31.14375L271.15936 31.14375L271.15936 30.315624Q271.15936 29.3625 270.58124 28.8Q270.01874 28.2375 268.925 28.2375Q267.95624 28.2375 267.3 28.7375Q266.64374 29.221874 266.64374 29.909374L264.83124 29.909374Q264.83124 29.128124 265.39374 28.39375Q265.95624 27.64375 266.90936 27.221874Q267.8781 26.784374 269.03436 26.784374Q270.8625 26.784374 271.89374 27.70625Q272.925 28.6125 272.97186 30.221874L272.97186 35.08125Q272.97186 36.534374 273.33124 37.39375L273.33124 37.55L271.4406 37.55ZM268.4406 36.175Q269.3 36.175 270.05 35.7375Q270.8156 35.3 271.15936 34.596874L271.15936 32.425L269.7375 32.425Q266.425 32.425 266.425 34.3625Q266.425 35.221874 266.9875 35.70625Q267.55 36.175 268.4406 36.175ZM279.40936 35.096874L282.01874 26.9875L283.8625 26.9875L280.08124 37.55L278.70624 37.55L274.8781 26.9875L276.72186 26.9875L279.40936 35.096874ZM290.3 37.753124Q288.15936 37.753124 286.8 36.346874Q285.45624 34.925 285.45624 32.565624L285.45624 32.221874Q285.45624 30.659374 286.05 29.425Q286.65936 28.190624 287.7375 27.4875Q288.8156 26.784374 290.08124 26.784374Q292.14374 26.784374 293.28436 28.14375Q294.425 29.503124 294.425 32.034374L294.425 32.784374L287.26874 32.784374Q287.3 34.346874 288.175 35.315624Q289.05 36.26875 290.39374 36.26875Q291.3625 36.26875 292.01874 35.878124Q292.6906 35.4875 293.1906 34.846874L294.28436 35.70625Q292.95624 37.753124 290.3 37.753124ZM290.08124 28.26875Q288.9875 28.26875 288.2375 29.065624Q287.5031 29.8625 287.33124 31.3L292.6125 31.3L292.6125 31.159374Q292.53436 29.784374 291.8625 29.034374Q291.20624 28.26875 290.08124 28.26875ZM308.4406 37.55Q308.28436 37.2375 308.1906 36.440624Q306.925 37.753124 305.175 37.753124Q303.6125 37.753124 302.6125 36.8625Q301.6125 35.971874 301.6125 34.6125Q301.6125 32.971874 302.8625 32.065624Q304.1281 31.14375 306.39374 31.14375L308.15936 31.14375L308.15936 30.315624Q308.15936 29.3625 307.58124 28.8Q307.01874 28.2375 305.925 28.2375Q304.95624 28.2375 304.3 28.7375Q303.64374 29.221874 303.64374 29.909374L301.83124 29.909374Q301.83124 29.128124 302.39374 28.39375Q302.95624 27.64375 303.90936 27.221874Q304.8781 26.784374 306.03436 26.784374Q307.8625 26.784374 308.89374 27.70625Q309.925 28.6125 309.97186 30.221874L309.97186 35.08125Q309.97186 36.534374 310.33124 37.39375L310.33124 37.55L308.4406 37.55ZM305.4406 36.175Q306.3 36.175 307.05 35.7375Q307.8156 35.3 308.15936 34.596874L308.15936 32.425L306.7375 32.425Q303.425 32.425 303.425 34.3625Q303.425 35.221874 303.9875 35.70625Q304.55 36.175 305.4406 36.175ZM322.15936 36.26875Q323.1281 36.26875 323.84686 35.690624Q324.5656 35.096874 324.64374 34.221874L326.3625 34.221874Q326.3 35.128124 325.72186 35.95625Q325.15936 36.76875 324.1906 37.26875Q323.2375 37.753124 322.15936 37.753124Q320.0031 37.753124 318.72186 36.315624Q317.45624 34.8625 317.45624 32.3625L317.45624 32.065624Q317.45624 30.51875 318.01874 29.315624Q318.58124 28.1125 319.64374 27.45625Q320.70624 26.784374 322.14374 26.784374Q323.925 26.784374 325.09686 27.846874Q326.28436 28.909374 326.3625 30.6125L324.64374 30.6125Q324.5656 29.596874 323.8625 28.940624Q323.175 28.26875 322.14374 28.26875Q320.76874 28.26875 320.0031 29.26875Q319.2531 30.253124 319.2531 32.128124L319.2531 32.471874Q319.2531 34.3 320.0031 35.284374Q320.7531 36.26875 322.15936 36.26875ZM334.4406 37.55Q334.28436 37.2375 334.1906 36.440624Q332.925 37.753124 331.175 37.753124Q329.6125 37.753124 328.6125 36.8625Q327.6125 35.971874 327.6125 34.6125Q327.6125 32.971874 328.8625 32.065624Q330.1281 31.14375 332.39374 31.14375L334.15936 31.14375L334.15936 30.315624Q334.15936 29.3625 333.58124 28.8Q333.01874 28.2375 331.925 28.2375Q330.95624 28.2375 330.3 28.7375Q329.64374 29.221874 329.64374 29.909374L327.83124 29.909374Q327.83124 29.128124 328.39374 28.39375Q328.95624 27.64375 329.90936 27.221874Q330.8781 26.784374 332.03436 26.784374Q333.8625 26.784374 334.89374 27.70625Q335.925 28.6125 335.97186 30.221874L335.97186 35.08125Q335.97186 36.534374 336.33124 37.39375L336.33124 37.55L334.4406 37.55ZM331.4406 36.175Q332.3 36.175 333.05 35.7375Q333.8156 35.3 334.15936 34.596874L334.15936 32.425L332.7375 32.425Q329.425 32.425 329.425 34.3625Q329.425 35.221874 329.9875 35.70625Q330.55 36.175 331.4406 36.175ZM344.01874 28.596874Q343.6125 28.534374 343.14374 28.534374Q341.3625 28.534374 340.72186 30.05L340.72186 37.55L338.925 37.55L338.925 26.9875L340.675 26.9875L340.70624 28.20625Q341.59686 26.784374 343.22186 26.784374Q343.7531 26.784374 344.01874 26.925L344.01874 28.596874ZM348.03436 33.55Q348.05 32.378124 348.3 31.70625Q348.55 31.034374 349.3 30.221874L350.58124 28.89375Q351.39374 27.971874 351.39374 26.909374Q351.39374 25.878124 350.84686 25.3Q350.3156 24.721874 349.3 24.721874Q348.3 24.721874 347.6906 25.253124Q347.09686 25.76875 347.09686 26.659374L345.28436 26.659374Q345.3 25.08125 346.40936 24.1125Q347.51874 23.128124 349.3 23.128124Q351.14374 23.128124 352.175 24.128124Q353.20624 25.1125 353.20624 26.846874Q353.20624 28.55 351.6281 30.221874L350.55 31.26875Q349.84686 32.065624 349.84686 33.55L348.03436 33.55ZM347.95624 36.64375Q347.95624 36.20625 348.22186 35.909374Q348.5031 35.6125 349.01874 35.6125Q349.55 35.6125 349.8156 35.909374Q350.09686 36.20625 350.09686 36.64375Q350.09686 37.08125 349.8156 37.378124Q349.55 37.659374 349.01874 37.659374Q348.5031 37.659374 348.22186 37.378124Q347.95624 37.08125 347.95624 36.64375Z" fill-rule="nonzero"/></svg>