<svg version="1.1" viewBox="0.0 0.0 600.0 371.0" fill="none" stroke="none" stroke-linecap="square" stroke-miterlimit="10" width="600" height="371" xmlns:xlink="http://www.w3.org/1999/xlink" xmlns="http://www.w3.org/2000/svg"><path fill="#ffffff" d="M0 0L600.0 0L600.0 371.0L0 371.0L0 0Z" fill-rule="nonzero"/><path fill="#4285f4" d="M300.0 54.916668C341.32748 54.916668 380.7925 72.108055 408.93716 102.37087C437.08185 132.6337 451.36942 173.2403 448.3759 214.45921L300.0 203.68333Z" fill-rule="nonzero"/><path fill="#0f9d58" d="M271.41794 57.68817C280.83365 55.844826 290.40558 54.916668 300.0 54.916668L300.0 203.68333Z" fill-rule="nonzero"/><path fill="#f4b400" d="M156.45868 242.76544C145.60165 202.88956 151.82144 160.29442 173.62749 125.18805C195.43353 90.08169 230.8604 65.62828 271.41794 57.68817L300.0 203.68333Z" fill-rule="nonzero"/><path fill="#db4437" d="M448.3759 214.45921C443.12454 286.76602 386.51685 344.7585 314.35806 351.7555C242.19925 358.7525 175.50424 312.71625 156.45868 242.76544L300.0 203.68333Z" fill-rule="nonzero"/><path fill="#757575" d="M25.440624 59.30729L22.690624 59.30729L22.690624 66.916664L21.58125 66.916664L21.58125 59.30729L18.83125 59.30729L18.83125 58.385414L25.440624 58.385414L25.440624 59.30729ZM29.440624 61.541664Q29.190624 61.510414 28.909374 61.510414Q27.83125 61.510414 27.45625 62.416664L27.45625 66.916664L26.378124 66.916664L26.378124 60.572914L27.425 60.572914L27.440624 61.30729Q27.971874 60.46354 28.95625 60.46354Q29.26875 60.46354 29.440624 60.541664L29.440624 61.541664ZM34.284374 66.291664Q33.659374 67.041664 32.425 67.041664Q31.409374 67.041664 30.878124 66.447914Q30.346874 65.854164 30.346874 64.697914L30.346874 60.572914L31.425 60.572914L31.425 64.666664Q31.425 66.11979 32.596874 66.11979Q33.846874 66.11979 34.253124 65.18229L34.253124 60.572914L35.346874 60.572914L35.346874 66.916664L34.315624 66.916664L34.284374 66.291664ZM39.909374 66.15104Q40.4875 66.15104 40.925 65.80729Q41.3625 65.447914 41.409374 64.916664L42.440624 64.916664Q42.409374 65.46354 42.05 65.96354Q41.70625 66.447914 41.128124 66.74479Q40.565624 67.041664 39.909374 67.041664Q38.6125 67.041664 37.846874 66.18229Q37.096874 65.30729 37.096874 63.80729L37.096874 63.61979Q37.096874 62.697914 37.425 61.979164Q37.76875 61.260414 38.39375 60.86979Q39.034374 60.46354 39.909374 60.46354Q40.971874 60.46354 41.675 61.104164Q42.39375 61.729164 42.440624 62.760414L41.409374 62.760414Q41.3625 62.135414 40.940624 61.74479Q40.51875 61.354164 39.909374 61.354164Q39.08125 61.354164 38.628124 61.947914Q38.175 62.541664 38.175 63.666664L38.175 63.86979Q38.175 64.96354 38.628124 65.55729Q39.08125 66.15104 39.909374 66.15104ZM45.14375 63.979164L44.45625 64.68229L44.45625 66.916664L43.378124 66.916664L43.378124 57.916664L44.45625 57.916664L44.45625 63.354164L45.034374 62.666664L47.01875 60.572914L48.33125 60.572914L45.8625 63.229164L48.628124 66.916664L47.346874 66.916664L45.14375 63.979164Z" fill-rule="nonzero"/><path fill="#9e9e9e" d="M20.83125 80.11979L21.64375 80.11979Q22.425 80.104164 22.8625 79.71354Q23.3 79.322914 23.3 78.65104Q23.3 77.15104 21.8 77.15104Q21.096874 77.15104 20.675 77.55729Q20.26875 77.96354 20.26875 78.61979L19.175 78.61979Q19.175 77.604164 19.909374 76.93229Q20.659374 76.260414 21.8 76.260414Q23.003124 76.260414 23.690624 76.90104Q24.378124 77.541664 24.378124 78.68229Q24.378124 79.24479 24.01875 79.760414Q23.659374 80.27604 23.034374 80.541664Q23.7375 80.760414 24.1125 81.27604Q24.503124 81.791664 24.503124 82.541664Q24.503124 83.68229 23.753124 84.36979Q23.003124 85.041664 21.8 85.041664Q20.6125 85.041664 19.846874 84.385414Q19.096874 83.729164 19.096874 82.666664L20.190624 82.666664Q20.190624 83.33854 20.628124 83.74479Q21.065624 84.15104 21.815624 84.15104Q22.596874 84.15104 23.003124 83.74479Q23.425 83.322914 23.425 82.55729Q23.425 81.822914 22.971874 81.43229Q22.51875 81.02604 21.64375 81.010414L20.83125 81.010414L20.83125 80.11979ZM26.39375 84.354164Q26.39375 84.072914 26.55 83.885414Q26.721874 83.697914 27.05 83.697914Q27.39375 83.697914 27.565624 83.885414Q27.7375 84.072914 27.7375 84.354164Q27.7375 84.61979 27.565624 84.80729Q27.39375 84.979164 27.05 84.979164Q26.721874 84.979164 26.55 84.80729Q26.39375 84.61979 26.39375 84.354164ZM32.815624 84.916664L31.7375 84.916664L31.7375 77.697914L29.55 78.49479L29.55 77.510414L32.659374 76.33854L32.815624 76.33854L32.815624 84.916664ZM36.159374 78.02604Q36.159374 77.260414 36.64375 76.760414Q37.14375 76.260414 37.909374 76.260414Q38.690624 76.260414 39.175 76.760414Q39.659374 77.260414 39.659374 78.05729L39.659374 78.479164Q39.659374 79.24479 39.159374 79.74479Q38.675 80.229164 37.925 80.229164Q37.159374 80.229164 36.659374 79.74479Q36.159374 79.24479 36.159374 78.43229L36.159374 78.02604ZM36.971874 78.479164Q36.971874 78.93229 37.221874 79.229164Q37.4875 79.52604 37.925 79.52604Q38.346874 79.52604 38.596874 79.24479Q38.846874 78.947914 38.846874 78.447914L38.846874 78.02604Q38.846874 77.572914 38.596874 77.27604Q38.346874 76.96354 37.909374 76.96354Q37.471874 76.96354 37.221874 77.27604Q36.971874 77.572914 36.971874 78.041664L36.971874 78.479164ZM40.315624 82.822914Q40.315624 82.05729 40.8 81.572914Q41.3 81.072914 42.065624 81.072914Q42.83125 81.072914 43.315624 81.572914Q43.815624 82.05729 43.815624 82.86979L43.815624 83.27604Q43.815624 84.041664 43.33125 84.541664Q42.846874 85.041664 42.08125 85.041664Q41.315624 85.041664 40.815624 84.55729Q40.315624 84.05729 40.315624 83.24479L40.315624 82.822914ZM41.128124 83.27604Q41.128124 83.74479 41.378124 84.041664Q41.64375 84.33854 42.08125 84.33854Q42.503124 84.33854 42.753124 84.05729Q43.003124 83.760414 43.003124 83.260414L43.003124 82.822914Q43.003124 82.354164 42.7375 82.072914Q42.4875 81.77604 42.065624 81.77604Q41.64375 81.77604 41.378124 82.072914Q41.128124 82.354164 41.128124 82.854164L41.128124 83.27604ZM38.175 84.27604L37.55 83.885414L41.721874 77.21354L42.33125 77.604164L38.175 84.27604Z" fill-rule="nonzero"/><path stroke="#757575" stroke-width="1.0" stroke-linecap="butt" d="M18.55 71.416664L145.23334 71.416664L286.35986 63.01477" fill-rule="nonzero"/><path fill="#9e9e9e" d="M288.35986 63.01477C288.35986 61.910202 287.46442 61.01477 286.35986 61.01477C285.25528 61.01477 284.35986 61.910202 284.35986 63.01477C284.35986 64.11934 285.25528 65.01477 286.35986 65.01477C287.46442 65.01477 288.35986 64.11934 288.35986 63.01477" fill-rule="nonzero"/><path fill="#757575" d="M22.05 120.81594Q20.6125 120.394066 19.940624 119.78469Q19.284374 119.175316 19.284374 118.28469Q19.284374 117.28469 20.08125 116.62844Q20.89375 115.956566 22.190624 115.956566Q23.065624 115.956566 23.753124 116.300316Q24.440624 116.644066 24.815624 117.237816Q25.20625 117.831566 25.20625 118.550316L24.065624 118.550316Q24.065624 117.769066 23.565624 117.331566Q23.08125 116.894066 22.190624 116.894066Q21.3625 116.894066 20.89375 117.269066Q20.425 117.62844 20.425 118.269066Q20.425 118.800316 20.8625 119.15969Q21.315624 119.519066 22.378124 119.81594Q23.440624 120.112816 24.034374 120.47219Q24.64375 120.831566 24.925 121.31594Q25.221874 121.800316 25.221874 122.44094Q25.221874 123.487816 24.409374 124.112816Q23.596874 124.737816 22.253124 124.737816Q21.3625 124.737816 20.596874 124.394066Q19.846874 124.050316 19.425 123.47219Q19.01875 122.87844 19.01875 122.144066L20.14375 122.144066Q20.14375 122.90969 20.721874 123.362816Q21.3 123.81594 22.253124 123.81594Q23.14375 123.81594 23.6125 123.456566Q24.08125 123.081566 24.08125 122.456566Q24.08125 121.831566 23.64375 121.487816Q23.20625 121.144066 22.05 120.81594ZM32.55 116.081566L32.55 121.87844Q32.534374 123.081566 31.784374 123.862816Q31.034374 124.62844 29.753124 124.72219L29.440624 124.737816Q28.05 124.737816 27.20625 123.987816Q26.378124 123.22219 26.378124 121.894066L26.378124 116.081566L27.4875 116.081566L27.4875 121.862816Q27.4875 122.78469 27.9875 123.300316Q28.503124 123.81594 29.440624 123.81594Q30.409374 123.81594 30.909374 123.300316Q31.409374 122.78469 31.409374 121.862816L31.409374 116.081566L32.55 116.081566ZM37.3625 123.112816L39.8 116.081566L41.034374 116.081566L37.8625 124.612816L36.878124 124.612816L33.721874 116.081566L34.940624 116.081566L37.3625 123.112816Z" fill-rule="nonzero"/><path fill="#9e9e9e" d="M24.846874 142.61282L19.253124 142.61282L19.253124 141.83157L22.20625 138.55032Q22.8625 137.80032 23.1125 137.3472Q23.3625 136.87845 23.3625 136.37845Q23.3625 135.70657 22.95625 135.2847Q22.565624 134.8472 21.878124 134.8472Q21.08125 134.8472 20.628124 135.31595Q20.175 135.76907 20.175 136.5972L19.096874 136.5972Q19.096874 135.4097 19.846874 134.69095Q20.6125 133.95657 21.878124 133.95657Q23.08125 133.95657 23.76875 134.58157Q24.45625 135.20657 24.45625 136.25345Q24.45625 137.50345 22.846874 139.25345L20.565624 141.7222L24.846874 141.7222L24.846874 142.61282ZM30.51875 134.08157L30.51875 134.98782L30.315624 134.98782Q29.05 135.01907 28.3 135.75345Q27.55 136.4722 27.425 137.7847Q28.1125 137.01907 29.26875 137.01907Q30.378124 137.01907 31.05 137.80032Q31.721874 138.58157 31.721874 139.83157Q31.721874 141.14407 31.003124 141.94095Q30.284374 142.73782 29.065624 142.73782Q27.846874 142.73782 27.08125 141.80032Q26.33125 140.8472 26.33125 139.36282L26.33125 138.95657Q26.33125 136.5972 27.33125 135.3472Q28.33125 134.0972 30.315624 134.08157L30.51875 134.08157ZM29.096874 137.92532Q28.534374 137.92532 28.065624 138.25345Q27.596874 138.58157 27.409374 139.0972L27.409374 139.48782Q27.409374 140.55032 27.878124 141.19095Q28.3625 141.83157 29.065624 141.83157Q29.8 141.83157 30.221874 141.30032Q30.64375 140.75345 30.64375 139.87845Q30.64375 139.00345 30.221874 138.4722Q29.8 137.92532 29.096874 137.92532ZM33.39375 142.05032Q33.39375 141.76907 33.55 141.58157Q33.721874 141.39407 34.05 141.39407Q34.39375 141.39407 34.565624 141.58157Q34.7375 141.76907 34.7375 142.05032Q34.7375 142.31595 34.565624 142.50345Q34.39375 142.67532 34.05 142.67532Q33.721874 142.67532 33.55 142.50345Q33.39375 142.31595 33.39375 142.05032ZM41.846874 142.61282L36.253124 142.61282L36.253124 141.83157L39.20625 138.55032Q39.8625 137.80032 40.1125 137.3472Q40.3625 136.87845 40.3625 136.37845Q40.3625 135.70657 39.95625 135.2847Q39.565624 134.8472 38.878124 134.8472Q38.08125 134.8472 37.628124 135.31595Q37.175 135.76907 37.175 136.5972L36.096874 136.5972Q36.096874 135.4097 36.846874 134.69095Q37.6125 133.95657 38.878124 133.95657Q40.08125 133.95657 40.76875 134.58157Q41.45625 135.20657 41.45625 136.25345Q41.45625 137.50345 39.846874 139.25345L37.565624 141.7222L41.846874 141.7222L41.846874 142.61282ZM43.159374 135.7222Q43.159374 134.95657 43.64375 134.45657Q44.14375 133.95657 44.909374 133.95657Q45.690624 133.95657 46.175 134.45657Q46.659374 134.95657 46.659374 135.75345L46.659374 136.17532Q46.659374 136.94095 46.159374 137.44095Q45.675 137.92532 44.925 137.92532Q44.159374 137.92532 43.659374 137.44095Q43.159374 136.94095 43.159374 136.12845L43.159374 135.7222ZM43.971874 136.17532Q43.971874 136.62845 44.221874 136.92532Q44.4875 137.2222 44.925 137.2222Q45.346874 137.2222 45.596874 136.94095Q45.846874 136.64407 45.846874 136.14407L45.846874 135.7222Q45.846874 135.26907 45.596874 134.9722Q45.346874 134.6597 44.909374 134.6597Q44.471874 134.6597 44.221874 134.9722Q43.971874 135.26907 43.971874 135.73782L43.971874 136.17532ZM47.315624 140.51907Q47.315624 139.75345 47.8 139.26907Q48.3 138.76907 49.065624 138.76907Q49.83125 138.76907 50.315624 139.26907Q50.815624 139.75345 50.815624 140.56595L50.815624 140.9722Q50.815624 141.73782 50.33125 142.23782Q49.846874 142.73782 49.08125 142.73782Q48.315624 142.73782 47.815624 142.25345Q47.315624 141.75345 47.315624 140.94095L47.315624 140.51907ZM48.128124 140.9722Q48.128124 141.44095 48.378124 141.73782Q48.64375 142.0347 49.08125 142.0347Q49.503124 142.0347 49.753124 141.75345Q50.003124 141.45657 50.003124 140.95657L50.003124 140.51907Q50.003124 140.05032 49.7375 139.76907Q49.4875 139.4722 49.065624 139.4722Q48.64375 139.4722 48.378124 139.76907Q48.128124 140.05032 48.128124 140.55032L48.128124 140.9722ZM45.175 141.9722L44.55 141.58157L48.721874 134.9097L49.33125 135.30032L45.175 141.9722Z" fill-rule="nonzero"/><path stroke="#757575" stroke-width="1.0" stroke-linecap="butt" d="M18.55 129.11282L145.23334 129.11282L179.9461 129.11282" fill-rule="nonzero"/><path fill="#9e9e9e" d="M181.9461 129.11282C181.9461 128.00826 181.05067 127.112816 179.9461 127.112816C178.84154 127.112816 177.9461 128.00826 177.9461 129.11282C177.9461 130.21739 178.84154 131.11282 179.9461 131.11282C181.05067 131.11282 181.9461 130.21739 181.9461 129.11282" fill-rule="nonzero"/><path fill="#757575" d="M526.71564 100.233376Q526.5594 101.577126 525.71564 102.327126Q524.8719 103.0615 523.48126 103.0615Q521.96564 103.0615 521.0594 101.983376Q520.15314 100.889626 520.15314 99.0615L520.15314 98.249Q520.15314 97.0615 520.575 96.15525Q520.9969 95.249 521.77814 94.764626Q522.5594 94.28025 523.575 94.28025Q524.9344 94.28025 525.7469 95.045876Q526.575 95.8115 526.71564 97.139626L525.59064 97.139626Q525.4344 96.124 524.95 95.670876Q524.46564 95.21775 523.575 95.21775Q522.4969 95.21775 521.8875 96.014626Q521.27814 96.8115 521.27814 98.28025L521.27814 99.108376Q521.27814 100.499 521.85626 101.327126Q522.4344 102.139626 523.48126 102.139626Q524.41876 102.139626 524.91876 101.71775Q525.41876 101.28025 525.59064 100.233376L526.71564 100.233376ZM532.1844 102.9365Q532.09064 102.749 532.02814 102.264626Q531.27814 103.0615 530.23126 103.0615Q529.29376 103.0615 528.6844 102.53025Q528.09064 101.999 528.09064 101.170876Q528.09064 100.1865 528.84064 99.639626Q529.59064 99.09275 530.96564 99.09275L532.0125 99.09275L532.0125 98.59275Q532.0125 98.03025 531.66876 97.702126Q531.34064 97.358376 530.66876 97.358376Q530.09064 97.358376 529.7 97.65525Q529.3094 97.9365 529.3094 98.358376L528.21564 98.358376Q528.21564 97.874 528.54376 97.4365Q528.8875 96.999 529.46564 96.749Q530.04376 96.483376 530.73126 96.483376Q531.84064 96.483376 532.45 97.03025Q533.075 97.577126 533.10626 98.53025L533.10626 101.452126Q533.10626 102.327126 533.325 102.84275L533.325 102.9365L532.1844 102.9365ZM530.3875 102.108376Q530.90314 102.108376 531.35626 101.84275Q531.8094 101.577126 532.0125 101.15525L532.0125 99.858376L531.16876 99.858376Q529.16876 99.858376 529.16876 101.03025Q529.16876 101.53025 529.5125 101.827126Q529.85626 102.108376 530.3875 102.108376ZM538.34064 97.5615Q538.09064 97.53025 537.8094 97.53025Q536.73126 97.53025 536.35626 98.4365L536.35626 102.9365L535.27814 102.9365L535.27814 96.59275L536.325 96.59275L536.34064 97.327126Q536.8719 96.483376 537.85626 96.483376Q538.16876 96.483376 538.34064 96.5615L538.34064 97.5615ZM539.23126 99.46775Q539.23126 98.15525 539.575 96.9365Q539.9344 95.71775 540.6375 94.71775Q541.34064 93.71775 542.10626 93.3115L542.325 94.03025Q541.46564 94.6865 540.91876 96.03025Q540.3719 97.374 540.325 99.045876L540.3094 99.545876Q540.3094 101.8115 541.1375 103.46775Q541.6375 104.46775 542.325 105.03025L542.10626 105.6865Q541.325 105.264626 540.60626 104.233376Q539.23126 102.249 539.23126 99.46775ZM549.71564 100.233376Q549.5594 101.577126 548.71564 102.327126Q547.8719 103.0615 546.48126 103.0615Q544.96564 103.0615 544.0594 101.983376Q543.15314 100.889626 543.15314 99.0615L543.15314 98.249Q543.15314 97.0615 543.575 96.15525Q543.9969 95.249 544.77814 94.764626Q545.5594 94.28025 546.575 94.28025Q547.9344 94.28025 548.7469 95.045876Q549.575 95.8115 549.71564 97.139626L548.59064 97.139626Q548.4344 96.124 547.95 95.670876Q547.46564 95.21775 546.575 95.21775Q545.4969 95.21775 544.8875 96.014626Q544.27814 96.8115 544.27814 98.28025L544.27814 99.108376Q544.27814 100.499 544.85626 101.327126Q545.4344 102.139626 546.48126 102.139626Q547.41876 102.139626 547.91876 101.71775Q548.41876 101.28025 548.59064 100.233376L549.71564 100.233376ZM550.98126 99.702126Q550.98126 98.78025 551.34064 98.03025Q551.71564 97.28025 552.3719 96.889626Q553.02814 96.483376 553.85626 96.483376Q555.15314 96.483376 555.95 97.374Q556.7625 98.264626 556.7625 99.764626L556.7625 99.84275Q556.7625 100.764626 556.40314 101.499Q556.04376 102.233376 555.3875 102.65525Q554.73126 103.0615 553.8719 103.0615Q552.59064 103.0615 551.77814 102.170876Q550.98126 101.264626 550.98126 99.78025L550.98126 99.702126ZM552.075 99.84275Q552.075 100.889626 552.5594 101.53025Q553.0594 102.170876 553.8719 102.170876Q554.7 102.170876 555.1844 101.53025Q555.66876 100.874 555.66876 99.702126Q555.66876 98.670876 555.16876 98.03025Q554.6844 97.374 553.85626 97.374Q553.0594 97.374 552.5594 98.014626Q552.075 98.639626 552.075 99.84275ZM562.1844 102.3115Q561.5594 103.0615 560.325 103.0615Q559.3094 103.0615 558.77814 102.46775Q558.2469 101.874 558.2469 100.71775L558.2469 96.59275L559.325 96.59275L559.325 100.6865Q559.325 102.139626 560.4969 102.139626Q561.7469 102.139626 562.15314 101.202126L562.15314 96.59275L563.2469 96.59275L563.2469 102.9365L562.21564 102.9365L562.1844 102.3115ZM570.6219 99.84275Q570.6219 101.28025 569.96564 102.170876Q569.3094 103.0615 568.16876 103.0615Q567.0125 103.0615 566.35626 102.327126L566.35626 105.374L565.27814 105.374L565.27814 96.59275L566.2625 96.59275L566.3094 97.295876Q566.98126 96.483376 568.15314 96.483376Q569.29376 96.483376 569.95 97.34275Q570.6219 98.202126 570.6219 99.733376L570.6219 99.84275ZM569.54376 99.71775Q569.54376 98.639626 569.075 98.03025Q568.6219 97.40525 567.825 97.40525Q566.84064 97.40525 566.35626 98.264626L566.35626 101.295876Q566.84064 102.170876 567.84064 102.170876Q568.6219 102.170876 569.075 101.5615Q569.54376 100.9365 569.54376 99.71775ZM574.90314 103.0615Q573.60626 103.0615 572.79376 102.21775Q571.9969 101.358376 571.9969 99.9365L571.9969 99.749Q571.9969 98.795876 572.35626 98.0615Q572.71564 97.3115 573.35626 96.90525Q574.0125 96.483376 574.7625 96.483376Q575.9969 96.483376 576.6844 97.295876Q577.3719 98.108376 577.3719 99.624L577.3719 100.077126L573.075 100.077126Q573.10626 101.014626 573.6219 101.59275Q574.15314 102.170876 574.96564 102.170876Q575.52814 102.170876 575.91876 101.9365Q576.325 101.702126 576.6375 101.3115L577.29376 101.827126Q576.4969 103.0615 574.90314 103.0615ZM574.7625 97.374Q574.10626 97.374 573.65314 97.858376Q573.21564 98.327126 573.1219 99.1865L576.29376 99.1865L576.29376 99.108376Q576.2469 98.28025 575.84064 97.827126Q575.45 97.374 574.7625 97.374ZM580.77814 99.53025Q580.77814 100.84275 580.4344 102.045876Q580.09064 103.233376 579.3719 104.249Q578.66876 105.264626 577.90314 105.6865L577.66876 105.03025Q578.575 104.34275 579.1219 102.889626Q579.66876 101.420876 579.6844 99.65525L579.6844 99.46775Q579.6844 98.233376 579.41876 97.170876Q579.16876 96.108376 578.7 95.28025Q578.2469 94.4365 577.66876 93.96775L577.90314 93.3115Q578.66876 93.733376 579.3719 94.733376Q580.075 95.733376 580.41876 96.952126Q580.77814 98.15525 580.77814 99.53025Z" fill-rule="nonzero"/><path fill="#9e9e9e" d="M554.7469 120.9365L549.15314 120.9365L549.15314 120.15525L552.10626 116.874Q552.7625 116.124 553.0125 115.670876Q553.2625 115.202126 553.2625 114.702126Q553.2625 114.03025 552.85626 113.608376Q552.46564 113.170876 551.77814 113.170876Q550.98126 113.170876 550.52814 113.639626Q550.075 114.09275 550.075 114.920876L548.9969 114.920876Q548.9969 113.733376 549.7469 113.014626Q550.5125 112.28025 551.77814 112.28025Q552.98126 112.28025 553.66876 112.90525Q554.35626 113.53025 554.35626 114.577126Q554.35626 115.827126 552.7469 117.577126L550.46564 120.045876L554.7469 120.045876L554.7469 120.9365ZM560.41876 112.40525L560.41876 113.3115L560.21564 113.3115Q558.95 113.34275 558.2 114.077126Q557.45 114.795876 557.325 116.108376Q558.0125 115.34275 559.16876 115.34275Q560.27814 115.34275 560.95 116.124Q561.6219 116.90525 561.6219 118.15525Q561.6219 119.46775 560.90314 120.264626Q560.1844 121.0615 558.96564 121.0615Q557.7469 121.0615 556.98126 120.124Q556.23126 119.170876 556.23126 117.6865L556.23126 117.28025Q556.23126 114.920876 557.23126 113.670876Q558.23126 112.420876 560.21564 112.40525L560.41876 112.40525ZM558.9969 116.249Q558.4344 116.249 557.96564 116.577126Q557.4969 116.90525 557.3094 117.420876L557.3094 117.8115Q557.3094 118.874 557.77814 119.514626Q558.2625 120.15525 558.96564 120.15525Q559.7 120.15525 560.1219 119.624Q560.54376 119.077126 560.54376 118.202126Q560.54376 117.327126 560.1219 116.795876Q559.7 116.249 558.9969 116.249ZM563.29376 120.374Q563.29376 120.09275 563.45 119.90525Q563.6219 119.71775 563.95 119.71775Q564.29376 119.71775 564.46564 119.90525Q564.6375 120.09275 564.6375 120.374Q564.6375 120.639626 564.46564 120.827126Q564.29376 120.999 563.95 120.999Q563.6219 120.999 563.45 120.827126Q563.29376 120.639626 563.29376 120.374ZM571.7469 120.9365L566.15314 120.9365L566.15314 120.15525L569.10626 116.874Q569.7625 116.124 570.0125 115.670876Q570.2625 115.202126 570.2625 114.702126Q570.2625 114.03025 569.85626 113.608376Q569.46564 113.170876 568.77814 113.170876Q567.98126 113.170876 567.52814 113.639626Q567.075 114.09275 567.075 114.920876L565.9969 114.920876Q565.9969 113.733376 566.7469 113.014626Q567.5125 112.28025 568.77814 112.28025Q569.98126 112.28025 570.66876 112.90525Q571.35626 113.53025 571.35626 114.577126Q571.35626 115.827126 569.7469 117.577126L567.46564 120.045876L571.7469 120.045876L571.7469 120.9365ZM573.0594 114.045876Q573.0594 113.28025 573.54376 112.78025Q574.04376 112.28025 574.8094 112.28025Q575.59064 112.28025 576.075 112.78025Q576.5594 113.28025 576.5594 114.077126L576.5594 114.499Q576.5594 115.264626 576.0594 115.764626Q575.575 116.249 574.825 116.249Q574.0594 116.249 573.5594 115.764626Q573.0594 115.264626 573.0594 114.452126L573.0594 114.045876ZM573.8719 114.499Q573.8719 114.952126 574.1219 115.249Q574.3875 115.545876 574.825 115.545876Q575.2469 115.545876 575.4969 115.264626Q575.7469 114.96775 575.7469 114.46775L575.7469 114.045876Q575.7469 113.59275 575.4969 113.295876Q575.2469 112.983376 574.8094 112.983376Q574.3719 112.983376 574.1219 113.295876Q573.8719 113.59275 573.8719 114.0615L573.8719 114.499ZM577.21564 118.84275Q577.21564 118.077126 577.7 117.59275Q578.2 117.09275 578.96564 117.09275Q579.73126 117.09275 580.21564 117.59275Q580.71564 118.077126 580.71564 118.889626L580.71564 119.295876Q580.71564 120.0615 580.23126 120.5615Q579.7469 121.0615 578.98126 121.0615Q578.21564 121.0615 577.71564 120.577126Q577.21564 120.077126 577.21564 119.264626L577.21564 118.84275ZM578.02814 119.295876Q578.02814 119.764626 578.27814 120.0615Q578.54376 120.358376 578.98126 120.358376Q579.40314 120.358376 579.65314 120.077126Q579.90314 119.78025 579.90314 119.28025L579.90314 118.84275Q579.90314 118.374 579.6375 118.09275Q579.3875 117.795876 578.96564 117.795876Q578.54376 117.795876 578.27814 118.09275Q578.02814 118.374 578.02814 118.874L578.02814 119.295876ZM575.075 120.295876L574.45 119.90525L578.6219 113.233376L579.23126 113.624L575.075 120.295876Z" fill-rule="nonzero"/><path stroke="#757575" stroke-width="1.0" stroke-linecap="butt" d="M581.45 107.4365L454.76666 107.4365L403.4903 107.4365" fill-rule="nonzero"/><path fill="#9e9e9e" d="M405.4903 107.4365C405.4903 106.331924 404.59488 105.4365 403.4903 105.4365C402.38574 105.4365 401.4903 106.331924 401.4903 107.4365C401.4903 108.54107 402.38574 109.4365 403.4903 109.4365C404.59488 109.4365 405.4903 108.54107 405.4903 107.4365" fill-rule="nonzero"/><path fill="#757575" d="M527.71564 328.7469Q527.5594 330.09064 526.71564 330.84064Q525.8719 331.575 524.48126 331.575Q522.96564 331.575 522.0594 330.4969Q521.15314 329.40314 521.15314 327.575L521.15314 326.7625Q521.15314 325.575 521.575 324.66876Q521.9969 323.7625 522.77814 323.27814Q523.5594 322.79376 524.575 322.79376Q525.9344 322.79376 526.7469 323.5594Q527.575 324.325 527.71564 325.65314L526.59064 325.65314Q526.4344 324.6375 525.95 324.1844Q525.46564 323.73126 524.575 323.73126Q523.4969 323.73126 522.8875 324.52814Q522.27814 325.325 522.27814 326.79376L522.27814 327.6219Q522.27814 329.0125 522.85626 329.84064Q523.4344 330.65314 524.48126 330.65314Q525.41876 330.65314 525.91876 330.23126Q526.41876 329.79376 526.59064 328.7469L527.71564 328.7469ZM533.1844 331.45Q533.09064 331.2625 533.02814 330.77814Q532.27814 331.575 531.23126 331.575Q530.29376 331.575 529.6844 331.04376Q529.09064 330.5125 529.09064 329.6844Q529.09064 328.7 529.84064 328.15314Q530.59064 327.60626 531.96564 327.60626L533.0125 327.60626L533.0125 327.10626Q533.0125 326.54376 532.66876 326.21564Q532.34064 325.8719 531.66876 325.8719Q531.09064 325.8719 530.7 326.16876Q530.3094 326.45 530.3094 326.8719L529.21564 326.8719Q529.21564 326.3875 529.54376 325.95Q529.8875 325.5125 530.46564 325.2625Q531.04376 324.9969 531.73126 324.9969Q532.84064 324.9969 533.45 325.54376Q534.075 326.09064 534.10626 327.04376L534.10626 329.96564Q534.10626 330.84064 534.325 331.35626L534.325 331.45L533.1844 331.45ZM531.3875 330.6219Q531.90314 330.6219 532.35626 330.35626Q532.8094 330.09064 533.0125 329.66876L533.0125 328.3719L532.16876 328.3719Q530.16876 328.3719 530.16876 329.54376Q530.16876 330.04376 530.5125 330.34064Q530.85626 330.6219 531.3875 330.6219ZM539.34064 326.075Q539.09064 326.04376 538.8094 326.04376Q537.73126 326.04376 537.35626 326.95L537.35626 331.45L536.27814 331.45L536.27814 325.10626L537.325 325.10626L537.34064 325.84064Q537.8719 324.9969 538.85626 324.9969Q539.16876 324.9969 539.34064 325.075L539.34064 326.075ZM540.23126 327.98126Q540.23126 326.66876 540.575 325.45Q540.9344 324.23126 541.6375 323.23126Q542.34064 322.23126 543.10626 321.825L543.325 322.54376Q542.46564 323.2 541.91876 324.54376Q541.3719 325.8875 541.325 327.5594L541.3094 328.0594Q541.3094 330.325 542.1375 331.98126Q542.6375 332.98126 543.325 333.54376L543.10626 334.2Q542.325 333.77814 541.60626 332.7469Q540.23126 330.7625 540.23126 327.98126ZM546.95 327.65314Q545.5125 327.23126 544.84064 326.6219Q544.1844 326.0125 544.1844 325.1219Q544.1844 324.1219 544.98126 323.46564Q545.79376 322.79376 547.09064 322.79376Q547.96564 322.79376 548.65314 323.1375Q549.34064 323.48126 549.71564 324.075Q550.10626 324.66876 550.10626 325.3875L548.96564 325.3875Q548.96564 324.60626 548.46564 324.16876Q547.98126 323.73126 547.09064 323.73126Q546.2625 323.73126 545.79376 324.10626Q545.325 324.46564 545.325 325.10626Q545.325 325.6375 545.7625 325.9969Q546.21564 326.35626 547.27814 326.65314Q548.34064 326.95 548.9344 327.3094Q549.54376 327.66876 549.825 328.15314Q550.1219 328.6375 550.1219 329.27814Q550.1219 330.325 549.3094 330.95Q548.4969 331.575 547.15314 331.575Q546.2625 331.575 545.4969 331.23126Q544.7469 330.8875 544.325 330.3094Q543.91876 329.71564 543.91876 328.98126L545.04376 328.98126Q545.04376 329.7469 545.6219 330.2Q546.2 330.65314 547.15314 330.65314Q548.04376 330.65314 548.5125 330.29376Q548.98126 329.91876 548.98126 329.29376Q548.98126 328.66876 548.54376 328.325Q548.10626 327.98126 546.95 327.65314ZM553.90314 331.575Q552.60626 331.575 551.79376 330.73126Q550.9969 329.8719 550.9969 328.45L550.9969 328.2625Q550.9969 327.3094 551.35626 326.575Q551.71564 325.825 552.35626 325.41876Q553.0125 324.9969 553.7625 324.9969Q554.9969 324.9969 555.6844 325.8094Q556.3719 326.6219 556.3719 328.1375L556.3719 328.59064L552.075 328.59064Q552.10626 329.52814 552.6219 330.10626Q553.15314 330.6844 553.96564 330.6844Q554.52814 330.6844 554.91876 330.45Q555.325 330.21564 555.6375 329.825L556.29376 330.34064Q555.4969 331.575 553.90314 331.575ZM553.7625 325.8875Q553.10626 325.8875 552.65314 326.3719Q552.21564 326.84064 552.1219 327.7L555.29376 327.7L555.29376 327.6219Q555.2469 326.79376 554.84064 326.34064Q554.45 325.8875 553.7625 325.8875ZM557.0125 328.23126Q557.0125 326.7625 557.7 325.8875Q558.3875 324.9969 559.5125 324.9969Q560.6219 324.9969 561.27814 325.7469L561.27814 322.45L562.35626 322.45L562.35626 331.45L561.35626 331.45L561.3094 330.7625Q560.65314 331.575 559.4969 331.575Q558.40314 331.575 557.7 330.66876Q557.0125 329.7625 557.0125 328.3094L557.0125 328.23126ZM558.09064 328.35626Q558.09064 329.4344 558.52814 330.04376Q558.98126 330.65314 559.7625 330.65314Q560.79376 330.65314 561.27814 329.71564L561.27814 326.8094Q560.79376 325.91876 559.77814 325.91876Q558.98126 325.91876 558.52814 326.52814Q558.09064 327.1375 558.09064 328.35626ZM568.1844 331.45Q568.09064 331.2625 568.02814 330.77814Q567.27814 331.575 566.23126 331.575Q565.29376 331.575 564.6844 331.04376Q564.09064 330.5125 564.09064 329.6844Q564.09064 328.7 564.84064 328.15314Q565.59064 327.60626 566.96564 327.60626L568.0125 327.60626L568.0125 327.10626Q568.0125 326.54376 567.66876 326.21564Q567.34064 325.8719 566.66876 325.8719Q566.09064 325.8719 565.7 326.16876Q565.3094 326.45 565.3094 326.8719L564.21564 326.8719Q564.21564 326.3875 564.54376 325.95Q564.8875 325.5125 565.46564 325.2625Q566.04376 324.9969 566.73126 324.9969Q567.84064 324.9969 568.45 325.54376Q569.075 326.09064 569.10626 327.04376L569.10626 329.96564Q569.10626 330.84064 569.325 331.35626L569.325 331.45L568.1844 331.45ZM566.3875 330.6219Q566.90314 330.6219 567.35626 330.35626Q567.8094 330.09064 568.0125 329.66876L568.0125 328.3719L567.16876 328.3719Q565.16876 328.3719 565.16876 329.54376Q565.16876 330.04376 565.5125 330.34064Q565.85626 330.6219 566.3875 330.6219ZM572.29376 325.10626L572.325 325.90314Q573.0594 324.9969 574.23126 324.9969Q576.2469 324.9969 576.2625 327.2625L576.2625 331.45L575.16876 331.45L575.16876 327.2469Q575.16876 326.575 574.85626 326.2469Q574.5594 325.91876 573.90314 325.91876Q573.3719 325.91876 572.96564 326.2Q572.575 326.48126 572.35626 326.9344L572.35626 331.45L571.27814 331.45L571.27814 325.10626L572.29376 325.10626ZM580.77814 328.04376Q580.77814 329.35626 580.4344 330.5594Q580.09064 331.7469 579.3719 332.7625Q578.66876 333.77814 577.90314 334.2L577.66876 333.54376Q578.575 332.85626 579.1219 331.40314Q579.66876 329.9344 579.6844 328.16876L579.6844 327.98126Q579.6844 326.7469 579.41876 325.6844Q579.16876 324.6219 578.7 323.79376Q578.2469 322.95 577.66876 322.48126L577.90314 321.825Q578.66876 322.2469 579.3719 323.2469Q580.075 324.2469 580.41876 325.46564Q580.77814 326.66876 580.77814 328.04376Z" fill-rule="nonzero"/><path fill="#9e9e9e" d="M553.73126 346.59064L554.91876 346.59064L554.91876 347.46564L553.73126 347.46564L553.73126 349.45L552.65314 349.45L552.65314 347.46564L548.7625 347.46564L548.7625 346.825L552.575 340.91876L553.73126 340.91876L553.73126 346.59064ZM549.9969 346.59064L552.65314 346.59064L552.65314 342.40314L552.5125 342.6375L549.9969 346.59064ZM560.73126 346.59064L561.91876 346.59064L561.91876 347.46564L560.73126 347.46564L560.73126 349.45L559.65314 349.45L559.65314 347.46564L555.7625 347.46564L555.7625 346.825L559.575 340.91876L560.73126 340.91876L560.73126 346.59064ZM556.9969 346.59064L559.65314 346.59064L559.65314 342.40314L559.5125 342.6375L556.9969 346.59064ZM563.29376 348.8875Q563.29376 348.60626 563.45 348.41876Q563.6219 348.23126 563.95 348.23126Q564.29376 348.23126 564.46564 348.41876Q564.6375 348.60626 564.6375 348.8875Q564.6375 349.15314 564.46564 349.34064Q564.29376 349.5125 563.95 349.5125Q563.6219 349.5125 563.45 349.34064Q563.29376 349.15314 563.29376 348.8875ZM570.41876 340.91876L570.41876 341.825L570.21564 341.825Q568.95 341.85626 568.2 342.59064Q567.45 343.3094 567.325 344.6219Q568.0125 343.85626 569.16876 343.85626Q570.27814 343.85626 570.95 344.6375Q571.6219 345.41876 571.6219 346.66876Q571.6219 347.98126 570.90314 348.77814Q570.1844 349.575 568.96564 349.575Q567.7469 349.575 566.98126 348.6375Q566.23126 347.6844 566.23126 346.2L566.23126 345.79376Q566.23126 343.4344 567.23126 342.1844Q568.23126 340.9344 570.21564 340.91876L570.41876 340.91876ZM568.9969 344.7625Q568.4344 344.7625 567.96564 345.09064Q567.4969 345.41876 567.3094 345.9344L567.3094 346.325Q567.3094 347.3875 567.77814 348.02814Q568.2625 348.66876 568.96564 348.66876Q569.7 348.66876 570.1219 348.1375Q570.54376 347.59064 570.54376 346.71564Q570.54376 345.84064 570.1219 345.3094Q569.7 344.7625 568.9969 344.7625ZM573.0594 342.5594Q573.0594 341.79376 573.54376 341.29376Q574.04376 340.79376 574.8094 340.79376Q575.59064 340.79376 576.075 341.29376Q576.5594 341.79376 576.5594 342.59064L576.5594 343.0125Q576.5594 343.77814 576.0594 344.27814Q575.575 344.7625 574.825 344.7625Q574.0594 344.7625 573.5594 344.27814Q573.0594 343.77814 573.0594 342.96564L573.0594 342.5594ZM573.8719 343.0125Q573.8719 343.46564 574.1219 343.7625Q574.3875 344.0594 574.825 344.0594Q575.2469 344.0594 575.4969 343.77814Q575.7469 343.48126 575.7469 342.98126L575.7469 342.5594Q575.7469 342.10626 575.4969 341.8094Q575.2469 341.4969 574.8094 341.4969Q574.3719 341.4969 574.1219 341.8094Q573.8719 342.10626 573.8719 342.575L573.8719 343.0125ZM577.21564 347.35626Q577.21564 346.59064 577.7 346.10626Q578.2 345.60626 578.96564 345.60626Q579.73126 345.60626 580.21564 346.10626Q580.71564 346.59064 580.71564 347.40314L580.71564 347.8094Q580.71564 348.575 580.23126 349.075Q579.7469 349.575 578.98126 349.575Q578.21564 349.575 577.71564 349.09064Q577.21564 348.59064 577.21564 347.77814L577.21564 347.35626ZM578.02814 347.8094Q578.02814 348.27814 578.27814 348.575Q578.54376 348.8719 578.98126 348.8719Q579.40314 348.8719 579.65314 348.59064Q579.90314 348.29376 579.90314 347.79376L579.90314 347.35626Q579.90314 346.8875 579.6375 346.60626Q579.3875 346.3094 578.96564 346.3094Q578.54376 346.3094 578.27814 346.60626Q578.02814 346.8875 578.02814 347.3875L578.02814 347.8094ZM575.075 348.8094L574.45 348.41876L578.6219 341.7469L579.23126 342.1375L575.075 348.8094Z" fill-rule="nonzero"/><path stroke="#757575" stroke-width="1.0" stroke-linecap="butt" d="M581.45 335.95L454.76666 335.95L313.64014 344.3519" fill-rule="nonzero"/><path fill="#9e9e9e" d="M315.64014 344.3519C315.64014 343.2473 314.74472 342.3519 313.64014 342.3519C312.53558 342.3519 311.64014 343.2473 311.64014 344.3519C311.64014 345.45645 312.53558 346.3519 313.64014 346.3519C314.74472 346.3519 315.64014 345.45645 315.64014 344.3519" fill-rule="nonzero"/><path fill="#757575" d="M30.659374 33.034374Q30.39375 35.3 28.9875 36.534374Q27.596874 37.753124 25.26875 37.753124Q22.753124 37.753124 21.221874 35.940624Q19.70625 34.128124 19.70625 31.096874L19.70625 29.7375Q19.70625 27.753124 20.409374 26.253124Q21.128124 24.753124 22.425 23.940624Q23.721874 23.128124 25.440624 23.128124Q27.70625 23.128124 29.065624 24.39375Q30.440624 25.659374 30.659374 27.89375L28.76875 27.89375Q28.534374 26.20625 27.70625 25.440624Q26.89375 24.675 25.440624 24.675Q23.64375 24.675 22.6125 26.003124Q21.596874 27.33125 21.596874 29.784374L21.596874 31.159374Q21.596874 33.471874 22.565624 34.846874Q23.534374 36.20625 25.26875 36.20625Q26.83125 36.20625 27.659374 35.503124Q28.503124 34.8 28.76875 33.034374L30.659374 33.034374ZM32.440624 32.175Q32.440624 30.6125 33.05 29.378124Q33.659374 28.128124 34.7375 27.45625Q35.83125 26.784374 37.2375 26.784374Q39.39375 26.784374 40.721874 28.284374Q42.065624 29.76875 42.065624 32.253124L42.065624 32.378124Q42.065624 33.925 41.471874 35.159374Q40.878124 36.378124 39.76875 37.065624Q38.675 37.753124 37.253124 37.753124Q35.1125 37.753124 33.76875 36.253124Q32.440624 34.753124 32.440624 32.3L32.440624 32.175ZM34.253124 32.378124Q34.253124 34.14375 35.065624 35.20625Q35.89375 36.26875 37.253124 36.26875Q38.628124 36.26875 39.440624 35.190624Q40.253124 34.1125 40.253124 32.175Q40.253124 30.425 39.425 29.346874Q38.596874 28.26875 37.2375 28.26875Q35.89375 28.26875 35.065624 29.33125Q34.253124 30.39375 34.253124 32.378124ZM50.440624 36.503124Q49.39375 37.753124 47.346874 37.753124Q45.659374 37.753124 44.76875 36.76875Q43.89375 35.784374 43.878124 33.8625L43.878124 26.9875L45.690624 26.9875L45.690624 33.815624Q45.690624 36.20625 47.64375 36.20625Q49.70625 36.20625 50.39375 34.675L50.39375 26.9875L52.20625 26.9875L52.20625 37.55L50.4875 37.55L50.440624 36.503124ZM56.628124 26.9875L56.690624 28.315624Q57.89375 26.784374 59.846874 26.784374Q63.20625 26.784374 63.221874 30.565624L63.221874 37.55L61.425 37.55L61.425 30.55Q61.409374 29.409374 60.89375 28.8625Q60.39375 28.315624 59.3 28.315624Q58.425 28.315624 57.753124 28.784374Q57.096874 29.253124 56.721874 30.01875L56.721874 37.55L54.925 37.55L54.925 26.9875L56.628124 26.9875ZM68.3625 24.425L68.3625 26.9875L70.34688 26.9875L70.34688 28.378124L68.3625 28.378124L68.3625 34.925Q68.3625 35.565624 68.62813 35.89375Q68.89375 36.20625 69.53438 36.20625Q69.84688 36.20625 70.39375 36.08125L70.39375 37.55Q69.675 37.753124 69.00313 37.753124Q67.8 37.753124 67.175 37.01875Q66.56563 36.284374 66.56563 34.925L66.56563 28.378124L64.64375 28.378124L64.64375 26.9875L66.56563 26.9875L66.56563 24.425L68.3625 24.425ZM77.44063 32.175Q77.44063 30.6125 78.05 29.378124Q78.65938 28.128124 79.7375 27.45625Q80.83125 26.784374 82.2375 26.784374Q84.39375 26.784374 85.72188 28.284374Q87.06563 29.76875 87.06563 32.253124L87.06563 32.378124Q87.06563 33.925 86.47188 35.159374Q85.87813 36.378124 84.76875 37.065624Q83.675 37.753124 82.25313 37.753124Q80.1125 37.753124 78.76875 36.253124Q77.44063 34.753124 77.44063 32.3L77.44063 32.175ZM79.25313 32.378124Q79.25313 34.14375 80.06563 35.20625Q80.89375 36.26875 82.25313 36.26875Q83.62813 36.26875 84.44063 35.190624Q85.25313 34.1125 85.25313 32.175Q85.25313 30.425 84.425 29.346874Q83.59688 28.26875 82.2375 28.26875Q80.89375 28.26875 80.06563 29.33125Q79.25313 30.39375 79.25313 32.378124ZM89.8 37.55L89.8 28.378124L88.14375 28.378124L88.14375 26.9875L89.8 26.9875L89.8 25.89375Q89.8 24.20625 90.70625 23.284374Q91.62813 22.346874 93.28438 22.346874Q93.90938 22.346874 94.51875 22.503124L94.425 23.971874Q93.97188 23.89375 93.45625 23.89375Q92.56563 23.89375 92.08125 24.409374Q91.6125 24.909374 91.6125 25.8625L91.6125 26.9875L93.8625 26.9875L93.8625 28.378124L91.6125 28.378124L91.6125 37.55L89.8 37.55ZM104.26875 33.065624L104.53438 34.940624L104.94063 33.253124L107.75313 23.33125L109.33125 23.33125L112.08125 33.253124L112.47188 34.971874L112.76875 33.05L114.9875 23.33125L116.8625 23.33125L113.425 37.55L111.70625 37.55L108.78438 27.190624L108.55 26.096874L108.33125 27.190624L105.3 37.55L103.58125 37.55L100.14375 23.33125L102.01875 23.33125L104.26875 33.065624ZM120.72188 28.26875Q121.925 26.784374 123.84688 26.784374Q127.20625 26.784374 127.22188 30.565624L127.22188 37.55L125.425 37.55L125.425 30.55Q125.40938 29.409374 124.89375 28.8625Q124.39375 28.315624 123.3 28.315624Q122.425 28.315624 121.75313 28.784374Q121.09688 29.253124 120.72188 30.01875L120.72188 37.55L118.925 37.55L118.925 22.55L120.72188 22.55L120.72188 28.26875ZM136.44063 37.55Q136.28438 37.2375 136.19063 36.440624Q134.925 37.753124 133.175 37.753124Q131.6125 37.753124 130.6125 36.8625Q129.6125 35.971874 129.6125 34.6125Q129.6125 32.971874 130.8625 32.065624Q132.12813 31.14375 134.39375 31.14375L136.15938 31.14375L136.15938 30.315624Q136.15938 29.3625 135.58125 28.8Q135.01875 28.2375 133.925 28.2375Q132.95625 28.2375 132.3 28.7375Q131.64375 29.221874 131.64375 29.909374L129.83125 29.909374Q129.83125 29.128124 130.39375 28.39375Q130.95625 27.64375 131.90938 27.221874Q132.87813 26.784374 134.03438 26.784374Q135.8625 26.784374 136.89375 27.70625Q137.925 28.6125 137.97188 30.221874L137.97188 35.08125Q137.97188 36.534374 138.33125 37.39375L138.33125 37.55L136.44063 37.55ZM133.44063 36.175Q134.3 36.175 135.05 35.7375Q135.81563 35.3 136.15938 34.596874L136.15938 32.425L134.7375 32.425Q131.425 32.425 131.425 34.3625Q131.425 35.221874 131.9875 35.70625Q132.55 36.175 133.44063 36.175ZM143.3625 24.425L143.3625 26.9875L145.34688 26.9875L145.34688 28.378124L143.3625 28.378124L143.3625 34.925Q143.3625 35.565624 143.62813 35.89375Q143.89375 36.20625 144.53438 36.20625Q144.84688 36.20625 145.39375 36.08125L145.39375 37.55Q144.675 37.753124 144.00313 37.753124Q142.8 37.753124 142.175 37.01875Q141.56563 36.284374 141.56563 34.925L141.56563 28.378124L139.64375 28.378124L139.64375 26.9875L141.56563 26.9875L141.56563 24.425L143.3625 24.425ZM155.8625 32.659374L154.7375 33.83125L154.7375 37.55L152.925 37.55L152.925 22.55L154.7375 22.55L154.7375 31.628124L155.70625 30.45625L158.9875 26.9875L161.19063 26.9875L157.08125 31.39375L161.675 37.55L159.55 37.55L155.8625 32.659374ZM164.87813 37.55L163.08125 37.55L163.08125 26.9875L164.87813 26.9875L164.87813 37.55ZM162.925 24.175Q162.925 23.7375 163.19063 23.440624Q163.47188 23.128124 163.9875 23.128124Q164.51875 23.128124 164.78438 23.440624Q165.06563 23.7375 165.06563 24.175Q165.06563 24.6125 164.78438 24.909374Q164.51875 25.20625 163.9875 25.20625Q163.47188 25.20625 163.19063 24.909374Q162.925 24.6125 162.925 24.175ZM169.62813 26.9875L169.69063 28.315624Q170.89375 26.784374 172.84688 26.784374Q176.20625 26.784374 176.22188 30.565624L176.22188 37.55L174.425 37.55L174.425 30.55Q174.40938 29.409374 173.89375 28.8625Q173.39375 28.315624 172.3 28.315624Q171.425 28.315624 170.75313 28.784374Q170.09688 29.253124 169.72188 30.01875L169.72188 37.55L167.925 37.55L167.925 26.9875L169.62813 26.9875ZM178.47188 32.175Q178.47188 29.753124 179.62813 28.26875Q180.78438 26.784374 182.64375 26.784374Q184.50313 26.784374 185.58125 28.05L185.58125 22.55L187.39375 22.55L187.39375 37.55L185.7375 37.55L185.64375 36.409374Q184.56563 37.753124 182.62813 37.753124Q180.8 37.753124 179.62813 36.253124Q178.47188 34.7375 178.47188 32.315624L178.47188 32.175ZM180.28438 32.378124Q180.28438 34.175 181.01875 35.190624Q181.76875 36.20625 183.08125 36.20625Q184.8 36.20625 185.58125 34.675L185.58125 29.815624Q184.78438 28.315624 183.09688 28.315624Q181.76875 28.315624 181.01875 29.346874Q180.28438 30.378124 180.28438 32.378124ZM194.44063 32.175Q194.44063 30.6125 195.05 29.378124Q195.65938 28.128124 196.7375 27.45625Q197.83125 26.784374 199.2375 26.784374Q201.39375 26.784374 202.72188 28.284374Q204.06563 29.76875 204.06563 32.253124L204.06563 32.378124Q204.06563 33.925 203.47188 35.159374Q202.87813 36.378124 201.76875 37.065624Q200.675 37.753124 199.25313 37.753124Q197.1125 37.753124 195.76875 36.253124Q194.44063 34.753124 194.44063 32.3L194.44063 32.175ZM196.25313 32.378124Q196.25313 34.14375 197.06563 35.20625Q197.89375 36.26875 199.25313 36.26875Q200.62813 36.26875 201.44063 35.190624Q202.25313 34.1125 202.25313 32.175Q202.25313 30.425 201.425 29.346874Q200.59688 28.26875 199.2375 28.26875Q197.89375 28.26875 197.06563 29.33125Q196.25313 30.39375 196.25313 32.378124ZM206.8 37.55L206.8 28.378124L205.14375 28.378124L205.14375 26.9875L206.8 26.9875L206.8 25.89375Q206.8 24.20625 207.70625 23.284374Q208.62813 22.346874 210.28438 22.346874Q210.90938 22.346874 211.51875 22.503124L211.425 23.971874Q210.97188 23.89375 210.45625 23.89375Q209.56563 23.89375 209.08125 24.409374Q208.6125 24.909374 208.6125 25.8625L208.6125 26.9875L210.8625 26.9875L210.8625 28.378124L208.6125 28.378124L208.6125 37.55L206.8 37.55ZM221.40938 35.096874L224.01875 26.9875L225.8625 26.9875L222.08125 37.55L220.70625 37.55L216.87813 26.9875L218.72188 26.9875L221.40938 35.096874ZM232.3 37.753124Q230.15938 37.753124 228.8 36.346874Q227.45625 34.925 227.45625 32.565624L227.45625 32.221874Q227.45625 30.659374 228.05 29.425Q228.65938 28.190624 229.7375 27.4875Q230.81563 26.784374 232.08125 26.784374Q234.14375 26.784374 235.28438 28.14375Q236.425 29.503124 236.425 32.034374L236.425 32.784374L229.26875 32.784374Q229.3 34.346874 230.175 35.315624Q231.05 36.26875 232.39375 36.26875Q233.3625 36.26875 234.01875 35.878124Q234.69063 35.4875 235.19063 34.846874L236.28438 35.70625Q234.95625 37.753124 232.3 37.753124ZM232.08125 28.26875Q230.9875 28.26875 230.2375 29.065624Q229.50313 29.8625 229.33125 31.3L234.6125 31.3L234.6125 31.159374Q234.53438 29.784374 233.8625 29.034374Q233.20625 28.26875 232.08125 28.26875ZM240.72188 28.26875Q241.925 26.784374 243.84688 26.784374Q247.20625 26.784374 247.22188 30.565624L247.22188 37.55L245.425 37.55L245.425 30.55Q245.40938 29.409374 244.89375 28.8625Q244.39375 28.315624 243.3 28.315624Q242.425 28.315624 241.75313 28.784374Q241.09688 29.253124 240.72188 30.01875L240.72188 37.55L238.925 37.55L238.925 22.55L240.72188 22.55L240.72188 28.26875ZM251.87813 37.55L250.08125 37.55L250.08125 26.9875L251.87813 26.9875L251.87813 37.55ZM249.925 24.175Q249.925 23.7375 250.19063 23.440624Q250.47188 23.128124 250.9875 23.128124Q251.51875 23.128124 251.78438 23.440624Q252.06563 23.7375 252.06563 24.175Q252.06563 24.6125 251.78438 24.909374Q251.51875 25.20625 250.9875 25.20625Q250.47188 25.20625 250.19063 24.909374Q249.925 24.6125 249.925 24.175ZM259.15936 36.26875Q260.1281 36.26875 260.84686 35.690624Q261.5656 35.096874 261.64374 34.221874L263.3625 34.221874Q263.3 35.128124 262.72186 35.95625Q262.15936 36.76875 261.1906 37.26875Q260.2375 37.753124 259.15936 37.753124Q257.0031 37.753124 255.72188 36.315624Q254.45625 34.8625 254.45625 32.3625L254.45625 32.065624Q254.45625 30.51875 255.01875 29.315624Q255.58125 28.1125 256.64374 27.45625Q257.70624 26.784374 259.14374 26.784374Q260.925 26.784374 262.09686 27.846874Q263.28436 28.909374 263.3625 30.6125L261.64374 30.6125Q261.5656 29.596874 260.8625 28.940624Q260.175 28.26875 259.14374 28.26875Q257.76874 28.26875 257.0031 29.26875Q256.2531 30.253124 256.2531 32.128124L256.2531 32.471874Q256.2531 34.3 257.0031 35.284374Q257.7531 36.26875 259.15936 36.26875ZM266.8781 37.55L265.08124 37.55L265.08124 22.55L266.8781 22.55L266.8781 37.55ZM274.3 37.753124Q272.15936 37.753124 270.8 36.346874Q269.45624 34.925 269.45624 32.565624L269.45624 32.221874Q269.45624 30.659374 270.05 29.425Q270.65936 28.190624 271.7375 27.4875Q272.8156 26.784374 274.08124 26.784374Q276.14374 26.784374 277.28436 28.14375Q278.425 29.503124 278.425 32.034374L278.425 32.784374L271.26874 32.784374Q271.3 34.346874 272.175 35.315624Q273.05 36.26875 274.39374 36.26875Q275.3625 36.26875 276.01874 35.878124Q276.6906 35.4875 277.1906 34.846874L278.28436 35.70625Q276.95624 37.753124 274.3 37.753124ZM274.08124 28.26875Q272.9875 28.26875 272.2375 29.065624Q271.5031 29.8625 271.33124 31.3L276.6125 31.3L276.6125 31.159374Q276.53436 29.784374 275.8625 29.034374Q275.20624 28.26875 274.08124 28.26875ZM283.03436 33.55Q283.05 32.378124 283.3 31.70625Q283.55 31.034374 284.3 30.221874L285.58124 28.89375Q286.39374 27.971874 286.39374 26.909374Q286.39374 25.878124 285.84686 25.3Q285.3156 24.721874 284.3 24.721874Q283.3 24.721874 282.6906 25.253124Q282.09686 25.76875 282.09686 26.659374L280.28436 26.659374Q280.3 25.08125 281.40936 24.1125Q282.51874 23.128124 284.3 23.128124Q286.14374 23.128124 287.175 24.128124Q288.20624 25.1125 288.20624 26.846874Q288.20624 28.55 286.6281 30.221874L285.55 31.26875Q284.84686 32.065624 284.84686 33.55L283.03436 33.55ZM282.95624 36.64375Q282.95624 36.20625 283.22186 35.909374Q283.5031 35.6125 284.01874 35.6125Q284.55 35.6125 284.8156 35.909374Q285.09686 36.20625 285.09686 36.64375Q285.09686 37.08125 284.8156 37.378124Q284.55 37.659374 284.01874 37.659374Q283.5031 37.659374 283.22186 37.378124Q282.95624 37.08125 282.95624 36.64375Z" fill-rule="nonzero"/></svg>