<svg version="1.1" viewBox="0.0 0.0 600.0 371.0" fill="none" stroke="none" stroke-linecap="square" stroke-miterlimit="10" width="600" height="371" xmlns:xlink="http://www.w3.org/1999/xlink" xmlns="http://www.w3.org/2000/svg"><path fill="#ffffff" d="M0 0L600.0 0L600.0 371.0L0 371.0L0 0Z" fill-rule="nonzero"/><path fill="#4285f4" d="M300.0 54.916668C357.94955 54.916668 410.6252 88.56717 434.98474 141.1482L300.0 203.68333Z" fill-rule="nonzero"/><path fill="#db4437" d="M434.98474 141.1482C455.9947 186.4991 452.82715 239.36952 426.55283 281.88754C400.2785 324.40558 354.40927 350.8882 304.4504 352.38342L300.0 203.68333Z" fill-rule="nonzero"/><path fill="#ff6d00" d="M165.01527 141.1482C189.37479 88.56717 242.05046 54.916668 300.0 54.916668L300.0 203.68333Z" fill-rule="nonzero"/><path fill="#0f9d58" d="M151.24998 201.45787C151.56186 180.6122 156.25166 160.06482 165.01527 141.1482L300.0 203.68333Z" fill-rule="nonzero"/><path fill="#f4b400" d="M304.4504 352.38342C263.85513 353.5984 224.52794 338.1636 195.59587 309.66116C166.66379 281.1587 150.64243 242.0668 151.24998 201.45787L300.0 203.68333Z" fill-rule="nonzero"/><path fill="#757575" d="M20.659374 76.739235L20.659374 80.082985L19.534374 80.082985L19.534374 71.551735L22.690624 71.551735Q24.08125 71.551735 24.878124 72.270485Q25.675 72.97361 25.675 74.16111Q25.675 75.395485 24.89375 76.06736Q24.128124 76.739235 22.675 76.739235L20.659374 76.739235ZM20.659374 75.81736L22.690624 75.81736Q23.596874 75.81736 24.065624 75.395485Q24.55 74.97361 24.55 74.176735Q24.55 73.41111 24.065624 72.957985Q23.596874 72.489235 22.753124 72.47361L20.659374 72.47361L20.659374 75.81736ZM30.440624 74.707985Q30.190624 74.676735 29.909374 74.676735Q28.83125 74.676735 28.45625 75.582985L28.45625 80.082985L27.378124 80.082985L27.378124 73.739235L28.425 73.739235L28.440624 74.47361Q28.971874 73.62986 29.95625 73.62986Q30.26875 73.62986 30.440624 73.707985L30.440624 74.707985ZM31.08125 76.84861Q31.08125 75.926735 31.440624 75.176735Q31.815624 74.426735 32.471874 74.03611Q33.128124 73.62986 33.95625 73.62986Q35.253124 73.62986 36.05 74.520485Q36.8625 75.41111 36.8625 76.91111L36.8625 76.989235Q36.8625 77.91111 36.503124 78.645485Q36.14375 79.37986 35.4875 79.801735Q34.83125 80.207985 33.971874 80.207985Q32.690624 80.207985 31.878124 79.31736Q31.08125 78.41111 31.08125 76.926735L31.08125 76.84861ZM32.175 76.989235Q32.175 78.03611 32.659374 78.676735Q33.159374 79.31736 33.971874 79.31736Q34.8 79.31736 35.284374 78.676735Q35.76875 78.020485 35.76875 76.84861Q35.76875 75.81736 35.26875 75.176735Q34.784374 74.520485 33.95625 74.520485Q33.159374 74.520485 32.659374 75.16111Q32.175 75.78611 32.175 76.989235ZM43.7375 76.989235Q43.7375 78.44236 43.065624 79.332985Q42.409374 80.207985 41.284374 80.207985Q40.08125 80.207985 39.425 79.34861L39.3625 80.082985L38.378124 80.082985L38.378124 71.082985L39.45625 71.082985L39.45625 74.44236Q40.1125 73.62986 41.26875 73.62986Q42.425 73.62986 43.08125 74.50486Q43.7375 75.364235 43.7375 76.895485L43.7375 76.989235ZM42.659374 76.864235Q42.659374 75.75486 42.221874 75.16111Q41.8 74.551735 41.003124 74.551735Q39.925 74.551735 39.45625 75.53611L39.45625 78.28611Q39.95625 79.28611 41.003124 79.28611Q41.784374 79.28611 42.221874 78.676735Q42.659374 78.06736 42.659374 76.864235ZM49.284374 80.082985Q49.190624 79.895485 49.128124 79.41111Q48.378124 80.207985 47.33125 80.207985Q46.39375 80.207985 45.784374 79.676735Q45.190624 79.145485 45.190624 78.31736Q45.190624 77.332985 45.940624 76.78611Q46.690624 76.239235 48.065624 76.239235L49.1125 76.239235L49.1125 75.739235Q49.1125 75.176735 48.76875 74.84861Q48.440624 74.50486 47.76875 74.50486Q47.190624 74.50486 46.8 74.801735Q46.409374 75.082985 46.409374 75.50486L45.315624 75.50486Q45.315624 75.020485 45.64375 74.582985Q45.9875 74.145485 46.565624 73.895485Q47.14375 73.62986 47.83125 73.62986Q48.940624 73.62986 49.55 74.176735Q50.175 74.72361 50.20625 75.676735L50.20625 78.59861Q50.20625 79.47361 50.425 79.989235L50.425 80.082985L49.284374 80.082985ZM47.4875 79.25486Q48.003124 79.25486 48.45625 78.989235Q48.909374 78.72361 49.1125 78.301735L49.1125 77.00486L48.26875 77.00486Q46.26875 77.00486 46.26875 78.176735Q46.26875 78.676735 46.6125 78.97361Q46.95625 79.25486 47.4875 79.25486ZM57.7375 76.989235Q57.7375 78.44236 57.065624 79.332985Q56.409374 80.207985 55.284374 80.207985Q54.08125 80.207985 53.425 79.34861L53.3625 80.082985L52.378124 80.082985L52.378124 71.082985L53.45625 71.082985L53.45625 74.44236Q54.1125 73.62986 55.26875 73.62986Q56.425 73.62986 57.08125 74.50486Q57.7375 75.364235 57.7375 76.895485L57.7375 76.989235ZM56.659374 76.864235Q56.659374 75.75486 56.221874 75.16111Q55.8 74.551735 55.003124 74.551735Q53.925 74.551735 53.45625 75.53611L53.45625 78.28611Q53.95625 79.28611 55.003124 79.28611Q55.784374 79.28611 56.221874 78.676735Q56.659374 78.06736 56.659374 76.864235ZM60.55 80.082985L59.471874 80.082985L59.471874 71.082985L60.55 71.082985L60.55 80.082985ZM64.44063 78.489235L65.925 73.739235L67.08125 73.739235L64.53438 81.06736Q63.940624 82.645485 62.659374 82.645485L62.440624 82.62986L62.05 82.551735L62.05 81.676735L62.33125 81.69236Q62.89375 81.69236 63.190624 81.47361Q63.503124 81.25486 63.70625 80.66111L63.940624 80.00486L61.675 73.739235L62.8625 73.739235L64.44063 78.489235ZM72.39375 73.739235L72.425 74.53611Q73.15938 73.62986 74.33125 73.62986Q76.34688 73.62986 76.3625 75.895485L76.3625 80.082985L75.26875 80.082985L75.26875 75.87986Q75.26875 75.207985 74.95625 74.87986Q74.65938 74.551735 74.00313 74.551735Q73.47188 74.551735 73.06563 74.832985Q72.675 75.114235 72.45625 75.56736L72.45625 80.082985L71.37813 80.082985L71.37813 73.739235L72.39375 73.739235ZM78.08125 76.84861Q78.08125 75.926735 78.44063 75.176735Q78.81563 74.426735 79.47188 74.03611Q80.12813 73.62986 80.95625 73.62986Q82.25313 73.62986 83.05 74.520485Q83.8625 75.41111 83.8625 76.91111L83.8625 76.989235Q83.8625 77.91111 83.50313 78.645485Q83.14375 79.37986 82.4875 79.801735Q81.83125 80.207985 80.97188 80.207985Q79.69063 80.207985 78.87813 79.31736Q78.08125 78.41111 78.08125 76.926735L78.08125 76.84861ZM79.175 76.989235Q79.175 78.03611 79.65938 78.676735Q80.15938 79.31736 80.97188 79.31736Q81.8 79.31736 82.28438 78.676735Q82.76875 78.020485 82.76875 76.84861Q82.76875 75.81736 82.26875 75.176735Q81.78438 74.520485 80.95625 74.520485Q80.15938 74.520485 79.65938 75.16111Q79.175 75.78611 79.175 76.989235ZM86.84688 72.207985L86.84688 73.739235L88.01875 73.739235L88.01875 74.582985L86.84688 74.582985L86.84688 78.50486Q86.84688 78.895485 87.00313 79.082985Q87.15938 79.270485 87.53438 79.270485Q87.72188 79.270485 88.05 79.207985L88.05 80.082985Q87.62813 80.207985 87.22188 80.207985Q86.50313 80.207985 86.12813 79.770485Q85.75313 79.31736 85.75313 78.50486L85.75313 74.582985L84.59688 74.582985L84.59688 73.739235L85.75313 73.739235L85.75313 72.207985L86.84688 72.207985Z" fill-rule="nonzero"/><path fill="#9e9e9e" d="M22.815624 98.082985L21.7375 98.082985L21.7375 90.864235L19.55 91.66111L19.55 90.676735L22.659374 89.50486L22.815624 89.50486L22.815624 98.082985ZM31.440624 91.770485Q31.440624 92.41111 31.096874 92.91111Q30.753124 93.41111 30.190624 93.69236Q30.846874 93.97361 31.2375 94.53611Q31.628124 95.082985 31.628124 95.78611Q31.628124 96.87986 30.878124 97.551735Q30.14375 98.207985 28.925 98.207985Q27.690624 98.207985 26.940624 97.551735Q26.20625 96.87986 26.20625 95.78611Q26.20625 95.082985 26.58125 94.53611Q26.95625 93.97361 27.628124 93.69236Q27.065624 93.41111 26.7375 92.91111Q26.409374 92.41111 26.409374 91.770485Q26.409374 90.69236 27.096874 90.06736Q27.784374 89.426735 28.925 89.426735Q30.05 89.426735 30.7375 90.06736Q31.440624 90.69236 31.440624 91.770485ZM30.55 95.75486Q30.55 95.03611 30.096874 94.59861Q29.64375 94.145485 28.909374 94.145485Q28.175 94.145485 27.721874 94.59861Q27.284374 95.03611 27.284374 95.770485Q27.284374 96.489235 27.721874 96.91111Q28.159374 97.31736 28.925 97.31736Q29.675 97.31736 30.1125 96.895485Q30.55 96.47361 30.55 95.75486ZM28.925 90.31736Q28.284374 90.31736 27.878124 90.72361Q27.4875 91.114235 27.4875 91.801735Q27.4875 92.44236 27.878124 92.84861Q28.26875 93.25486 28.909374 93.25486Q29.565624 93.25486 29.95625 92.84861Q30.346874 92.44236 30.346874 91.801735Q30.346874 91.145485 29.940624 90.739235Q29.534374 90.31736 28.925 90.31736ZM33.39375 97.520485Q33.39375 97.239235 33.55 97.051735Q33.721874 96.864235 34.05 96.864235Q34.39375 96.864235 34.565624 97.051735Q34.7375 97.239235 34.7375 97.520485Q34.7375 97.78611 34.565624 97.97361Q34.39375 98.145485 34.05 98.145485Q33.721874 98.145485 33.55 97.97361Q33.39375 97.78611 33.39375 97.520485ZM39.815624 98.082985L38.7375 98.082985L38.7375 90.864235L36.55 91.66111L36.55 90.676735L39.659374 89.50486L39.815624 89.50486L39.815624 98.082985ZM43.159374 91.19236Q43.159374 90.426735 43.64375 89.926735Q44.14375 89.426735 44.909374 89.426735Q45.690624 89.426735 46.175 89.926735Q46.659374 90.426735 46.659374 91.22361L46.659374 91.645485Q46.659374 92.41111 46.159374 92.91111Q45.675 93.395485 44.925 93.395485Q44.159374 93.395485 43.659374 92.91111Q43.159374 92.41111 43.159374 91.59861L43.159374 91.19236ZM43.971874 91.645485Q43.971874 92.09861 44.221874 92.395485Q44.4875 92.69236 44.925 92.69236Q45.346874 92.69236 45.596874 92.41111Q45.846874 92.114235 45.846874 91.614235L45.846874 91.19236Q45.846874 90.739235 45.596874 90.44236Q45.346874 90.12986 44.909374 90.12986Q44.471874 90.12986 44.221874 90.44236Q43.971874 90.739235 43.971874 91.207985L43.971874 91.645485ZM47.315624 95.989235Q47.315624 95.22361 47.8 94.739235Q48.3 94.239235 49.065624 94.239235Q49.83125 94.239235 50.315624 94.739235Q50.815624 95.22361 50.815624 96.03611L50.815624 96.44236Q50.815624 97.207985 50.33125 97.707985Q49.846874 98.207985 49.08125 98.207985Q48.315624 98.207985 47.815624 97.72361Q47.315624 97.22361 47.315624 96.41111L47.315624 95.989235ZM48.128124 96.44236Q48.128124 96.91111 48.378124 97.207985Q48.64375 97.50486 49.08125 97.50486Q49.503124 97.50486 49.753124 97.22361Q50.003124 96.926735 50.003124 96.426735L50.003124 95.989235Q50.003124 95.520485 49.7375 95.239235Q49.4875 94.94236 49.065624 94.94236Q48.64375 94.94236 48.378124 95.239235Q48.128124 95.520485 48.128124 96.020485L48.128124 96.44236ZM45.175 97.44236L44.55 97.051735L48.721874 90.37986L49.33125 90.770485L45.175 97.44236Z" fill-rule="nonzero"/><path stroke="#757575" stroke-width="1.0" stroke-linecap="butt" d="M18.55 84.582985L145.23334 84.582985L223.9158 84.582985" fill-rule="nonzero"/><path fill="#9e9e9e" d="M225.9158 84.582985C225.9158 83.47842 225.02037 82.582985 223.9158 82.582985C222.81123 82.582985 221.9158 83.47842 221.9158 84.582985C221.9158 85.68755 222.81123 86.582985 223.9158 86.582985C225.02037 86.582985 225.9158 85.68755 225.9158 84.582985" fill-rule="nonzero"/><path fill="#757575" d="M19.534374 167.73482L19.534374 159.20357L21.95625 159.20357Q23.065624 159.20357 23.909374 159.70357Q24.76875 160.18794 25.2375 161.0942Q25.70625 162.00044 25.70625 163.18794L25.70625 163.7192Q25.70625 164.93794 25.2375 165.8442Q24.784374 166.75044 23.909374 167.23482Q23.05 167.7192 21.909374 167.73482L19.534374 167.73482ZM20.659374 160.12544L20.659374 166.81294L21.846874 166.81294Q23.14375 166.81294 23.8625 166.01607Q24.596874 165.20357 24.596874 163.70357L24.596874 163.20357Q24.596874 161.75044 23.909374 160.95357Q23.2375 160.14107 21.971874 160.12544L20.659374 160.12544ZM30.003124 167.85982Q28.70625 167.85982 27.89375 167.01607Q27.096874 166.1567 27.096874 164.73482L27.096874 164.54732Q27.096874 163.5942 27.45625 162.85982Q27.815624 162.10982 28.45625 161.70357Q29.1125 161.2817 29.8625 161.2817Q31.096874 161.2817 31.784374 162.0942Q32.471874 162.9067 32.471874 164.42232L32.471874 164.87544L28.175 164.87544Q28.20625 165.81294 28.721874 166.39107Q29.253124 166.9692 30.065624 166.9692Q30.628124 166.9692 31.01875 166.73482Q31.425 166.50044 31.7375 166.10982L32.39375 166.62544Q31.596874 167.85982 30.003124 167.85982ZM29.8625 162.17232Q29.20625 162.17232 28.753124 162.6567Q28.315624 163.12544 28.221874 163.98482L31.39375 163.98482L31.39375 163.9067Q31.346874 163.07857 30.940624 162.62544Q30.55 162.17232 29.8625 162.17232ZM33.909374 167.73482L33.909374 162.23482L32.909374 162.23482L32.909374 161.39107L33.909374 161.39107L33.909374 160.75044Q33.909374 159.7192 34.440624 159.17232Q34.9875 158.60982 35.9875 158.60982Q36.3625 158.60982 36.7375 158.70357L36.675 159.5942Q36.39375 159.5317 36.096874 159.5317Q35.565624 159.5317 35.26875 159.8442Q34.9875 160.1567 34.9875 160.7192L34.9875 161.39107L36.346874 161.39107L36.346874 162.23482L34.9875 162.23482L34.9875 167.73482L33.909374 167.73482ZM38.55 167.73482L37.471874 167.73482L37.471874 161.39107L38.55 161.39107L38.55 167.73482ZM37.378124 159.7192Q37.378124 159.45357 37.534374 159.26607Q37.70625 159.07857 38.01875 159.07857Q38.33125 159.07857 38.4875 159.26607Q38.659374 159.45357 38.659374 159.7192Q38.659374 159.9692 38.4875 160.1567Q38.33125 160.32857 38.01875 160.32857Q37.70625 160.32857 37.534374 160.1567Q37.378124 159.9692 37.378124 159.7192ZM41.39375 161.39107L41.425 162.18794Q42.159374 161.2817 43.33125 161.2817Q45.346874 161.2817 45.3625 163.54732L45.3625 167.73482L44.26875 167.73482L44.26875 163.5317Q44.26875 162.85982 43.95625 162.5317Q43.659374 162.20357 43.003124 162.20357Q42.471874 162.20357 42.065624 162.48482Q41.675 162.76607 41.45625 163.2192L41.45625 167.73482L40.378124 167.73482L40.378124 161.39107L41.39375 161.39107ZM48.55 167.73482L47.471874 167.73482L47.471874 161.39107L48.55 161.39107L48.55 167.73482ZM47.378124 159.7192Q47.378124 159.45357 47.534374 159.26607Q47.70625 159.07857 48.01875 159.07857Q48.33125 159.07857 48.4875 159.26607Q48.659374 159.45357 48.659374 159.7192Q48.659374 159.9692 48.4875 160.1567Q48.33125 160.32857 48.01875 160.32857Q47.70625 160.32857 47.534374 160.1567Q47.378124 159.9692 47.378124 159.7192ZM51.846874 159.85982L51.846874 161.39107L53.01875 161.39107L53.01875 162.23482L51.846874 162.23482L51.846874 166.1567Q51.846874 166.54732 52.003124 166.73482Q52.159374 166.92232 52.534374 166.92232Q52.721874 166.92232 53.05 166.85982L53.05 167.73482Q52.628124 167.85982 52.221874 167.85982Q51.503124 167.85982 51.128124 167.42232Q50.753124 166.9692 50.753124 166.1567L50.753124 162.23482L49.596874 162.23482L49.596874 161.39107L50.753124 161.39107L50.753124 159.85982L51.846874 159.85982ZM57.003124 167.85982Q55.70625 167.85982 54.89375 167.01607Q54.096874 166.1567 54.096874 164.73482L54.096874 164.54732Q54.096874 163.5942 54.45625 162.85982Q54.815624 162.10982 55.45625 161.70357Q56.1125 161.2817 56.8625 161.2817Q58.096874 161.2817 58.784374 162.0942Q59.471874 162.9067 59.471874 164.42232L59.471874 164.87544L55.175 164.87544Q55.20625 165.81294 55.721874 166.39107Q56.253124 166.9692 57.065624 166.9692Q57.628124 166.9692 58.01875 166.73482Q58.425 166.50044 58.7375 166.10982L59.39375 166.62544Q58.596874 167.85982 57.003124 167.85982ZM56.8625 162.17232Q56.20625 162.17232 55.753124 162.6567Q55.315624 163.12544 55.221874 163.98482L58.39375 163.98482L58.39375 163.9067Q58.346874 163.07857 57.940624 162.62544Q57.55 162.17232 56.8625 162.17232ZM61.55 167.73482L60.471874 167.73482L60.471874 158.73482L61.55 158.73482L61.55 167.73482ZM65.44063 166.14107L66.925 161.39107L68.08125 161.39107L65.53438 168.7192Q64.94063 170.29732 63.659374 170.29732L63.440624 170.2817L63.05 170.20357L63.05 169.32857L63.33125 169.3442Q63.89375 169.3442 64.19063 169.12544Q64.50313 168.9067 64.70625 168.31294L64.94063 167.6567L62.675 161.39107L63.8625 161.39107L65.44063 166.14107ZM73.39375 161.39107L73.425 162.18794Q74.15938 161.2817 75.33125 161.2817Q77.34688 161.2817 77.3625 163.54732L77.3625 167.73482L76.26875 167.73482L76.26875 163.5317Q76.26875 162.85982 75.95625 162.5317Q75.65938 162.20357 75.00313 162.20357Q74.47188 162.20357 74.06563 162.48482Q73.675 162.76607 73.45625 163.2192L73.45625 167.73482L72.37813 167.73482L72.37813 161.39107L73.39375 161.39107ZM79.08125 164.50044Q79.08125 163.57857 79.44063 162.82857Q79.81563 162.07857 80.47188 161.68794Q81.12813 161.2817 81.95625 161.2817Q83.25313 161.2817 84.05 162.17232Q84.8625 163.06294 84.8625 164.56294L84.8625 164.64107Q84.8625 165.56294 84.50313 166.29732Q84.14375 167.0317 83.4875 167.45357Q82.83125 167.85982 81.97188 167.85982Q80.69063 167.85982 79.87813 166.9692Q79.08125 166.06294 79.08125 164.57857L79.08125 164.50044ZM80.175 164.64107Q80.175 165.68794 80.65938 166.32857Q81.15938 166.9692 81.97188 166.9692Q82.8 166.9692 83.28438 166.32857Q83.76875 165.67232 83.76875 164.50044Q83.76875 163.4692 83.26875 162.82857Q82.78438 162.17232 81.95625 162.17232Q81.15938 162.17232 80.65938 162.81294Q80.175 163.43794 80.175 164.64107ZM87.84688 159.85982L87.84688 161.39107L89.01875 161.39107L89.01875 162.23482L87.84688 162.23482L87.84688 166.1567Q87.84688 166.54732 88.00313 166.73482Q88.15938 166.92232 88.53438 166.92232Q88.72188 166.92232 89.05 166.85982L89.05 167.73482Q88.62813 167.85982 88.22188 167.85982Q87.50313 167.85982 87.12813 167.42232Q86.75313 166.9692 86.75313 166.1567L86.75313 162.23482L85.59688 162.23482L85.59688 161.39107L86.75313 161.39107L86.75313 159.85982L87.84688 159.85982Z" fill-rule="nonzero"/><path fill="#9e9e9e" d="M23.51875 177.20357L23.51875 178.10982L23.315624 178.10982Q22.05 178.14107 21.3 178.87544Q20.55 179.5942 20.425 180.9067Q21.1125 180.14107 22.26875 180.14107Q23.378124 180.14107 24.05 180.92232Q24.721874 181.70357 24.721874 182.95357Q24.721874 184.26607 24.003124 185.06294Q23.284374 185.85982 22.065624 185.85982Q20.846874 185.85982 20.08125 184.92232Q19.33125 183.9692 19.33125 182.48482L19.33125 182.07857Q19.33125 179.7192 20.33125 178.4692Q21.33125 177.2192 23.315624 177.20357L23.51875 177.20357ZM22.096874 181.04732Q21.534374 181.04732 21.065624 181.37544Q20.596874 181.70357 20.409374 182.2192L20.409374 182.60982Q20.409374 183.67232 20.878124 184.31294Q21.3625 184.95357 22.065624 184.95357Q22.8 184.95357 23.221874 184.42232Q23.64375 183.87544 23.64375 183.00044Q23.64375 182.12544 23.221874 181.5942Q22.8 181.04732 22.096874 181.04732ZM26.39375 185.17232Q26.39375 184.89107 26.55 184.70357Q26.721874 184.51607 27.05 184.51607Q27.39375 184.51607 27.565624 184.70357Q27.7375 184.89107 27.7375 185.17232Q27.7375 185.43794 27.565624 185.62544Q27.39375 185.79732 27.05 185.79732Q26.721874 185.79732 26.55 185.62544Q26.39375 185.43794 26.39375 185.17232ZM34.76875 177.81294L31.2375 185.73482L30.096874 185.73482L33.6125 178.0942L29.003124 178.0942L29.003124 177.20357L34.76875 177.20357L34.76875 177.81294ZM36.159374 178.8442Q36.159374 178.07857 36.64375 177.57857Q37.14375 177.07857 37.909374 177.07857Q38.690624 177.07857 39.175 177.57857Q39.659374 178.07857 39.659374 178.87544L39.659374 179.29732Q39.659374 180.06294 39.159374 180.56294Q38.675 181.04732 37.925 181.04732Q37.159374 181.04732 36.659374 180.56294Q36.159374 180.06294 36.159374 179.25044L36.159374 178.8442ZM36.971874 179.29732Q36.971874 179.75044 37.221874 180.04732Q37.4875 180.3442 37.925 180.3442Q38.346874 180.3442 38.596874 180.06294Q38.846874 179.76607 38.846874 179.26607L38.846874 178.8442Q38.846874 178.39107 38.596874 178.0942Q38.346874 177.7817 37.909374 177.7817Q37.471874 177.7817 37.221874 178.0942Q36.971874 178.39107 36.971874 178.85982L36.971874 179.29732ZM40.315624 183.64107Q40.315624 182.87544 40.8 182.39107Q41.3 181.89107 42.065624 181.89107Q42.83125 181.89107 43.315624 182.39107Q43.815624 182.87544 43.815624 183.68794L43.815624 184.0942Q43.815624 184.85982 43.33125 185.35982Q42.846874 185.85982 42.08125 185.85982Q41.315624 185.85982 40.815624 185.37544Q40.315624 184.87544 40.315624 184.06294L40.315624 183.64107ZM41.128124 184.0942Q41.128124 184.56294 41.378124 184.85982Q41.64375 185.1567 42.08125 185.1567Q42.503124 185.1567 42.753124 184.87544Q43.003124 184.57857 43.003124 184.07857L43.003124 183.64107Q43.003124 183.17232 42.7375 182.89107Q42.4875 182.5942 42.065624 182.5942Q41.64375 182.5942 41.378124 182.89107Q41.128124 183.17232 41.128124 183.67232L41.128124 184.0942ZM38.175 185.0942L37.55 184.70357L41.721874 178.0317L42.33125 178.42232L38.175 185.0942Z" fill-rule="nonzero"/><path stroke="#757575" stroke-width="1.0" stroke-linecap="butt" d="M18.55 172.23482L145.23334 172.23482L162.21506 172.23482" fill-rule="nonzero"/><path fill="#9e9e9e" d="M164.21506 172.23482C164.21506 171.13025 163.31963 170.23482 162.21506 170.23482C161.11049 170.23482 160.21506 171.13025 160.21506 172.23482C160.21506 173.33939 161.11049 174.23482 162.21506 174.23482C163.31963 174.23482 164.21506 173.33939 164.21506 172.23482" fill-rule="nonzero"/><path fill="#757575" d="M20.9875 291.33102L23.784374 298.28415L26.565624 291.33102L28.034374 291.33102L28.034374 299.86227L26.909374 299.86227L26.909374 296.53415L27.01875 292.95602L24.20625 299.86227L23.346874 299.86227L20.55 292.97165L20.659374 296.53415L20.659374 299.86227L19.534374 299.86227L19.534374 291.33102L20.9875 291.33102ZM33.284374 299.86227Q33.190624 299.67477 33.128124 299.1904Q32.378124 299.98727 31.33125 299.98727Q30.39375 299.98727 29.784374 299.45602Q29.190624 298.92477 29.190624 298.09665Q29.190624 297.11227 29.940624 296.5654Q30.690624 296.01852 32.065624 296.01852L33.1125 296.01852L33.1125 295.51852Q33.1125 294.95602 32.76875 294.6279Q32.440624 294.28415 31.76875 294.28415Q31.190624 294.28415 30.8 294.58102Q30.409374 294.86227 30.409374 295.28415L29.315624 295.28415Q29.315624 294.79977 29.64375 294.36227Q29.9875 293.92477 30.565624 293.67477Q31.14375 293.40915 31.83125 293.40915Q32.940624 293.40915 33.55 293.95602Q34.175 294.5029 34.20625 295.45602L34.20625 298.3779Q34.20625 299.2529 34.425 299.76852L34.425 299.86227L33.284374 299.86227ZM31.4875 299.03415Q32.003124 299.03415 32.45625 298.76852Q32.909374 298.5029 33.1125 298.08102L33.1125 296.78415L32.26875 296.78415Q30.26875 296.78415 30.26875 297.95602Q30.26875 298.45602 30.6125 298.7529Q30.95625 299.03415 31.4875 299.03415ZM38.440624 298.26852L39.925 293.51852L41.08125 293.51852L38.534374 300.84665Q37.940624 302.42477 36.659374 302.42477L36.440624 302.40915L36.05 302.33102L36.05 301.45602L36.33125 301.47165Q36.89375 301.47165 37.190624 301.2529Q37.503124 301.03415 37.70625 300.4404L37.940624 299.78415L35.675 293.51852L36.8625 293.51852L38.440624 298.26852ZM47.7375 296.76852Q47.7375 298.22165 47.065624 299.11227Q46.409374 299.98727 45.284374 299.98727Q44.08125 299.98727 43.425 299.1279L43.3625 299.86227L42.378124 299.86227L42.378124 290.86227L43.45625 290.86227L43.45625 294.22165Q44.1125 293.40915 45.26875 293.40915Q46.425 293.40915 47.08125 294.28415Q47.7375 295.14352 47.7375 296.67477L47.7375 296.76852ZM46.659374 296.64352Q46.659374 295.53415 46.221874 294.9404Q45.8 294.33102 45.003124 294.33102Q43.925 294.33102 43.45625 295.3154L43.45625 298.0654Q43.95625 299.0654 45.003124 299.0654Q45.784374 299.0654 46.221874 298.45602Q46.659374 297.84665 46.659374 296.64352ZM52.003124 299.98727Q50.70625 299.98727 49.89375 299.14352Q49.096874 298.28415 49.096874 296.86227L49.096874 296.67477Q49.096874 295.72165 49.45625 294.98727Q49.815624 294.23727 50.45625 293.83102Q51.1125 293.40915 51.8625 293.40915Q53.096874 293.40915 53.784374 294.22165Q54.471874 295.03415 54.471874 296.54977L54.471874 297.0029L50.175 297.0029Q50.20625 297.9404 50.721874 298.51852Q51.253124 299.09665 52.065624 299.09665Q52.628124 299.09665 53.01875 298.86227Q53.425 298.6279 53.7375 298.23727L54.39375 298.7529Q53.596874 299.98727 52.003124 299.98727ZM51.8625 294.29977Q51.20625 294.29977 50.753124 294.78415Q50.315624 295.2529 50.221874 296.11227L53.39375 296.11227L53.39375 296.03415Q53.346874 295.20602 52.940624 294.7529Q52.55 294.29977 51.8625 294.29977ZM58.08125 296.6279Q58.08125 295.70602 58.440624 294.95602Q58.815624 294.20602 59.471874 293.8154Q60.128124 293.40915 60.95625 293.40915Q62.253124 293.40915 63.05 294.29977Q63.8625 295.1904 63.8625 296.6904L63.8625 296.76852Q63.8625 297.6904 63.503124 298.42477Q63.14375 299.15915 62.4875 299.58102Q61.83125 299.98727 60.971874 299.98727Q59.690624 299.98727 58.878124 299.09665Q58.08125 298.1904 58.08125 296.70602L58.08125 296.6279ZM59.175 296.76852Q59.175 297.8154 59.659374 298.45602Q60.159374 299.09665 60.971874 299.09665Q61.8 299.09665 62.284374 298.45602Q62.76875 297.79977 62.76875 296.6279Q62.76875 295.59665 62.26875 294.95602Q61.784374 294.29977 60.95625 294.29977Q60.159374 294.29977 59.659374 294.9404Q59.175 295.5654 59.175 296.76852ZM68.44063 294.48727Q68.19063 294.45602 67.90938 294.45602Q66.83125 294.45602 66.45625 295.36227L66.45625 299.86227L65.37813 299.86227L65.37813 293.51852L66.425 293.51852L66.44063 294.2529Q66.97188 293.40915 67.95625 293.40915Q68.26875 293.40915 68.44063 293.48727L68.44063 294.48727ZM73.9875 291.33102L76.78438 298.28415L79.56563 291.33102L81.03438 291.33102L81.03438 299.86227L79.90938 299.86227L79.90938 296.53415L80.01875 292.95602L77.20625 299.86227L76.34688 299.86227L73.55 292.97165L73.65938 296.53415L73.65938 299.86227L72.53438 299.86227L72.53438 291.33102L73.9875 291.33102ZM86.28438 299.86227Q86.19063 299.67477 86.12813 299.1904Q85.37813 299.98727 84.33125 299.98727Q83.39375 299.98727 82.78438 299.45602Q82.19063 298.92477 82.19063 298.09665Q82.19063 297.11227 82.94063 296.5654Q83.69063 296.01852 85.06563 296.01852L86.1125 296.01852L86.1125 295.51852Q86.1125 294.95602 85.76875 294.6279Q85.44063 294.28415 84.76875 294.28415Q84.19063 294.28415 83.8 294.58102Q83.40938 294.86227 83.40938 295.28415L82.31563 295.28415Q82.31563 294.79977 82.64375 294.36227Q82.9875 293.92477 83.56563 293.67477Q84.14375 293.40915 84.83125 293.40915Q85.94063 293.40915 86.55 293.95602Q87.175 294.5029 87.20625 295.45602L87.20625 298.3779Q87.20625 299.2529 87.425 299.76852L87.425 299.86227L86.28438 299.86227ZM84.4875 299.03415Q85.00313 299.03415 85.45625 298.76852Q85.90938 298.5029 86.1125 298.08102L86.1125 296.78415L85.26875 296.78415Q83.26875 296.78415 83.26875 297.95602Q83.26875 298.45602 83.6125 298.7529Q83.95625 299.03415 84.4875 299.03415ZM91.44063 298.26852L92.925 293.51852L94.08125 293.51852L91.53438 300.84665Q90.94063 302.42477 89.65938 302.42477L89.44063 302.40915L89.05 302.33102L89.05 301.45602L89.33125 301.47165Q89.89375 301.47165 90.19063 301.2529Q90.50313 301.03415 90.70625 300.4404L90.94063 299.78415L88.675 293.51852L89.8625 293.51852L91.44063 298.26852ZM100.7375 296.76852Q100.7375 298.22165 100.06563 299.11227Q99.40938 299.98727 98.28438 299.98727Q97.08125 299.98727 96.425 299.1279L96.3625 299.86227L95.37813 299.86227L95.37813 290.86227L96.45625 290.86227L96.45625 294.22165Q97.1125 293.40915 98.26875 293.40915Q99.425 293.40915 100.08125 294.28415Q100.7375 295.14352 100.7375 296.67477L100.7375 296.76852ZM99.65938 296.64352Q99.65938 295.53415 99.22188 294.9404Q98.8 294.33102 98.00313 294.33102Q96.925 294.33102 96.45625 295.3154L96.45625 298.0654Q96.95625 299.0654 98.00313 299.0654Q98.78438 299.0654 99.22188 298.45602Q99.65938 297.84665 99.65938 296.64352ZM105.00313 299.98727Q103.70625 299.98727 102.89375 299.14352Q102.09688 298.28415 102.09688 296.86227L102.09688 296.67477Q102.09688 295.72165 102.45625 294.98727Q102.81563 294.23727 103.45625 293.83102Q104.1125 293.40915 104.8625 293.40915Q106.09688 293.40915 106.78438 294.22165Q107.47188 295.03415 107.47188 296.54977L107.47188 297.0029L103.175 297.0029Q103.20625 297.9404 103.72188 298.51852Q104.25313 299.09665 105.06563 299.09665Q105.62813 299.09665 106.01875 298.86227Q106.425 298.6279 106.7375 298.23727L107.39375 298.7529Q106.59688 299.98727 105.00313 299.98727ZM104.8625 294.29977Q104.20625 294.29977 103.75313 294.78415Q103.31563 295.2529 103.22188 296.11227L106.39375 296.11227L106.39375 296.03415Q106.34688 295.20602 105.94063 294.7529Q105.55 294.29977 104.8625 294.29977ZM112.39375 293.51852L112.425 294.3154Q113.15938 293.40915 114.33125 293.40915Q116.34688 293.40915 116.3625 295.67477L116.3625 299.86227L115.26875 299.86227L115.26875 295.65915Q115.26875 294.98727 114.95625 294.65915Q114.65938 294.33102 114.00313 294.33102Q113.47188 294.33102 113.06563 294.61227Q112.675 294.89352 112.45625 295.34665L112.45625 299.86227L111.37813 299.86227L111.37813 293.51852L112.39375 293.51852ZM118.08125 296.6279Q118.08125 295.70602 118.44063 294.95602Q118.81563 294.20602 119.47188 293.8154Q120.12813 293.40915 120.95625 293.40915Q122.25313 293.40915 123.05 294.29977Q123.8625 295.1904 123.8625 296.6904L123.8625 296.76852Q123.8625 297.6904 123.50313 298.42477Q123.14375 299.15915 122.4875 299.58102Q121.83125 299.98727 120.97188 299.98727Q119.69063 299.98727 118.87813 299.09665Q118.08125 298.1904 118.08125 296.70602L118.08125 296.6279ZM119.175 296.76852Q119.175 297.8154 119.65938 298.45602Q120.15938 299.09665 120.97188 299.09665Q121.8 299.09665 122.28438 298.45602Q122.76875 297.79977 122.76875 296.6279Q122.76875 295.59665 122.26875 294.95602Q121.78438 294.29977 120.95625 294.29977Q120.15938 294.29977 119.65938 294.9404Q119.175 295.5654 119.175 296.76852ZM126.84688 291.98727L126.84688 293.51852L128.01875 293.51852L128.01875 294.36227L126.84688 294.36227L126.84688 298.28415Q126.84688 298.67477 127.00313 298.86227Q127.15938 299.04977 127.53438 299.04977Q127.72188 299.04977 128.05 298.98727L128.05 299.86227Q127.62813 299.98727 127.22188 299.98727Q126.50313 299.98727 126.12813 299.54977Q125.75313 299.09665 125.75313 298.28415L125.75313 294.36227L124.59688 294.36227L124.59688 293.51852L125.75313 293.51852L125.75313 291.98727L126.84688 291.98727Z" fill-rule="nonzero"/><path fill="#9e9e9e" d="M24.846874 317.86227L19.253124 317.86227L19.253124 317.08102L22.20625 313.79977Q22.8625 313.04977 23.1125 312.59665Q23.3625 312.1279 23.3625 311.6279Q23.3625 310.95602 22.95625 310.53415Q22.565624 310.09665 21.878124 310.09665Q21.08125 310.09665 20.628124 310.5654Q20.175 311.01852 20.175 311.84665L19.096874 311.84665Q19.096874 310.65915 19.846874 309.9404Q20.6125 309.20602 21.878124 309.20602Q23.08125 309.20602 23.76875 309.83102Q24.45625 310.45602 24.45625 311.5029Q24.45625 312.7529 22.846874 314.5029L20.565624 316.97165L24.846874 316.97165L24.846874 317.86227ZM26.753124 313.58102L27.190624 309.33102L31.565624 309.33102L31.565624 310.33102L28.1125 310.33102L27.846874 312.65915Q28.4875 312.28415 29.284374 312.28415Q30.440624 312.28415 31.128124 313.0654Q31.815624 313.83102 31.815624 315.14352Q31.815624 316.45602 31.096874 317.22165Q30.39375 317.98727 29.1125 317.98727Q27.9875 317.98727 27.26875 317.36227Q26.55 316.72165 26.45625 315.61227L27.471874 315.61227Q27.58125 316.34665 28.003124 316.72165Q28.425 317.09665 29.1125 317.09665Q29.8625 317.09665 30.3 316.58102Q30.7375 316.0654 30.7375 315.15915Q30.7375 314.29977 30.26875 313.78415Q29.8 313.26852 29.01875 313.26852Q28.315624 313.26852 27.909374 313.5654L27.628124 313.79977L26.753124 313.58102ZM33.39375 317.29977Q33.39375 317.01852 33.55 316.83102Q33.721874 316.64352 34.05 316.64352Q34.39375 316.64352 34.565624 316.83102Q34.7375 317.01852 34.7375 317.29977Q34.7375 317.5654 34.565624 317.7529Q34.39375 317.92477 34.05 317.92477Q33.721874 317.92477 33.55 317.7529Q33.39375 317.5654 33.39375 317.29977ZM41.76875 309.9404L38.2375 317.86227L37.096874 317.86227L40.6125 310.22165L36.003124 310.22165L36.003124 309.33102L41.76875 309.33102L41.76875 309.9404ZM43.159374 310.97165Q43.159374 310.20602 43.64375 309.70602Q44.14375 309.20602 44.909374 309.20602Q45.690624 309.20602 46.175 309.70602Q46.659374 310.20602 46.659374 311.0029L46.659374 311.42477Q46.659374 312.1904 46.159374 312.6904Q45.675 313.17477 44.925 313.17477Q44.159374 313.17477 43.659374 312.6904Q43.159374 312.1904 43.159374 311.3779L43.159374 310.97165ZM43.971874 311.42477Q43.971874 311.8779 44.221874 312.17477Q44.4875 312.47165 44.925 312.47165Q45.346874 312.47165 45.596874 312.1904Q45.846874 311.89352 45.846874 311.39352L45.846874 310.97165Q45.846874 310.51852 45.596874 310.22165Q45.346874 309.90915 44.909374 309.90915Q44.471874 309.90915 44.221874 310.22165Q43.971874 310.51852 43.971874 310.98727L43.971874 311.42477ZM47.315624 315.76852Q47.315624 315.0029 47.8 314.51852Q48.3 314.01852 49.065624 314.01852Q49.83125 314.01852 50.315624 314.51852Q50.815624 315.0029 50.815624 315.8154L50.815624 316.22165Q50.815624 316.98727 50.33125 317.48727Q49.846874 317.98727 49.08125 317.98727Q48.315624 317.98727 47.815624 317.5029Q47.315624 317.0029 47.315624 316.1904L47.315624 315.76852ZM48.128124 316.22165Q48.128124 316.6904 48.378124 316.98727Q48.64375 317.28415 49.08125 317.28415Q49.503124 317.28415 49.753124 317.0029Q50.003124 316.70602 50.003124 316.20602L50.003124 315.76852Q50.003124 315.29977 49.7375 315.01852Q49.4875 314.72165 49.065624 314.72165Q48.64375 314.72165 48.378124 315.01852Q48.128124 315.29977 48.128124 315.79977L48.128124 316.22165ZM45.175 317.22165L44.55 316.83102L48.721874 310.15915L49.33125 310.54977L45.175 317.22165Z" fill-rule="nonzero"/><path stroke="#757575" stroke-width="1.0" stroke-linecap="butt" d="M18.55 304.36227L145.23334 304.36227L200.81607 304.36227" fill-rule="nonzero"/><path fill="#9e9e9e" d="M202.81607 304.36227C202.81607 303.2577 201.92064 302.36227 200.81607 302.36227C199.7115 302.36227 198.81607 303.2577 198.81607 304.36227C198.81607 305.46683 199.7115 306.36227 200.81607 306.36227C201.92064 306.36227 202.81607 305.46683 202.81607 304.36227" fill-rule="nonzero"/><path fill="#757575" d="M511.4344 80.082985L511.4344 71.551735L513.85626 71.551735Q514.96564 71.551735 515.8094 72.051735Q516.66876 72.53611 517.1375 73.44236Q517.60626 74.34861 517.60626 75.53611L517.60626 76.06736Q517.60626 77.28611 517.1375 78.19236Q516.6844 79.09861 515.8094 79.582985Q514.95 80.06736 513.8094 80.082985L511.4344 80.082985ZM512.5594 72.47361L512.5594 79.16111L513.7469 79.16111Q515.04376 79.16111 515.7625 78.364235Q516.4969 77.551735 516.4969 76.051735L516.4969 75.551735Q516.4969 74.09861 515.8094 73.301735Q515.1375 72.489235 513.8719 72.47361L512.5594 72.47361ZM521.90314 80.207985Q520.60626 80.207985 519.79376 79.364235Q518.9969 78.50486 518.9969 77.082985L518.9969 76.895485Q518.9969 75.94236 519.35626 75.207985Q519.71564 74.457985 520.35626 74.051735Q521.0125 73.62986 521.7625 73.62986Q522.9969 73.62986 523.6844 74.44236Q524.3719 75.25486 524.3719 76.770485L524.3719 77.22361L520.075 77.22361Q520.10626 78.16111 520.6219 78.739235Q521.15314 79.31736 521.96564 79.31736Q522.52814 79.31736 522.91876 79.082985Q523.325 78.84861 523.6375 78.457985L524.29376 78.97361Q523.4969 80.207985 521.90314 80.207985ZM521.7625 74.520485Q521.10626 74.520485 520.65314 75.00486Q520.21564 75.47361 520.1219 76.332985L523.29376 76.332985L523.29376 76.25486Q523.2469 75.426735 522.84064 74.97361Q522.45 74.520485 521.7625 74.520485ZM525.8094 80.082985L525.8094 74.582985L524.8094 74.582985L524.8094 73.739235L525.8094 73.739235L525.8094 73.09861Q525.8094 72.06736 526.34064 71.520485Q526.8875 70.957985 527.8875 70.957985Q528.2625 70.957985 528.6375 71.051735L528.575 71.94236Q528.29376 71.87986 527.9969 71.87986Q527.46564 71.87986 527.16876 72.19236Q526.8875 72.50486 526.8875 73.06736L526.8875 73.739235L528.2469 73.739235L528.2469 74.582985L526.8875 74.582985L526.8875 80.082985L525.8094 80.082985ZM530.45 80.082985L529.3719 80.082985L529.3719 73.739235L530.45 73.739235L530.45 80.082985ZM529.27814 72.06736Q529.27814 71.801735 529.4344 71.614235Q529.60626 71.426735 529.91876 71.426735Q530.23126 71.426735 530.3875 71.614235Q530.5594 71.801735 530.5594 72.06736Q530.5594 72.31736 530.3875 72.50486Q530.23126 72.676735 529.91876 72.676735Q529.60626 72.676735 529.4344 72.50486Q529.27814 72.31736 529.27814 72.06736ZM533.29376 73.739235L533.325 74.53611Q534.0594 73.62986 535.23126 73.62986Q537.2469 73.62986 537.2625 75.895485L537.2625 80.082985L536.16876 80.082985L536.16876 75.87986Q536.16876 75.207985 535.85626 74.87986Q535.5594 74.551735 534.90314 74.551735Q534.3719 74.551735 533.96564 74.832985Q533.575 75.114235 533.35626 75.56736L533.35626 80.082985L532.27814 80.082985L532.27814 73.739235L533.29376 73.739235ZM540.45 80.082985L539.3719 80.082985L539.3719 73.739235L540.45 73.739235L540.45 80.082985ZM539.27814 72.06736Q539.27814 71.801735 539.4344 71.614235Q539.60626 71.426735 539.91876 71.426735Q540.23126 71.426735 540.3875 71.614235Q540.5594 71.801735 540.5594 72.06736Q540.5594 72.31736 540.3875 72.50486Q540.23126 72.676735 539.91876 72.676735Q539.60626 72.676735 539.4344 72.50486Q539.27814 72.31736 539.27814 72.06736ZM543.7469 72.207985L543.7469 73.739235L544.91876 73.739235L544.91876 74.582985L543.7469 74.582985L543.7469 78.50486Q543.7469 78.895485 543.90314 79.082985Q544.0594 79.270485 544.4344 79.270485Q544.6219 79.270485 544.95 79.207985L544.95 80.082985Q544.52814 80.207985 544.1219 80.207985Q543.40314 80.207985 543.02814 79.770485Q542.65314 79.31736 542.65314 78.50486L542.65314 74.582985L541.4969 74.582985L541.4969 73.739235L542.65314 73.739235L542.65314 72.207985L543.7469 72.207985ZM548.90314 80.207985Q547.60626 80.207985 546.79376 79.364235Q545.9969 78.50486 545.9969 77.082985L545.9969 76.895485Q545.9969 75.94236 546.35626 75.207985Q546.71564 74.457985 547.35626 74.051735Q548.0125 73.62986 548.7625 73.62986Q549.9969 73.62986 550.6844 74.44236Q551.3719 75.25486 551.3719 76.770485L551.3719 77.22361L547.075 77.22361Q547.10626 78.16111 547.6219 78.739235Q548.15314 79.31736 548.96564 79.31736Q549.52814 79.31736 549.91876 79.082985Q550.325 78.84861 550.6375 78.457985L551.29376 78.97361Q550.4969 80.207985 548.90314 80.207985ZM548.7625 74.520485Q548.10626 74.520485 547.65314 75.00486Q547.21564 75.47361 547.1219 76.332985L550.29376 76.332985L550.29376 76.25486Q550.2469 75.426735 549.84064 74.97361Q549.45 74.520485 548.7625 74.520485ZM553.45 80.082985L552.3719 80.082985L552.3719 71.082985L553.45 71.082985L553.45 80.082985ZM557.34064 78.489235L558.825 73.739235L559.98126 73.739235L557.4344 81.06736Q556.84064 82.645485 555.5594 82.645485L555.34064 82.62986L554.95 82.551735L554.95 81.676735L555.23126 81.69236Q555.79376 81.69236 556.09064 81.47361Q556.40314 81.25486 556.60626 80.66111L556.84064 80.00486L554.575 73.739235L555.7625 73.739235L557.34064 78.489235ZM566.34064 78.489235L567.825 73.739235L568.98126 73.739235L566.4344 81.06736Q565.84064 82.645485 564.5594 82.645485L564.34064 82.62986L563.95 82.551735L563.95 81.676735L564.23126 81.69236Q564.79376 81.69236 565.09064 81.47361Q565.40314 81.25486 565.60626 80.66111L565.84064 80.00486L563.575 73.739235L564.7625 73.739235L566.34064 78.489235ZM572.90314 80.207985Q571.60626 80.207985 570.79376 79.364235Q569.9969 78.50486 569.9969 77.082985L569.9969 76.895485Q569.9969 75.94236 570.35626 75.207985Q570.71564 74.457985 571.35626 74.051735Q572.0125 73.62986 572.7625 73.62986Q573.9969 73.62986 574.6844 74.44236Q575.3719 75.25486 575.3719 76.770485L575.3719 77.22361L571.075 77.22361Q571.10626 78.16111 571.6219 78.739235Q572.15314 79.31736 572.96564 79.31736Q573.52814 79.31736 573.91876 79.082985Q574.325 78.84861 574.6375 78.457985L575.29376 78.97361Q574.4969 80.207985 572.90314 80.207985ZM572.7625 74.520485Q572.10626 74.520485 571.65314 75.00486Q571.21564 75.47361 571.1219 76.332985L574.29376 76.332985L574.29376 76.25486Q574.2469 75.426735 573.84064 74.97361Q573.45 74.520485 572.7625 74.520485ZM579.96564 78.395485Q579.96564 77.957985 579.6219 77.72361Q579.29376 77.47361 578.46564 77.301735Q577.65314 77.12986 577.16876 76.87986Q576.6844 76.62986 576.45 76.301735Q576.23126 75.957985 576.23126 75.489235Q576.23126 74.707985 576.8875 74.176735Q577.54376 73.62986 578.575 73.62986Q579.65314 73.62986 580.3094 74.19236Q580.98126 74.739235 580.98126 75.59861L579.90314 75.59861Q579.90314 75.16111 579.5125 74.84861Q579.1375 74.520485 578.575 74.520485Q577.98126 74.520485 577.6375 74.78611Q577.3094 75.03611 577.3094 75.44236Q577.3094 75.832985 577.6219 76.03611Q577.9344 76.239235 578.7469 76.426735Q579.5594 76.59861 580.0594 76.84861Q580.5594 77.09861 580.79376 77.457985Q581.04376 77.81736 581.04376 78.31736Q581.04376 79.176735 580.35626 79.69236Q579.6844 80.207985 578.60626 80.207985Q577.84064 80.207985 577.2469 79.94236Q576.66876 79.66111 576.34064 79.176735Q576.0125 78.69236 576.0125 78.12986L577.09064 78.12986Q577.1219 78.676735 577.52814 79.00486Q577.9344 79.31736 578.60626 79.31736Q579.21564 79.31736 579.59064 79.06736Q579.96564 78.81736 579.96564 78.395485Z" fill-rule="nonzero"/><path fill="#9e9e9e" d="M552.71564 98.082985L551.6375 98.082985L551.6375 90.864235L549.45 91.66111L549.45 90.676735L552.5594 89.50486L552.71564 89.50486L552.71564 98.082985ZM561.34064 91.770485Q561.34064 92.41111 560.9969 92.91111Q560.65314 93.41111 560.09064 93.69236Q560.7469 93.97361 561.1375 94.53611Q561.52814 95.082985 561.52814 95.78611Q561.52814 96.87986 560.77814 97.551735Q560.04376 98.207985 558.825 98.207985Q557.59064 98.207985 556.84064 97.551735Q556.10626 96.87986 556.10626 95.78611Q556.10626 95.082985 556.48126 94.53611Q556.85626 93.97361 557.52814 93.69236Q556.96564 93.41111 556.6375 92.91111Q556.3094 92.41111 556.3094 91.770485Q556.3094 90.69236 556.9969 90.06736Q557.6844 89.426735 558.825 89.426735Q559.95 89.426735 560.6375 90.06736Q561.34064 90.69236 561.34064 91.770485ZM560.45 95.75486Q560.45 95.03611 559.9969 94.59861Q559.54376 94.145485 558.8094 94.145485Q558.075 94.145485 557.6219 94.59861Q557.1844 95.03611 557.1844 95.770485Q557.1844 96.489235 557.6219 96.91111Q558.0594 97.31736 558.825 97.31736Q559.575 97.31736 560.0125 96.895485Q560.45 96.47361 560.45 95.75486ZM558.825 90.31736Q558.1844 90.31736 557.77814 90.72361Q557.3875 91.114235 557.3875 91.801735Q557.3875 92.44236 557.77814 92.84861Q558.16876 93.25486 558.8094 93.25486Q559.46564 93.25486 559.85626 92.84861Q560.2469 92.44236 560.2469 91.801735Q560.2469 91.145485 559.84064 90.739235Q559.4344 90.31736 558.825 90.31736ZM563.29376 97.520485Q563.29376 97.239235 563.45 97.051735Q563.6219 96.864235 563.95 96.864235Q564.29376 96.864235 564.46564 97.051735Q564.6375 97.239235 564.6375 97.520485Q564.6375 97.78611 564.46564 97.97361Q564.29376 98.145485 563.95 98.145485Q563.6219 98.145485 563.45 97.97361Q563.29376 97.78611 563.29376 97.520485ZM569.71564 98.082985L568.6375 98.082985L568.6375 90.864235L566.45 91.66111L566.45 90.676735L569.5594 89.50486L569.71564 89.50486L569.71564 98.082985ZM573.0594 91.19236Q573.0594 90.426735 573.54376 89.926735Q574.04376 89.426735 574.8094 89.426735Q575.59064 89.426735 576.075 89.926735Q576.5594 90.426735 576.5594 91.22361L576.5594 91.645485Q576.5594 92.41111 576.0594 92.91111Q575.575 93.395485 574.825 93.395485Q574.0594 93.395485 573.5594 92.91111Q573.0594 92.41111 573.0594 91.59861L573.0594 91.19236ZM573.8719 91.645485Q573.8719 92.09861 574.1219 92.395485Q574.3875 92.69236 574.825 92.69236Q575.2469 92.69236 575.4969 92.41111Q575.7469 92.114235 575.7469 91.614235L575.7469 91.19236Q575.7469 90.739235 575.4969 90.44236Q575.2469 90.12986 574.8094 90.12986Q574.3719 90.12986 574.1219 90.44236Q573.8719 90.739235 573.8719 91.207985L573.8719 91.645485ZM577.21564 95.989235Q577.21564 95.22361 577.7 94.739235Q578.2 94.239235 578.96564 94.239235Q579.73126 94.239235 580.21564 94.739235Q580.71564 95.22361 580.71564 96.03611L580.71564 96.44236Q580.71564 97.207985 580.23126 97.707985Q579.7469 98.207985 578.98126 98.207985Q578.21564 98.207985 577.71564 97.72361Q577.21564 97.22361 577.21564 96.41111L577.21564 95.989235ZM578.02814 96.44236Q578.02814 96.91111 578.27814 97.207985Q578.54376 97.50486 578.98126 97.50486Q579.40314 97.50486 579.65314 97.22361Q579.90314 96.926735 579.90314 96.426735L579.90314 95.989235Q579.90314 95.520485 579.6375 95.239235Q579.3875 94.94236 578.96564 94.94236Q578.54376 94.94236 578.27814 95.239235Q578.02814 95.520485 578.02814 96.020485L578.02814 96.44236ZM575.075 97.44236L574.45 97.051735L578.6219 90.37986L579.23126 90.770485L575.075 97.44236Z" fill-rule="nonzero"/><path stroke="#757575" stroke-width="1.0" stroke-linecap="butt" d="M581.45 84.582985L454.76666 84.582985L376.0842 84.582985" fill-rule="nonzero"/><path fill="#9e9e9e" d="M378.0842 84.582985C378.0842 83.47842 377.18875 82.582985 376.0842 82.582985C374.9796 82.582985 374.0842 83.47842 374.0842 84.582985C374.0842 85.68755 374.9796 86.582985 376.0842 86.582985C377.18875 86.582985 378.0842 85.68755 378.0842 84.582985" fill-rule="nonzero"/><path fill="#757575" d="M513.5594 270.1336L513.5594 273.47736L512.4344 273.47736L512.4344 264.9461L515.59064 264.9461Q516.98126 264.9461 517.77814 265.66486Q518.575 266.36798 518.575 267.55548Q518.575 268.78986 517.79376 269.46173Q517.02814 270.1336 515.575 270.1336L513.5594 270.1336ZM513.5594 269.21173L515.59064 269.21173Q516.4969 269.21173 516.96564 268.78986Q517.45 268.36798 517.45 267.5711Q517.45 266.80548 516.96564 266.35236Q516.4969 265.8836 515.65314 265.86798L513.5594 265.86798L513.5594 269.21173ZM523.34064 268.10236Q523.09064 268.0711 522.8094 268.0711Q521.73126 268.0711 521.35626 268.97736L521.35626 273.47736L520.27814 273.47736L520.27814 267.1336L521.325 267.1336L521.34064 267.86798Q521.8719 267.02423 522.85626 267.02423Q523.16876 267.02423 523.34064 267.10236L523.34064 268.10236ZM523.98126 270.24298Q523.98126 269.3211 524.34064 268.5711Q524.71564 267.8211 525.3719 267.43048Q526.02814 267.02423 526.85626 267.02423Q528.15314 267.02423 528.95 267.91486Q529.7625 268.80548 529.7625 270.30548L529.7625 270.3836Q529.7625 271.30548 529.40314 272.03986Q529.04376 272.77423 528.3875 273.1961Q527.73126 273.60236 526.8719 273.60236Q525.59064 273.60236 524.77814 272.71173Q523.98126 271.80548 523.98126 270.3211L523.98126 270.24298ZM525.075 270.3836Q525.075 271.43048 525.5594 272.0711Q526.0594 272.71173 526.8719 272.71173Q527.7 272.71173 528.1844 272.0711Q528.66876 271.41486 528.66876 270.24298Q528.66876 269.21173 528.16876 268.5711Q527.6844 267.91486 526.85626 267.91486Q526.0594 267.91486 525.5594 268.55548Q525.075 269.18048 525.075 270.3836ZM536.6375 270.3836Q536.6375 271.83673 535.96564 272.72736Q535.3094 273.60236 534.1844 273.60236Q532.98126 273.60236 532.325 272.74298L532.2625 273.47736L531.27814 273.47736L531.27814 264.47736L532.35626 264.47736L532.35626 267.83673Q533.0125 267.02423 534.16876 267.02423Q535.325 267.02423 535.98126 267.89923Q536.6375 268.7586 536.6375 270.28986L536.6375 270.3836ZM535.5594 270.2586Q535.5594 269.14923 535.1219 268.55548Q534.7 267.9461 533.90314 267.9461Q532.825 267.9461 532.35626 268.93048L532.35626 271.68048Q532.85626 272.68048 533.90314 272.68048Q534.6844 272.68048 535.1219 272.0711Q535.5594 271.46173 535.5594 270.2586ZM542.1844 273.47736Q542.09064 273.28986 542.02814 272.80548Q541.27814 273.60236 540.23126 273.60236Q539.29376 273.60236 538.6844 273.0711Q538.09064 272.53986 538.09064 271.71173Q538.09064 270.72736 538.84064 270.18048Q539.59064 269.6336 540.96564 269.6336L542.0125 269.6336L542.0125 269.1336Q542.0125 268.5711 541.66876 268.24298Q541.34064 267.89923 540.66876 267.89923Q540.09064 267.89923 539.7 268.1961Q539.3094 268.47736 539.3094 268.89923L538.21564 268.89923Q538.21564 268.41486 538.54376 267.97736Q538.8875 267.53986 539.46564 267.28986Q540.04376 267.02423 540.73126 267.02423Q541.84064 267.02423 542.45 267.5711Q543.075 268.11798 543.10626 269.0711L543.10626 271.99298Q543.10626 272.86798 543.325 273.3836L543.325 273.47736L542.1844 273.47736ZM540.3875 272.64923Q540.90314 272.64923 541.35626 272.3836Q541.8094 272.11798 542.0125 271.6961L542.0125 270.39923L541.16876 270.39923Q539.16876 270.39923 539.16876 271.5711Q539.16876 272.0711 539.5125 272.36798Q539.85626 272.64923 540.3875 272.64923ZM550.6375 270.3836Q550.6375 271.83673 549.96564 272.72736Q549.3094 273.60236 548.1844 273.60236Q546.98126 273.60236 546.325 272.74298L546.2625 273.47736L545.27814 273.47736L545.27814 264.47736L546.35626 264.47736L546.35626 267.83673Q547.0125 267.02423 548.16876 267.02423Q549.325 267.02423 549.98126 267.89923Q550.6375 268.7586 550.6375 270.28986L550.6375 270.3836ZM549.5594 270.2586Q549.5594 269.14923 549.1219 268.55548Q548.7 267.9461 547.90314 267.9461Q546.825 267.9461 546.35626 268.93048L546.35626 271.68048Q546.85626 272.68048 547.90314 272.68048Q548.6844 272.68048 549.1219 272.0711Q549.5594 271.46173 549.5594 270.2586ZM553.45 273.47736L552.3719 273.47736L552.3719 264.47736L553.45 264.47736L553.45 273.47736ZM557.34064 271.8836L558.825 267.1336L559.98126 267.1336L557.4344 274.46173Q556.84064 276.03986 555.5594 276.03986L555.34064 276.02423L554.95 275.9461L554.95 275.0711L555.23126 275.08673Q555.79376 275.08673 556.09064 274.86798Q556.40314 274.64923 556.60626 274.05548L556.84064 273.39923L554.575 267.1336L555.7625 267.1336L557.34064 271.8836ZM566.34064 271.8836L567.825 267.1336L568.98126 267.1336L566.4344 274.46173Q565.84064 276.03986 564.5594 276.03986L564.34064 276.02423L563.95 275.9461L563.95 275.0711L564.23126 275.08673Q564.79376 275.08673 565.09064 274.86798Q565.40314 274.64923 565.60626 274.05548L565.84064 273.39923L563.575 267.1336L564.7625 267.1336L566.34064 271.8836ZM572.90314 273.60236Q571.60626 273.60236 570.79376 272.7586Q569.9969 271.89923 569.9969 270.47736L569.9969 270.28986Q569.9969 269.33673 570.35626 268.60236Q570.71564 267.85236 571.35626 267.4461Q572.0125 267.02423 572.7625 267.02423Q573.9969 267.02423 574.6844 267.83673Q575.3719 268.64923 575.3719 270.16486L575.3719 270.61798L571.075 270.61798Q571.10626 271.55548 571.6219 272.1336Q572.15314 272.71173 572.96564 272.71173Q573.52814 272.71173 573.91876 272.47736Q574.325 272.24298 574.6375 271.85236L575.29376 272.36798Q574.4969 273.60236 572.90314 273.60236ZM572.7625 267.91486Q572.10626 267.91486 571.65314 268.39923Q571.21564 268.86798 571.1219 269.72736L574.29376 269.72736L574.29376 269.64923Q574.2469 268.8211 573.84064 268.36798Q573.45 267.91486 572.7625 267.91486ZM579.96564 271.78986Q579.96564 271.35236 579.6219 271.11798Q579.29376 270.86798 578.46564 270.6961Q577.65314 270.52423 577.16876 270.27423Q576.6844 270.02423 576.45 269.6961Q576.23126 269.35236 576.23126 268.8836Q576.23126 268.10236 576.8875 267.5711Q577.54376 267.02423 578.575 267.02423Q579.65314 267.02423 580.3094 267.58673Q580.98126 268.1336 580.98126 268.99298L579.90314 268.99298Q579.90314 268.55548 579.5125 268.24298Q579.1375 267.91486 578.575 267.91486Q577.98126 267.91486 577.6375 268.18048Q577.3094 268.43048 577.3094 268.83673Q577.3094 269.22736 577.6219 269.43048Q577.9344 269.6336 578.7469 269.8211Q579.5594 269.99298 580.0594 270.24298Q580.5594 270.49298 580.79376 270.85236Q581.04376 271.21173 581.04376 271.71173Q581.04376 272.5711 580.35626 273.08673Q579.6844 273.60236 578.60626 273.60236Q577.84064 273.60236 577.2469 273.33673Q576.66876 273.05548 576.34064 272.5711Q576.0125 272.08673 576.0125 271.52423L577.09064 271.52423Q577.1219 272.0711 577.52814 272.39923Q577.9344 272.71173 578.60626 272.71173Q579.21564 272.71173 579.59064 272.46173Q579.96564 272.21173 579.96564 271.78986Z" fill-rule="nonzero"/><path fill="#9e9e9e" d="M550.73126 286.68048L551.54376 286.68048Q552.325 286.66486 552.7625 286.27423Q553.2 285.8836 553.2 285.21173Q553.2 283.71173 551.7 283.71173Q550.9969 283.71173 550.575 284.11798Q550.16876 284.52423 550.16876 285.18048L549.075 285.18048Q549.075 284.16486 549.8094 283.49298Q550.5594 282.8211 551.7 282.8211Q552.90314 282.8211 553.59064 283.46173Q554.27814 284.10236 554.27814 285.24298Q554.27814 285.80548 553.91876 286.3211Q553.5594 286.83673 552.9344 287.10236Q553.6375 287.3211 554.0125 287.83673Q554.40314 288.35236 554.40314 289.10236Q554.40314 290.24298 553.65314 290.93048Q552.90314 291.60236 551.7 291.60236Q550.5125 291.60236 549.7469 290.9461Q548.9969 290.28986 548.9969 289.22736L550.09064 289.22736Q550.09064 289.89923 550.52814 290.30548Q550.96564 290.71173 551.71564 290.71173Q552.4969 290.71173 552.90314 290.30548Q553.325 289.8836 553.325 289.11798Q553.325 288.3836 552.8719 287.99298Q552.41876 287.58673 551.54376 287.5711L550.73126 287.5711L550.73126 286.68048ZM559.71564 291.47736L558.6375 291.47736L558.6375 284.2586L556.45 285.05548L556.45 284.0711L559.5594 282.89923L559.71564 282.89923L559.71564 291.47736ZM563.29376 290.91486Q563.29376 290.6336 563.45 290.4461Q563.6219 290.2586 563.95 290.2586Q564.29376 290.2586 564.46564 290.4461Q564.6375 290.6336 564.6375 290.91486Q564.6375 291.18048 564.46564 291.36798Q564.29376 291.53986 563.95 291.53986Q563.6219 291.53986 563.45 291.36798Q563.29376 291.18048 563.29376 290.91486ZM570.73126 288.61798L571.91876 288.61798L571.91876 289.49298L570.73126 289.49298L570.73126 291.47736L569.65314 291.47736L569.65314 289.49298L565.7625 289.49298L565.7625 288.85236L569.575 282.9461L570.73126 282.9461L570.73126 288.61798ZM566.9969 288.61798L569.65314 288.61798L569.65314 284.43048L569.5125 284.66486L566.9969 288.61798ZM573.0594 284.58673Q573.0594 283.8211 573.54376 283.3211Q574.04376 282.8211 574.8094 282.8211Q575.59064 282.8211 576.075 283.3211Q576.5594 283.8211 576.5594 284.61798L576.5594 285.03986Q576.5594 285.80548 576.0594 286.30548Q575.575 286.78986 574.825 286.78986Q574.0594 286.78986 573.5594 286.30548Q573.0594 285.80548 573.0594 284.99298L573.0594 284.58673ZM573.8719 285.03986Q573.8719 285.49298 574.1219 285.78986Q574.3875 286.08673 574.825 286.08673Q575.2469 286.08673 575.4969 285.80548Q575.7469 285.5086 575.7469 285.0086L575.7469 284.58673Q575.7469 284.1336 575.4969 283.83673Q575.2469 283.52423 574.8094 283.52423Q574.3719 283.52423 574.1219 283.83673Q573.8719 284.1336 573.8719 284.60236L573.8719 285.03986ZM577.21564 289.3836Q577.21564 288.61798 577.7 288.1336Q578.2 287.6336 578.96564 287.6336Q579.73126 287.6336 580.21564 288.1336Q580.71564 288.61798 580.71564 289.43048L580.71564 289.83673Q580.71564 290.60236 580.23126 291.10236Q579.7469 291.60236 578.98126 291.60236Q578.21564 291.60236 577.71564 291.11798Q577.21564 290.61798 577.21564 289.80548L577.21564 289.3836ZM578.02814 289.83673Q578.02814 290.30548 578.27814 290.60236Q578.54376 290.89923 578.98126 290.89923Q579.40314 290.89923 579.65314 290.61798Q579.90314 290.3211 579.90314 289.8211L579.90314 289.3836Q579.90314 288.91486 579.6375 288.6336Q579.3875 288.33673 578.96564 288.33673Q578.54376 288.33673 578.27814 288.6336Q578.02814 288.91486 578.02814 289.41486L578.02814 289.83673ZM575.075 290.83673L574.45 290.4461L578.6219 283.77423L579.23126 284.16486L575.075 290.83673Z" fill-rule="nonzero"/><path stroke="#757575" stroke-width="1.0" stroke-linecap="butt" d="M581.45 277.97736L454.76666 277.97736L420.2252 277.97736" fill-rule="nonzero"/><path fill="#9e9e9e" d="M422.2252 277.97736C422.2252 276.87277 421.32977 275.97736 420.2252 275.97736C419.12064 275.97736 418.2252 276.87277 418.2252 277.97736C418.2252 279.0819 419.12064 279.97736 420.2252 279.97736C421.32977 279.97736 422.2252 279.0819 422.2252 277.97736" fill-rule="nonzero"/><path fill="#757575" d="M20.20625 37.55L20.20625 23.33125L24.221874 23.33125Q26.065624 23.33125 27.4875 24.159374Q28.925 24.971874 29.690624 26.4875Q30.471874 28.003124 30.4875 29.95625L30.4875 30.8625Q30.4875 32.878124 29.70625 34.39375Q28.925 35.909374 27.4875 36.721874Q26.05 37.534374 24.14375 37.55L20.20625 37.55ZM22.08125 24.878124L22.08125 36.01875L24.05 36.01875Q26.221874 36.01875 27.425 34.675Q28.628124 33.315624 28.628124 30.83125L28.628124 30.003124Q28.628124 27.58125 27.4875 26.2375Q26.346874 24.89375 24.26875 24.878124L22.08125 24.878124ZM32.440624 32.175Q32.440624 30.6125 33.05 29.378124Q33.659374 28.128124 34.7375 27.45625Q35.83125 26.784374 37.2375 26.784374Q39.39375 26.784374 40.721874 28.284374Q42.065624 29.76875 42.065624 32.253124L42.065624 32.378124Q42.065624 33.925 41.471874 35.159374Q40.878124 36.378124 39.76875 37.065624Q38.675 37.753124 37.253124 37.753124Q35.1125 37.753124 33.76875 36.253124Q32.440624 34.753124 32.440624 32.3L32.440624 32.175ZM34.253124 32.378124Q34.253124 34.14375 35.065624 35.20625Q35.89375 36.26875 37.253124 36.26875Q38.628124 36.26875 39.440624 35.190624Q40.253124 34.1125 40.253124 32.175Q40.253124 30.425 39.425 29.346874Q38.596874 28.26875 37.2375 28.26875Q35.89375 28.26875 35.065624 29.33125Q34.253124 30.39375 34.253124 32.378124ZM52.378124 34.909374L54.83125 26.9875L56.76875 26.9875L52.51875 39.175Q51.534374 41.815624 49.39375 41.815624L49.05 41.784374L48.378124 41.659374L48.378124 40.190624L48.8625 40.2375Q49.784374 40.2375 50.284374 39.8625Q50.8 39.4875 51.128124 38.503124L51.534374 37.425L47.76875 26.9875L49.7375 26.9875L52.378124 34.909374ZM57.440624 32.175Q57.440624 30.6125 58.05 29.378124Q58.659374 28.128124 59.7375 27.45625Q60.83125 26.784374 62.2375 26.784374Q64.39375 26.784374 65.72188 28.284374Q67.06563 29.76875 67.06563 32.253124L67.06563 32.378124Q67.06563 33.925 66.47188 35.159374Q65.87813 36.378124 64.76875 37.065624Q63.675 37.753124 62.253124 37.753124Q60.1125 37.753124 58.76875 36.253124Q57.440624 34.753124 57.440624 32.3L57.440624 32.175ZM59.253124 32.378124Q59.253124 34.14375 60.065624 35.20625Q60.89375 36.26875 62.253124 36.26875Q63.628124 36.26875 64.44063 35.190624Q65.25313 34.1125 65.25313 32.175Q65.25313 30.425 64.425 29.346874Q63.596874 28.26875 62.2375 28.26875Q60.89375 28.26875 60.065624 29.33125Q59.253124 30.39375 59.253124 32.378124ZM75.44063 36.503124Q74.39375 37.753124 72.34688 37.753124Q70.65938 37.753124 69.76875 36.76875Q68.89375 35.784374 68.87813 33.8625L68.87813 26.9875L70.69063 26.9875L70.69063 33.815624Q70.69063 36.20625 72.64375 36.20625Q74.70625 36.20625 75.39375 34.675L75.39375 26.9875L77.20625 26.9875L77.20625 37.55L75.4875 37.55L75.44063 36.503124ZM87.3625 24.425L87.3625 26.9875L89.34688 26.9875L89.34688 28.378124L87.3625 28.378124L87.3625 34.925Q87.3625 35.565624 87.62813 35.89375Q87.89375 36.20625 88.53438 36.20625Q88.84688 36.20625 89.39375 36.08125L89.39375 37.55Q88.675 37.753124 88.00313 37.753124Q86.8 37.753124 86.175 37.01875Q85.56563 36.284374 85.56563 34.925L85.56563 28.378124L83.64375 28.378124L83.64375 26.9875L85.56563 26.9875L85.56563 24.425L87.3625 24.425ZM93.72188 28.26875Q94.925 26.784374 96.84688 26.784374Q100.20625 26.784374 100.22188 30.565624L100.22188 37.55L98.425 37.55L98.425 30.55Q98.40938 29.409374 97.89375 28.8625Q97.39375 28.315624 96.3 28.315624Q95.425 28.315624 94.75313 28.784374Q94.09688 29.253124 93.72188 30.01875L93.72188 37.55L91.925 37.55L91.925 22.55L93.72188 22.55L93.72188 28.26875ZM104.87813 37.55L103.08125 37.55L103.08125 26.9875L104.87813 26.9875L104.87813 37.55ZM102.925 24.175Q102.925 23.7375 103.19063 23.440624Q103.47188 23.128124 103.9875 23.128124Q104.51875 23.128124 104.78438 23.440624Q105.06563 23.7375 105.06563 24.175Q105.06563 24.6125 104.78438 24.909374Q104.51875 25.20625 103.9875 25.20625Q103.47188 25.20625 103.19063 24.909374Q102.925 24.6125 102.925 24.175ZM109.62813 26.9875L109.69063 28.315624Q110.89375 26.784374 112.84688 26.784374Q116.20625 26.784374 116.22188 30.565624L116.22188 37.55L114.425 37.55L114.425 30.55Q114.40938 29.409374 113.89375 28.8625Q113.39375 28.315624 112.3 28.315624Q111.425 28.315624 110.75313 28.784374Q110.09688 29.253124 109.72188 30.01875L109.72188 37.55L107.925 37.55L107.925 26.9875L109.62813 26.9875ZM121.8625 32.659374L120.7375 33.83125L120.7375 37.55L118.925 37.55L118.925 22.55L120.7375 22.55L120.7375 31.628124L121.70625 30.45625L124.9875 26.9875L127.19063 26.9875L123.08125 31.39375L127.675 37.55L125.55 37.55L121.8625 32.659374ZM137.37813 34.909374L139.83125 26.9875L141.76875 26.9875L137.51875 39.175Q136.53438 41.815624 134.39375 41.815624L134.05 41.784374L133.37813 41.659374L133.37813 40.190624L133.8625 40.2375Q134.78438 40.2375 135.28438 39.8625Q135.8 39.4875 136.12813 38.503124L136.53438 37.425L132.76875 26.9875L134.7375 26.9875L137.37813 34.909374ZM142.44063 32.175Q142.44063 30.6125 143.05 29.378124Q143.65938 28.128124 144.7375 27.45625Q145.83125 26.784374 147.2375 26.784374Q149.39375 26.784374 150.72188 28.284374Q152.06563 29.76875 152.06563 32.253124L152.06563 32.378124Q152.06563 33.925 151.47188 35.159374Q150.87813 36.378124 149.76875 37.065624Q148.675 37.753124 147.25313 37.753124Q145.1125 37.753124 143.76875 36.253124Q142.44063 34.753124 142.44063 32.3L142.44063 32.175ZM144.25313 32.378124Q144.25313 34.14375 145.06563 35.20625Q145.89375 36.26875 147.25313 36.26875Q148.62813 36.26875 149.44063 35.190624Q150.25313 34.1125 150.25313 32.175Q150.25313 30.425 149.425 29.346874Q148.59688 28.26875 147.2375 28.26875Q145.89375 28.26875 145.06563 29.33125Q144.25313 30.39375 144.25313 32.378124ZM160.44063 36.503124Q159.39375 37.753124 157.34688 37.753124Q155.65938 37.753124 154.76875 36.76875Q153.89375 35.784374 153.87813 33.8625L153.87813 26.9875L155.69063 26.9875L155.69063 33.815624Q155.69063 36.20625 157.64375 36.20625Q159.70625 36.20625 160.39375 34.675L160.39375 26.9875L162.20625 26.9875L162.20625 37.55L160.4875 37.55L160.44063 36.503124ZM179.26875 35.065624L181.3 26.9875L183.1125 26.9875L180.03438 37.55L178.56563 37.55L176.00313 29.534374L173.50313 37.55L172.03438 37.55L168.97188 26.9875L170.76875 26.9875L172.84688 34.89375L175.31563 26.9875L176.76875 26.9875L179.26875 35.065624ZM184.44063 32.175Q184.44063 30.6125 185.05 29.378124Q185.65938 28.128124 186.7375 27.45625Q187.83125 26.784374 189.2375 26.784374Q191.39375 26.784374 192.72188 28.284374Q194.06563 29.76875 194.06563 32.253124L194.06563 32.378124Q194.06563 33.925 193.47188 35.159374Q192.87813 36.378124 191.76875 37.065624Q190.675 37.753124 189.25313 37.753124Q187.1125 37.753124 185.76875 36.253124Q184.44063 34.753124 184.44063 32.3L184.44063 32.175ZM186.25313 32.378124Q186.25313 34.14375 187.06563 35.20625Q187.89375 36.26875 189.25313 36.26875Q190.62813 36.26875 191.44063 35.190624Q192.25313 34.1125 192.25313 32.175Q192.25313 30.425 191.425 29.346874Q190.59688 28.26875 189.2375 28.26875Q187.89375 28.26875 187.06563 29.33125Q186.25313 30.39375 186.25313 32.378124ZM202.44063 36.503124Q201.39375 37.753124 199.34688 37.753124Q197.65938 37.753124 196.76875 36.76875Q195.89375 35.784374 195.87813 33.8625L195.87813 26.9875L197.69063 26.9875L197.69063 33.815624Q197.69063 36.20625 199.64375 36.20625Q201.70625 36.20625 202.39375 34.675L202.39375 26.9875L204.20625 26.9875L204.20625 37.55L202.4875 37.55L202.44063 36.503124ZM208.87813 37.55L207.08125 37.55L207.08125 22.55L208.87813 22.55L208.87813 37.55ZM211.47188 32.175Q211.47188 29.753124 212.62813 28.26875Q213.78438 26.784374 215.64375 26.784374Q217.50313 26.784374 218.58125 28.05L218.58125 22.55L220.39375 22.55L220.39375 37.55L218.7375 37.55L218.64375 36.409374Q217.56563 37.753124 215.62813 37.753124Q213.8 37.753124 212.62813 36.253124Q211.47188 34.7375 211.47188 32.315624L211.47188 32.175ZM213.28438 32.378124Q213.28438 34.175 214.01875 35.190624Q214.76875 36.20625 216.08125 36.20625Q217.8 36.20625 218.58125 34.675L218.58125 29.815624Q217.78438 28.315624 216.09688 28.315624Q214.76875 28.315624 214.01875 29.346874Q213.28438 30.378124 213.28438 32.378124ZM228.8 37.55L228.8 28.378124L227.14375 28.378124L227.14375 26.9875L228.8 26.9875L228.8 25.89375Q228.8 24.20625 229.70625 23.284374Q230.62813 22.346874 232.28438 22.346874Q232.90938 22.346874 233.51875 22.503124L233.425 23.971874Q232.97188 23.89375 232.45625 23.89375Q231.56563 23.89375 231.08125 24.409374Q230.6125 24.909374 230.6125 25.8625L230.6125 26.9875L232.8625 26.9875L232.8625 28.378124L230.6125 28.378124L230.6125 37.55L228.8 37.55ZM236.87813 37.55L235.08125 37.55L235.08125 26.9875L236.87813 26.9875L236.87813 37.55ZM234.925 24.175Q234.925 23.7375 235.19063 23.440624Q235.47188 23.128124 235.9875 23.128124Q236.51875 23.128124 236.78438 23.440624Q237.06563 23.7375 237.06563 24.175Q237.06563 24.6125 236.78438 24.909374Q236.51875 25.20625 235.9875 25.20625Q235.47188 25.20625 235.19063 24.909374Q234.925 24.6125 234.925 24.175ZM241.62813 26.9875L241.69063 28.315624Q242.89375 26.784374 244.84688 26.784374Q248.20625 26.784374 248.22188 30.565624L248.22188 37.55L246.425 37.55L246.425 30.55Q246.40938 29.409374 245.89375 28.8625Q245.39375 28.315624 244.3 28.315624Q243.425 28.315624 242.75313 28.784374Q242.09688 29.253124 241.72188 30.01875L241.72188 37.55L239.925 37.55L239.925 26.9875L241.62813 26.9875ZM250.47188 32.175Q250.47188 29.753124 251.62813 28.26875Q252.78438 26.784374 254.64375 26.784374Q256.5031 26.784374 257.58124 28.05L257.58124 22.55L259.39374 22.55L259.39374 37.55L257.7375 37.55L257.64374 36.409374Q256.5656 37.753124 254.62813 37.753124Q252.8 37.753124 251.62813 36.253124Q250.47188 34.7375 250.47188 32.315624L250.47188 32.175ZM252.28438 32.378124Q252.28438 34.175 253.01875 35.190624Q253.76875 36.20625 255.08125 36.20625Q256.8 36.20625 257.58124 34.675L257.58124 29.815624Q256.78436 28.315624 255.09688 28.315624Q253.76875 28.315624 253.01875 29.346874Q252.28438 30.378124 252.28438 32.378124ZM273.4406 37.55Q273.28436 37.2375 273.1906 36.440624Q271.925 37.753124 270.175 37.753124Q268.6125 37.753124 267.6125 36.8625Q266.6125 35.971874 266.6125 34.6125Q266.6125 32.971874 267.8625 32.065624Q269.1281 31.14375 271.39374 31.14375L273.15936 31.14375L273.15936 30.315624Q273.15936 29.3625 272.58124 28.8Q272.01874 28.2375 270.925 28.2375Q269.95624 28.2375 269.3 28.7375Q268.64374 29.221874 268.64374 29.909374L266.83124 29.909374Q266.83124 29.128124 267.39374 28.39375Q267.95624 27.64375 268.90936 27.221874Q269.8781 26.784374 271.03436 26.784374Q272.8625 26.784374 273.89374 27.70625Q274.925 28.6125 274.97186 30.221874L274.97186 35.08125Q274.97186 36.534374 275.33124 37.39375L275.33124 37.55L273.4406 37.55ZM270.4406 36.175Q271.3 36.175 272.05 35.7375Q272.8156 35.3 273.15936 34.596874L273.15936 32.425L271.7375 32.425Q268.425 32.425 268.425 34.3625Q268.425 35.221874 268.9875 35.70625Q269.55 36.175 270.4406 36.175ZM279.6281 26.9875L279.6906 28.315624Q280.89374 26.784374 282.84686 26.784374Q286.20624 26.784374 286.22186 30.565624L286.22186 37.55L284.425 37.55L284.425 30.55Q284.40936 29.409374 283.89374 28.8625Q283.39374 28.315624 282.3 28.315624Q281.425 28.315624 280.7531 28.784374Q280.09686 29.253124 279.72186 30.01875L279.72186 37.55L277.925 37.55L277.925 26.9875L279.6281 26.9875ZM304.20624 23.33125L304.20624 33.003124Q304.20624 35.003124 302.9406 36.284374Q301.6906 37.565624 299.55 37.721874L299.05 37.753124Q296.70624 37.753124 295.3156 36.4875Q293.9406 35.221874 293.925 33.01875L293.925 23.33125L295.76874 23.33125L295.76874 32.95625Q295.76874 34.503124 296.6125 35.3625Q297.47186 36.20625 299.05 36.20625Q300.64374 36.20625 301.4875 35.3625Q302.33124 34.51875 302.33124 32.971874L302.33124 23.33125L304.20624 23.33125ZM315.8625 32.378124Q315.8625 34.8 314.7531 36.284374Q313.64374 37.753124 311.76874 37.753124Q309.7531 37.753124 308.65936 36.33125L308.58124 37.55L306.925 37.55L306.925 22.55L308.72186 22.55L308.72186 28.14375Q309.8156 26.784374 311.7375 26.784374Q313.65936 26.784374 314.7531 28.2375Q315.8625 29.690624 315.8625 32.221874L315.8625 32.378124ZM314.05 32.175Q314.05 30.33125 313.33124 29.33125Q312.6281 28.315624 311.3 28.315624Q309.5031 28.315624 308.72186 29.9875L308.72186 34.55Q309.55 36.20625 311.3156 36.20625Q312.6125 36.20625 313.33124 35.20625Q314.05 34.20625 314.05 32.175ZM322.3 37.753124Q320.15936 37.753124 318.8 36.346874Q317.45624 34.925 317.45624 32.565624L317.45624 32.221874Q317.45624 30.659374 318.05 29.425Q318.65936 28.190624 319.7375 27.4875Q320.8156 26.784374 322.08124 26.784374Q324.14374 26.784374 325.28436 28.14375Q326.425 29.503124 326.425 32.034374L326.425 32.784374L319.26874 32.784374Q319.3 34.346874 320.175 35.315624Q321.05 36.26875 322.39374 36.26875Q323.3625 36.26875 324.01874 35.878124Q324.6906 35.4875 325.1906 34.846874L326.28436 35.70625Q324.95624 37.753124 322.3 37.753124ZM322.08124 28.26875Q320.9875 28.26875 320.2375 29.065624Q319.5031 29.8625 319.33124 31.3L324.6125 31.3L324.6125 31.159374Q324.53436 29.784374 323.8625 29.034374Q323.20624 28.26875 322.08124 28.26875ZM334.01874 28.596874Q333.6125 28.534374 333.14374 28.534374Q331.3625 28.534374 330.72186 30.05L330.72186 37.55L328.925 37.55L328.925 26.9875L330.675 26.9875L330.70624 28.20625Q331.59686 26.784374 333.22186 26.784374Q333.7531 26.784374 334.01874 26.925L334.01874 28.596874ZM339.675 32.253124L334.90936 32.253124L334.90936 30.76875L339.675 30.76875L339.675 32.253124ZM343.8781 37.55L342.08124 37.55L342.08124 22.55L343.8781 22.55L343.8781 37.55ZM348.8781 37.55L347.08124 37.55L347.08124 26.9875L348.8781 26.9875L348.8781 37.55ZM346.925 24.175Q346.925 23.7375 347.1906 23.440624Q347.47186 23.128124 347.9875 23.128124Q348.51874 23.128124 348.78436 23.440624Q349.0656 23.7375 349.0656 24.175Q349.0656 24.6125 348.78436 24.909374Q348.51874 25.20625 347.9875 25.20625Q347.47186 25.20625 347.1906 24.909374Q346.925 24.6125 346.925 24.175ZM354.8625 32.659374L353.7375 33.83125L353.7375 37.55L351.925 37.55L351.925 22.55L353.7375 22.55L353.7375 31.628124L354.70624 30.45625L357.9875 26.9875L360.1906 26.9875L356.08124 31.39375L360.675 37.55L358.55 37.55L354.8625 32.659374ZM366.3 37.753124Q364.15936 37.753124 362.8 36.346874Q361.45624 34.925 361.45624 32.565624L361.45624 32.221874Q361.45624 30.659374 362.05 29.425Q362.65936 28.190624 363.7375 27.4875Q364.8156 26.784374 366.08124 26.784374Q368.14374 26.784374 369.28436 28.14375Q370.425 29.503124 370.425 32.034374L370.425 32.784374L363.26874 32.784374Q363.3 34.346874 364.175 35.315624Q365.05 36.26875 366.39374 36.26875Q367.3625 36.26875 368.01874 35.878124Q368.6906 35.4875 369.1906 34.846874L370.28436 35.70625Q368.95624 37.753124 366.3 37.753124ZM366.08124 28.26875Q364.9875 28.26875 364.2375 29.065624Q363.5031 29.8625 363.33124 31.3L368.6125 31.3L368.6125 31.159374Q368.53436 29.784374 367.8625 29.034374Q367.20624 28.26875 366.08124 28.26875ZM384.4406 37.55Q384.28436 37.2375 384.1906 36.440624Q382.925 37.753124 381.175 37.753124Q379.6125 37.753124 378.6125 36.8625Q377.6125 35.971874 377.6125 34.6125Q377.6125 32.971874 378.8625 32.065624Q380.1281 31.14375 382.39374 31.14375L384.15936 31.14375L384.15936 30.315624Q384.15936 29.3625 383.58124 28.8Q383.01874 28.2375 381.925 28.2375Q380.95624 28.2375 380.3 28.7375Q379.64374 29.221874 379.64374 29.909374L377.83124 29.909374Q377.83124 29.128124 378.39374 28.39375Q378.95624 27.64375 379.90936 27.221874Q380.8781 26.784374 382.03436 26.784374Q383.8625 26.784374 384.89374 27.70625Q385.925 28.6125 385.97186 30.221874L385.97186 35.08125Q385.97186 36.534374 386.33124 37.39375L386.33124 37.55L384.4406 37.55ZM381.4406 36.175Q382.3 36.175 383.05 35.7375Q383.8156 35.3 384.15936 34.596874L384.15936 32.425L382.7375 32.425Q379.425 32.425 379.425 34.3625Q379.425 35.221874 379.9875 35.70625Q380.55 36.175 381.4406 36.175ZM397.84686 32.378124Q397.84686 34.8 396.7375 36.284374Q395.64374 37.753124 393.7531 37.753124Q391.83124 37.753124 390.72186 36.51875L390.72186 41.6125L388.925 41.6125L388.925 26.9875L390.5656 26.9875L390.65936 28.159374Q391.7531 26.784374 393.72186 26.784374Q395.6281 26.784374 396.7375 28.221874Q397.84686 29.659374 397.84686 32.221874L397.84686 32.378124ZM396.03436 32.175Q396.03436 30.39375 395.26874 29.3625Q394.51874 28.315624 393.1906 28.315624Q391.55 28.315624 390.72186 29.76875L390.72186 34.83125Q391.53436 36.26875 393.20624 36.26875Q394.5031 36.26875 395.26874 35.2375Q396.03436 34.20625 396.03436 32.175ZM408.84686 32.378124Q408.84686 34.8 407.7375 36.284374Q406.64374 37.753124 404.7531 37.753124Q402.83124 37.753124 401.72186 36.51875L401.72186 41.6125L399.925 41.6125L399.925 26.9875L401.5656 26.9875L401.65936 28.159374Q402.7531 26.784374 404.72186 26.784374Q406.6281 26.784374 407.7375 28.221874Q408.84686 29.659374 408.84686 32.221874L408.84686 32.378124ZM407.03436 32.175Q407.03436 30.39375 406.26874 29.3625Q405.51874 28.315624 404.1906 28.315624Q402.55 28.315624 401.72186 29.76875L401.72186 34.83125Q402.53436 36.26875 404.20624 36.26875Q405.5031 36.26875 406.26874 35.2375Q407.03436 34.20625 407.03436 32.175ZM416.8 37.55L416.8 28.378124L415.14374 28.378124L415.14374 26.9875L416.8 26.9875L416.8 25.89375Q416.8 24.20625 417.70624 23.284374Q418.6281 22.346874 420.28436 22.346874Q420.90936 22.346874 421.51874 22.503124L421.425 23.971874Q420.97186 23.89375 420.45624 23.89375Q419.5656 23.89375 419.08124 24.409374Q418.6125 24.909374 418.6125 25.8625L418.6125 26.9875L420.8625 26.9875L420.8625 28.378124L418.6125 28.378124L418.6125 37.55L416.8 37.55ZM422.4406 32.175Q422.4406 30.6125 423.05 29.378124Q423.65936 28.128124 424.7375 27.45625Q425.83124 26.784374 427.2375 26.784374Q429.39374 26.784374 430.72186 28.284374Q432.0656 29.76875 432.0656 32.253124L432.0656 32.378124Q432.0656 33.925 431.47186 35.159374Q430.8781 36.378124 429.76874 37.065624Q428.675 37.753124 427.2531 37.753124Q425.1125 37.753124 423.76874 36.253124Q422.4406 34.753124 422.4406 32.3L422.4406 32.175ZM424.2531 32.378124Q424.2531 34.14375 425.0656 35.20625Q425.89374 36.26875 427.2531 36.26875Q428.6281 36.26875 429.4406 35.190624Q430.2531 34.1125 430.2531 32.175Q430.2531 30.425 429.425 29.346874Q428.59686 28.26875 427.2375 28.26875Q425.89374 28.26875 425.0656 29.33125Q424.2531 30.39375 424.2531 32.378124ZM439.01874 28.596874Q438.6125 28.534374 438.14374 28.534374Q436.3625 28.534374 435.72186 30.05L435.72186 37.55L433.925 37.55L433.925 26.9875L435.675 26.9875L435.70624 28.20625Q436.59686 26.784374 438.22186 26.784374Q438.7531 26.784374 439.01874 26.925L439.01874 28.596874ZM447.6125 26.9875L447.65936 28.159374Q448.83124 26.784374 450.8 26.784374Q453.01874 26.784374 453.8156 28.4875Q454.34686 27.721874 455.1906 27.253124Q456.03436 26.784374 457.1906 26.784374Q460.65936 26.784374 460.72186 30.471874L460.72186 37.55L458.90936 37.55L458.90936 30.58125Q458.90936 29.440624 458.39374 28.878124Q457.8781 28.315624 456.65936 28.315624Q455.65936 28.315624 454.9875 28.925Q454.33124 29.51875 454.22186 30.534374L454.22186 37.55L452.40936 37.55L452.40936 30.628124Q452.40936 28.315624 450.14374 28.315624Q448.3625 28.315624 447.72186 29.83125L447.72186 37.55L445.90936 37.55L445.90936 26.9875L447.6125 26.9875ZM463.4406 32.175Q463.4406 30.6125 464.05 29.378124Q464.65936 28.128124 465.7375 27.45625Q466.83124 26.784374 468.2375 26.784374Q470.39374 26.784374 471.72186 28.284374Q473.0656 29.76875 473.0656 32.253124L473.0656 32.378124Q473.0656 33.925 472.47186 35.159374Q471.8781 36.378124 470.76874 37.065624Q469.675 37.753124 468.2531 37.753124Q466.1125 37.753124 464.76874 36.253124Q463.4406 34.753124 463.4406 32.3L463.4406 32.175ZM465.2531 32.378124Q465.2531 34.14375 466.0656 35.20625Q466.89374 36.26875 468.2531 36.26875Q469.6281 36.26875 470.4406 35.190624Q471.2531 34.1125 471.2531 32.175Q471.2531 30.425 470.425 29.346874Q469.59686 28.26875 468.2375 28.26875Q466.89374 28.26875 466.0656 29.33125Q465.2531 30.39375 465.2531 32.378124ZM478.40936 35.096874L481.01874 26.9875L482.8625 26.9875L479.08124 37.55L477.70624 37.55L473.8781 26.9875L475.72186 26.9875L478.40936 35.096874ZM486.8781 37.55L485.08124 37.55L485.08124 26.9875L486.8781 26.9875L486.8781 37.55ZM484.925 24.175Q484.925 23.7375 485.1906 23.440624Q485.47186 23.128124 485.9875 23.128124Q486.51874 23.128124 486.78436 23.440624Q487.0656 23.7375 487.0656 24.175Q487.0656 24.6125 486.78436 24.909374Q486.51874 25.20625 485.9875 25.20625Q485.47186 25.20625 485.1906 24.909374Q484.925 24.6125 484.925 24.175ZM491.6281 26.9875L491.6906 28.315624Q492.89374 26.784374 494.84686 26.784374Q498.20624 26.784374 498.22186 30.565624L498.22186 37.55L496.425 37.55L496.425 30.55Q496.40936 29.409374 495.89374 28.8625Q495.39374 28.315624 494.3 28.315624Q493.425 28.315624 492.7531 28.784374Q492.09686 29.253124 491.72186 30.01875L491.72186 37.55L489.925 37.55L489.925 26.9875L491.6281 26.9875ZM500.4875 32.175Q500.4875 29.70625 501.6281 28.253124Q502.76874 26.784374 504.65936 26.784374Q506.59686 26.784374 507.675 28.159374L507.76874 26.9875L509.40936 26.9875L509.40936 37.3Q509.40936 39.346874 508.1906 40.51875Q506.9875 41.70625 504.925 41.70625Q503.78436 41.70625 502.6906 41.221874Q501.59686 40.7375 501.01874 39.878124L501.95624 38.8Q503.1281 40.2375 504.8 40.2375Q506.1281 40.2375 506.8625 39.4875Q507.59686 38.753124 507.59686 37.409374L507.59686 36.4875Q506.51874 37.753124 504.64374 37.753124Q502.78436 37.753124 501.6281 36.253124Q500.4875 34.753124 500.4875 32.175ZM502.3 32.378124Q502.3 34.175 503.03436 35.190624Q503.76874 36.20625 505.08124 36.20625Q506.8 36.20625 507.59686 34.659374L507.59686 29.83125Q506.76874 28.315624 505.1125 28.315624Q503.78436 28.315624 503.03436 29.346874Q502.3 30.378124 502.3 32.378124ZM523.4406 36.503124Q522.39374 37.753124 520.34686 37.753124Q518.65936 37.753124 517.76874 36.76875Q516.89374 35.784374 516.8781 33.8625L516.8781 26.9875L518.6906 26.9875L518.6906 33.815624Q518.6906 36.20625 520.64374 36.20625Q522.70624 36.20625 523.39374 34.675L523.39374 26.9875L525.20624 26.9875L525.20624 37.55L523.4875 37.55L523.4406 36.503124ZM534.0656 34.753124Q534.0656 34.01875 533.51874 33.6125Q532.97186 33.20625 531.59686 32.909374Q530.22186 32.6125 529.40936 32.20625Q528.6125 31.8 528.22186 31.2375Q527.84686 30.659374 527.84686 29.878124Q527.84686 28.58125 528.9406 27.690624Q530.03436 26.784374 531.7531 26.784374Q533.55 26.784374 534.65936 27.721874Q535.78436 28.64375 535.78436 30.08125L533.95624 30.08125Q533.95624 29.346874 533.33124 28.815624Q532.70624 28.26875 531.7531 28.26875Q530.7531 28.26875 530.1906 28.70625Q529.64374 29.128124 529.64374 29.83125Q529.64374 30.471874 530.15936 30.815624Q530.675 31.14375 532.03436 31.45625Q533.39374 31.753124 534.22186 32.175Q535.0656 32.58125 535.47186 33.175Q535.8781 33.76875 535.8781 34.6125Q535.8781 36.034374 534.7375 36.89375Q533.6125 37.753124 531.8 37.753124Q530.53436 37.753124 529.55 37.3Q528.58124 36.846874 528.01874 36.05Q527.47186 35.2375 527.47186 34.3L529.28436 34.3Q529.33124 35.20625 530.0031 35.7375Q530.6906 36.26875 531.8 36.26875Q532.83124 36.26875 533.4406 35.8625Q534.0656 35.440624 534.0656 34.753124ZM542.3 37.753124Q540.15936 37.753124 538.8 36.346874Q537.45624 34.925 537.45624 32.565624L537.45624 32.221874Q537.45624 30.659374 538.05 29.425Q538.65936 28.190624 539.7375 27.4875Q540.8156 26.784374 542.08124 26.784374Q544.14374 26.784374 545.28436 28.14375Q546.425 29.503124 546.425 32.034374L546.425 32.784374L539.26874 32.784374Q539.3 34.346874 540.175 35.315624Q541.05 36.26875 542.39374 36.26875Q543.3625 36.26875 544.01874 35.878124Q544.6906 35.4875 545.1906 34.846874L546.28436 35.70625Q544.95624 37.753124 542.3 37.753124ZM542.08124 28.26875Q540.9875 28.26875 540.2375 29.065624Q539.5031 29.8625 539.33124 31.3L544.6125 31.3L544.6125 31.159374Q544.53436 29.784374 543.8625 29.034374Q543.20624 28.26875 542.08124 28.26875ZM549.8 37.55L549.8 28.378124L548.14374 28.378124L548.14374 26.9875L549.8 26.9875L549.8 25.89375Q549.8 24.20625 550.70624 23.284374Q551.6281 22.346874 553.28436 22.346874Q553.90936 22.346874 554.51874 22.503124L554.425 23.971874Q553.97186 23.89375 553.45624 23.89375Q552.5656 23.89375 552.08124 24.409374Q551.6125 24.909374 551.6125 25.8625L551.6125 26.9875L553.8625 26.9875L553.8625 28.378124L551.6125 28.378124L551.6125 37.55L549.8 37.55ZM562.4406 36.503124Q561.39374 37.753124 559.34686 37.753124Q557.65936 37.753124 556.76874 36.76875Q555.89374 35.784374 555.8781 33.8625L555.8781 26.9875L557.6906 26.9875L557.6906 33.815624Q557.6906 36.20625 559.64374 36.20625Q561.70624 36.20625 562.39374 34.675L562.39374 26.9875L564.20624 26.9875L564.20624 37.55L562.4875 37.55L562.4406 36.503124ZM568.8781 37.55L567.08124 37.55L567.08124 22.55L568.8781 22.55L568.8781 37.55ZM574.03436 33.55Q574.05 32.378124 574.3 31.70625Q574.55 31.034374 575.3 30.221874L576.58124 28.89375Q577.39374 27.971874 577.39374 26.909374Q577.39374 25.878124 576.84686 25.3Q576.3156 24.721874 575.3 24.721874Q574.3 24.721874 573.6906 25.253124Q573.09686 25.76875 573.09686 26.659374L571.28436 26.659374Q571.3 25.08125 572.40936 24.1125Q573.51874 23.128124 575.3 23.128124Q577.14374 23.128124 578.175 24.128124Q579.20624 25.1125 579.20624 26.846874Q579.20624 28.55 577.6281 30.221874L576.55 31.26875Q575.84686 32.065624 575.84686 33.55L574.03436 33.55ZM573.95624 36.64375Q573.95624 36.20625 574.22186 35.909374Q574.5031 35.6125 575.01874 35.6125Q575.55 35.6125 575.8156 35.909374Q576.09686 36.20625 576.09686 36.64375Q576.09686 37.08125 575.8156 37.378124Q575.55 37.659374 575.01874 37.659374Q574.5031 37.659374 574.22186 37.378124Q573.95624 37.08125 573.95624 36.64375Z" fill-rule="nonzero"/></svg>